/* XPM */
extern const char *cachebroadcast[] 
#ifdef XPM_SOURCE
= {
/* columns rows colors chars-per-pixel */
"48 48 68 1",
"  c #010101",
". c #070807",
"X c #0B0C0B",
"o c #0F100F",
"O c #141514",
"+ c #171817",
"@ c #1B1B1B",
"# c #1F201E",
"$ c #222322",
"% c #282927",
"& c #2A2B2A",
"* c #343433",
"= c #363835",
"- c #383937",
"; c #3C3C3B",
": c #444543",
"> c #4B4C4B",
", c #4F514E",
"< c #50514F",
"1 c #535452",
"2 c #575856",
"3 c #5B5C5A",
"4 c #5E605C",
"5 c #646663",
"6 c #6C6D6C",
"7 c #757674",
"8 c #787A77",
"9 c #7B7D7B",
"0 c #80827F",
"q c #868785",
"w c #888987",
"e c #8C8D8C",
"r c #959795",
"t c #979896",
"y c #999A97",
"u c #9B9C9A",
"i c #9EA09D",
"p c #A0A29F",
"a c #A5A6A4",
"s c #A8AAA6",
"d c #ADADAD",
"f c #B1B2AF",
"g c #B3B5B2",
"h c #B7B9B6",
"j c #B9BBB8",
"k c #BFC1BE",
"l c #C3C4C2",
"z c #C7C8C7",
"x c #C8CAC7",
"c c #CACCC9",
"v c #D2D6CE",
"b c #D3D5D1",
"n c #D6D9D2",
"m c #D9DCD5",
"M c #DBDED9",
"N c #DEE1DB",
"B c #E0E3DE",
"V c #E3E6E1",
"C c #E6E9E4",
"Z c #E9EBE6",
"A c #ECEDEA",
"S c #EFF1ED",
"D c #F1F3EE",
"F c #F3F5F2",
"G c #F7F8F5",
"H c #F8FAF6",
"J c #FEFEFD",
"K c None",
/* pixels */
"KKKKKKKKKKKKKKKKKKKKKKKKKKKKKKKKKKKKKKKKKKKKKKKK",
"KKKKKKKKKKKKKKKKKKKKKKKK KKKKKKKKKKKKKKKKKKKKKKK",
"KKKKKKKKKKKKKKKKKKKKKKK.. KKKKKKKKKKKKKKKKKKKKKK",
"KKKKKKKKKKKKKKKKKKKKKK >a KKKKKKKKKKKKKKKKKKKKKK",
"KKKKKKKKKKKKKKKKKKKKK  zJ> KKKKKKKKKKKKKKKKKKKKK",
"KKKKKKKKKKKKKKKKKKKKK 6JJMX KKKKKKKKKKKKKKKKKKKK",
"KKKKKKKKKKKKKKKKKKKK @ZGVJe KKKKKKKKKKKKKKKKKKKK",
"KKKKKKKKKKKKKKKKKKKK yJMMZJ- KKKKKKKKKKKKKKKKKKK",
"KKKKKKKKKKKKKKKKKKK ;GVnMnHx. KKKKKKKKKKKKKKKKKK",
"KKKKKKKKKKKKKKKKKK  kSvnnbnJ7 KKKKKKKKKKKKKKKKKK",
"KKKKKKKKKKKKKKKKKK 5FnnmmmnVA% KKKKKKKKKKKKKKKKK",
"KKKKKKKKKKKKKKKKK #mNnNBBBNnDh  KKKKKKKKKKKKKKKK",
"KKKKKKKKKKKKKKKKK 4MADCCCVCFFv% KKKKKKKKKKKKKKKK",
"KKKKKKKKKKKKKKKKK  O<pSAADSp:.  KKKKKKKKKKKKKKKK",
"KKKKKKKKKKKKKKKKKKK   7JGJ1   KKKKKKKKKKKKKKKKKK",
"KKKKKKKKKKKKKKKKKKKKK  uJ7 .KKKKKKKKKKKKKKKKKKKK",
"KKKKKKKKKKKK KKKKKKKKK .O. KKKKKKKK  KKKKKKKKKKK",
"KKKKKKKKKKK . KKKKKKKKKK KKKKKKKKKK.O  KKKKKKKKK",
"KKKKKKKKK  :hO KKKKKKKKKKKKKKKKKKK *V5  KKKKKKKK",
"KKKKKKK. OtFJ2 KKKKKKKKKKKKKKKKKKK wHGj& .KKKKKK",
"KKKKKK  2NJVFg KKKKKKKK    KKKKKK XmZmFF9. KKKKK",
"KKKK. @fJFNVZF; KKKKKK %73X KKKK  9HBmvCJb;  KKK",
"KKK  6FHVNVZZGA> KKKK -SHJh  KK .tJZVNnvMJJto KK",
"KK ;cJZnMNCZAFHJ* KKK sFbmJ: KK 3JAACBmvmNAJA1 K",
"KK 6JJNvmNVZASJG% KKK gHNmG> KK %ZJZCNmnmVJJl* K",
"KK  @aJDnmNBCFM- KKKK <JJJk. KKK $lFVMnvCJM2  KK",
"KKKK  ;cJVmMCN$ KKKKK  :t8O KKKKK #NVnnFGqX KKKK",
"KKKKKK .6BDnZu .KKKKKKK    KKKKKK. aZBFg%  KKKKK",
"KKKKKKK  @yCS, KKKKKKKKKKKKKKKKKKK 3Hc1  KKKKKKK",
"KKKKKKKKK  :f@ KKKKKKKKKKKKKKKKKKK $9X KKKKKKKKK",
"KKKKKKKKKKK . KKKKKKKKK   KKKKKKKKK   KKKKKKKKKK",
"KKKKKKKKKKKKKKKKKKKKKK O:X KKKKKKKKKKKKKKKKKKKKK",
"KKKKKKKKKKKKKKKKKKKKK .lJu .KKKKKKKKKKKKKKKKKKKK",
"KKKKKKKKKKKKKKKKKK    uJAJ9   KKKKKKKKKKKKKKKKKK",
"KKKKKKKKKKKKKKKKK X=0xFAAAGc8$  KKKKKKKKKKKKKKKK",
"KKKKKKKKKKKKKKKKK 5DAZBCCVVAGA& KKKKKKKKKKKKKKKK",
"KKKKKKKKKKKKKKKKK XlBnNBNBNnFr KKKKKKKKKKKKKKKKK",
"KKKKKKKKKKKKKKKKKK >DmnmmmvZNO KKKKKKKKKKKKKKKKK",
"KKKKKKKKKKKKKKKKKKK aGbbnvNJ2 KKKKKKKKKKKKKKKKKK",
"KKKKKKKKKKKKKKKKKKK $AZnmmJd  KKKKKKKKKKKKKKKKKK",
"KKKKKKKKKKKKKKKKKKKK 9JVNFA$ KKKKKKKKKKKKKKKKKKK",
"KKKKKKKKKKKKKKKKKKKK .bJZJ6 KKKKKKKKKKKKKKKKKKKK",
"KKKKKKKKKKKKKKKKKKKKK >JJk  KKKKKKKKKKKKKKKKKKKK",
"KKKKKKKKKKKKKKKKKKKKKK fJ& KKKKKKKKKKKKKKKKKKKKK",
"KKKKKKKKKKKKKKKKKKKKKK *9 KKKKKKKKKKKKKKKKKKKKKK",
"KKKKKKKKKKKKKKKKKKKKKKK   KKKKKKKKKKKKKKKKKKKKKK",
"KKKKKKKKKKKKKKKKKKKKKKKKKKKKKKKKKKKKKKKKKKKKKKKK",
"KKKKKKKKKKKKKKKKKKKKKKKKKKKKKKKKKKKKKKKKKKKKKKKK"
}
#endif
;
