/* XPM */
extern const char *cacheview[]
#ifdef XPM_SOURCE
 = {
/* columns rows colors chars-per-pixel */
"48 48 155 2",
"   c #020101",
".  c #110C06",
"X  c #161109",
"o  c #1C140B",
"O  c #20170C",
"+  c #221A0E",
"@  c #392A14",
"#  c #5F4825",
"$  c #634B28",
"%  c #66502A",
"&  c #6F552C",
"*  c #72562B",
"=  c #76592B",
"-  c #7B5D2D",
";  c #685435",
":  c #6F5C3E",
">  c #775D34",
",  c #7D6032",
"<  c #7E6338",
"1  c #444444",
"2  c #5B5B5B",
"3  c #7C6441",
"4  c #726451",
"5  c #726A5F",
"6  c #786D5E",
"7  c #646464",
"8  c #7C7467",
"9  c #7E776B",
"0  c gray44",
"q  c #7A7A7A",
"w  c #80612F",
"e  c #836432",
"r  c #886734",
"t  c #876936",
"y  c #8C6B36",
"u  c #8A6A39",
"i  c #926E35",
"p  c #916F39",
"a  c #947037",
"s  c #96723A",
"d  c #9A763D",
"f  c #9C783F",
"g  c #927443",
"h  c #987742",
"j  c #9D7A42",
"k  c #9E7F48",
"l  c #847254",
"z  c #8F7A57",
"x  c #A17D45",
"c  c #837D72",
"v  c #37A42C",
"b  c #41A937",
"n  c #45AB3B",
"m  c #4CAE42",
"M  c #54AD4B",
"N  c #50B047",
"B  c #54B24B",
"V  c #58B34F",
"C  c #5AAF52",
"Z  c #5CB454",
"A  c #60B758",
"S  c #64B95C",
"D  c #6DB667",
"F  c #67BA60",
"G  c #6CBC64",
"H  c #6EB768",
"J  c #71BF6A",
"K  c #75C06D",
"L  c #77C270",
"P  c #7AC373",
"I  c #9F804A",
"U  c #9D8151",
"Y  c #A38047",
"T  c #A6824A",
"R  c #A9864D",
"E  c #AB884F",
"W  c #A48350",
"Q  c #AD8A52",
"!  c #A7895A",
"~  c #B18E56",
"^  c #B28F58",
"/  c #B29057",
"(  c #B5925A",
")  c #B9965E",
"_  c #91836D",
"`  c #9D8B6D",
"'  c #86837D",
"]  c #BA9760",
"[  c #BD9A62",
"{  c #BCA074",
"}  c #C19E66",
"|  c #C29F68",
" . c #C4A26A",
".. c #C8A66E",
"X. c #C3A576",
"o. c #CAA770",
"O. c #CCAA74",
"+. c #C1A67A",
"@. c #C6A879",
"#. c #CDAD79",
"$. c #D1AF7A",
"%. c #D2B27D",
"&. c #858483",
"*. c #888684",
"=. c #8C8983",
"-. c #8D8D8D",
";. c #9F9584",
":. c #949392",
">. c #9B9B9B",
",. c #B2A082",
"<. c #A4A4A4",
"1. c #ADADAD",
"2. c #B6B0A6",
"3. c #BFB7A9",
"4. c #B2B2B2",
"5. c gray74",
"6. c #C6AD86",
"7. c #CBB187",
"8. c #CDB48B",
"9. c #D6B480",
"0. c #D1B78D",
"q. c #C3B193",
"w. c #C2B49D",
"e. c #C0B9AD",
"r. c #91C88D",
"t. c #96CB92",
"y. c #9BCE96",
"u. c #9CD097",
"i. c #9FD19B",
"p. c #A3D39E",
"a. c #A5D3A1",
"s. c #A8D6A5",
"d. c #ADD8AA",
"f. c #B2DAAF",
"g. c #B6CFB4",
"h. c #B9CEB8",
"j. c #B7DCB4",
"k. c #BFD4BE",
"l. c #C2C1BE",
"z. c #C2C2C2",
"x. c #C6CFC5",
"c. c #CBC8C4",
"v. c #CCCCCC",
"b. c #C7D0C6",
"n. c #C8D1C7",
"m. c #C5DEC2",
"M. c #CDD7CC",
"N. c #CFD9CE",
"B. c #D4D4D4",
"V. c #DCDCDC",
"C. c #E5E5E5",
"Z. c #EDEDED",
"A. c #F3F3F3",
"S. c #FBFBFB",
"D. c None",
/* pixels */
"D.D.D.D.D.D.D.D.D.D.D.D.D.D.D.D.D.D.D.D.D.D.D.D.D.D.D.D.D.D.D.D.D.D.D.D.D.D.D.D.D.D.D.D.D.D.D.D.",
"D.D.D.D.D.D.:.5.z.z.z.z.z.z.z.z.z.5.z.z.z.z.z.5.z.z.z.5.z.5.-.D.D.D.D.D.D.D.D.D.D.D.D.D.D.D.D.D.",
"D.D.D.D.D.D.v.C.C.C.Z.C.C.Z.C.Z.Z.Z.C.Z.Z.Z.Z.Z.Z.Z.Z.A.Z.Z.v.D.D.D.D.D.D.D.D.D.D.D.D.D.D.D.D.D.",
"D.D.D.D.D.D.v.C.C.Z.C.Z.Z.C.Z.Z.Z.Z.Z.Z.Z.Z.Z.Z.Z.Z.Z.Z.Z.Z.v.D.D.D.D.D.D.D.D.D.D.D.D.D.D.D.D.D.",
"D.D.D.D.D.D.B.C.C.C.Z.C.Z.Z.Z.Z.C.A.Z.Z.Z.Z.A.Z.Z.Z.A.Z.A.Z.v.D.D.D.D.D.D.D.D.D.D.D.D.D.D.D.D.D.",
"D.D.D.D.D.D.v.C.Z.Z.Z.Z.Z.Z.C.Z.Z.Z.A.Z.Z.A.Z.Z.A.Z.A.Z.Z.A.v.D.D.D.D.D.D.D.D.D.D.D.D.D.D.D.D.D.",
"D.D.D.D.D.D.B.C.Z.C.Z.C.Z.C.Z.Z.Z.Z.Z.Z.Z.Z.A.Z.Z.A.Z.A.A.Z.v.D.D.D.D.D.D.D.D.D.D.D.D.D.D.D.D.D.",
"D.D.D.D.D.D.B.Z.C.Z.Z.Z.Z.A.Z.A.Z.A.A.Z.A.Z.A.A.A.A.A.A.A.A.v.D.D.D.D.D.D.D.D.D.D.D.D.D.D.D.D.D.",
"D.D.D.D.D.D.B.C.Z.C.A.Z.Z.Z.Z.Z.A.Z.A.Z.A.A.A.A.A.A.A.A.A.A.v.D.D.D.D.D.D.D.D.D.D.D.D.D.D.D.D.D.",
"D.D.D.D.D.D.v.Z.Z.Z.Z.Z.Z.Z.A.Z.Z.A.Z.A.A.A.A.A.A.A.A.S.S.A.v.D.D.D.D.D.D.D.D.D.D.D.D.D.D.D.D.D.",
"D.D.D.D.D.D.B.C.C.Z.Z.Z.Z.A.Z.A.A.A.A.A.A.A.A.A.S.A.S.A.A.S.v.D.D.D.D.D.D.D.D.D.D.D.D.D.D.D.D.D.",
"D.D.D.D.D.D.v.Z.Z.Z.A.Z.Z.Z.A.Z.Z.A.A.A.S.A.A.S.S.A.S.S.S.S.v.D.D.D.D.D.D.D.D.D.D.D.D.D.D.D.D.D.",
"D.D.D.D.D.D.v.Z.A.Z.Z.A.Z.A.A.A.A.A.A.S.S.A.S.S.S.S.S.S.S.S.v.D.D.D.D.D.D.D.D.D.D.D.D.D.D.D.D.D.",
"D.D.D.D.D.D.B.Z.Z.Z.Z.Z.A.Z.A.A.A.A.A.S.S.S.S.S.S.S.S.S.S.S.v.D.D.D.D.D.D.D.D.D.D.D.D.D.D.D.D.D.",
"D.D.D.D.D.D.B.Z.Z.Z.A.A.Z.A.A.A.S.A.S.S.S.S.S.S.S.S.S.S.S.S.v.D.D.D.D.D.D.D.D.D.D.D.D.D.D.D.D.D.",
"D.D.D.D.D.D.v.Z.A.Z.Z.A.A.A.A.A.A.A.S.S.S.S.S.S.S.S.S.S.S.S.v.D.D.D.D.D.D.D.D.D.D.D.D.D.D.D.D.D.",
"D.D.D.D.D.D.M.Z.A.Z.A.A.A.A.S.A.S.S.S.S.S.S.S.S.A.A.A.A.A.S.v.D.D.D.D.D.D.D.D.D.D.D.D.D.D.D.D.D.",
"D.D.D.D.D.D.B.A.Z.Z.A.A.A.A.A.S.S.S.S.S.S.S.S.A.A.A.Z.Z.Z.Z.v.D.D.D.D.D.D.D.D.D.D.D.D.D.D.D.D.D.",
"D.D...@.#.X.9.0.8.0.0.0.0.0.0.0.0.0.0.0.8.8.8.8.8.8.8.8.7.8.6.{ @.@.@.D.D.D.D.D.D.D.D.D.D.D.D.D.",
"D.D.$.9.9.9.%.%.%.%.%.%.%.%.%.%.%.%.$.%.$.$.#.#.#.#.O.#.O.#.#.#.#.O.O.{ D.D.D.D.D.D.D.D.D.D.D.D.",
"D.D.O.$.O.O.O.o.O.o.o.o.O.o.o.o.o......... . . . . . . . . . .|  . .X.X.D.D.D.D.D.D.D.D.D.D.D.D.",
"D.D.o.......o........... . . . . .|  . .| | | | } } } } [ [ q.3.c.V.Z.C.B.c.5.D.D.D.D.D.D.D.D.D.",
"D. . . . . . . . . . . . .[ | | [ [ [ [ [ [ [ [ [ ) ) ) { l.C.Z.Z.A.A.S.A.S.A.C.1.D.D.D.D.D.D.D.",
"D.} | |  .) )  .[ ) ) ) [ ) ) ) ] ] ] ] ) ) ) ( ( ) ( e.B.C.A.Z.A.A.A.A.A.A.S.A.A.B.D.D.D.D.D.D.",
"D.[ ] ] ] ) ] ) ) ) ) ) ) ( ( ( ( ( ( / ( / / Q / ~ 3.V.C.Z.Z.Z.A.A.j.j.A.A.A.A.A.A.C.D.D.D.D.D.",
"( ) ) ( ) ( ( ( / / ^ / ^ ^ ^ ^ ^ ^ Q Q Q Q Q Q Q { B.C.Z.Z.Z.Z.A.d.P P s.A.S.A.A.A.A.B.D.D.D.D.",
"D.W T I I j k I I k j j k j k j h k j k k h j j U z.V.C.Z.Z.Z.A.s.L L L P s.A.A.A.A.A.A.4.D.D.D.",
"D.D.Y x x x x x x x x x j x j j x j j x j j j x 2.B.V.C.C.Z.Z.a.J K K K L L p.A.A.A.A.A.C.2 D.D.",
"D.D.R T R Y T T R Y Y R Y Y Y Y x Y Y Y Y Y Y ! 4.B.C.C.Z.Z.i.G G J J K J K K p.A.A.A.A.Z.1.D.D.",
"D.D.Q Q Q Q Q Q E E E E E E E E R R R R R T T ` z.V.C.C.C.i.F G G G G G G J J K p.A.A.A.A.z.D.D.",
"D.D./ / Q / Q Q ~ Q ~ E ~ Q Q Q Q Q E Q E E E ;.z.V.V.C.t.S F S F G G G G G G G G u.A.Z.Z.V.D.D.",
"D.D.( ) ( ( ( ( / / / ^ ~ ~ Q ^ Q Q Q Q Q Q Q -.z.B.V.t.Z S Z S S S S S S G G G G G t.A.C.C.7 D.",
"D.D.) ) ( ) ( ( ( ( ^ ^ ^ ^ ^ ~ ^ ~ ~ ~ ~ E Q =.z.B.l.Z V B N m m n v m m m m B V Z Z m.Z.V.&.D.",
"D.D.( ) ( ( ( ^ ( ^ ^ ~ ^ ~ ~ ~ Q ~ E E Q E E ' 1.c.n.n.n.n.n.n.C v v v v M M.M.N.N.N.V.B.B.0 D.",
"D.D./ / ^ ^ ^ ^ ^ ~ ~ ~ ~ Q Q Q E Q E E E R R c <.z.v.M.B.B.B.B.C v v v v M V.V.V.V.V.V.B.v.D.D.",
"D.D./ ^ ~ Q ~ ~ ~ E E Q E Q E R E E R R R R R c >.z.v.v.B.B.V.B.C v v v v M V.V.V.C.C.B.B.5.D.D.",
"D.D.Q ~ Q Q Q Q Q E E E R E R T R R R T T T Y z :.e.z.v.B.B.B.V.C v v v v M V.V.V.V.V.B.B.<.D.D.",
"D.D.Q Q Q Q E E R R R E T R R T T Y Y Y T x x g *.1.5.v.B.B.B.B.C v v v v M V.V.C.V.V.B.v.q D.D.",
"D.D.E R R R R R R T T T R T x T Y Y x x x x x x l >.z.v.v.B.B.V.Z v v v v M V.V.V.V.B.B.<.D.D.D.",
"D.D.R R T T T T R x T T x x x x x x x f x x x f u 9 >.z.v.v.B.B.h.H D H H h.V.V.V.B.v.z.D.D.D.D.",
"D.D.R Y Y Y Y Y x x x x x x x x x x f x f f f d h < =.<.z.c.v.M.B.V.V.V.B.V.V.B.B.v.v.q D.D.D.D.",
"D.D.Y Y Y Y Y x x x x x x d j d f f f d f d d d d d 3 ' <.z.c.v.v.v.B.B.B.B.B.B.v.5.q D.D.D.D.D.",
"D.D.x x x x j j x x d x d j d d d d d d s d s d s s i = 6 >.4.z.z.v.v.v.v.v.v.z.<.1 D.D.D.D.D.D.",
"D.D.x j j x j j x d d d d d d d d s s s s a a a i i a p > : ' :.1.4.5.z.5.1.>.q D.D.D.D.D.D.D.D.",
"D.D.j j j f d d d d d s d s s s s s s a a i i i i i i s h u , & ; 4 8 5 1 D.D.D.D.D.D.D.D.D.D.D.",
"D.D.r d d d s p y y r r r e e w - - - = = = = = = * > > * & & & % $ # @ D.D.D.D.D.D.D.D.D.D.D.D.",
"D.D.D.O O O O O o o o o o o X X X X X X . . . . . . . . . . . . . . .   D.D.D.D.D.D.D.D.D.D.D.D.",
"D.D.D.D.D.D.D.D.D.D.D.D.D.D.D.D.D.D.D.D.D.D.D.D.D.D.D.D.D.D.D.D.D.D.D.D.D.D.D.D.D.D.D.D.D.D.D.D."
}
#endif
;
