/* XPM */
extern const char *cachecollect[] 
#ifdef XPM_SOURCE
= {
/* columns rows colors chars-per-pixel */
"48 48 236 2",
"   c #020101",
".  c #110C06",
"X  c #161109",
"o  c #1C140B",
"O  c #20170C",
"+  c #221A0E",
"@  c #392A14",
"#  c #2F7C25",
"$  c #307E25",
"%  c #5F4825",
"&  c #634B28",
"*  c #66502A",
"=  c #6F552C",
"-  c #72562B",
";  c #76592B",
":  c #7B5D2D",
">  c #685435",
",  c #6F5C3E",
"<  c #775D34",
"1  c #7D6032",
"2  c #7E6338",
"3  c #444444",
"4  c #5B5B5B",
"5  c #7C6441",
"6  c #726451",
"7  c #726A5F",
"8  c #786D5E",
"9  c #646464",
"0  c #7C7467",
"q  c #7E776B",
"w  c gray44",
"e  c #7A7A7A",
"r  c #80612F",
"t  c #836432",
"y  c #886734",
"u  c #876936",
"i  c #8C6B36",
"p  c #8A6A39",
"a  c #926E35",
"s  c #916F39",
"d  c #947037",
"f  c #96723A",
"g  c #9A763D",
"h  c #9C783F",
"j  c #927443",
"k  c #987742",
"l  c #9D7A42",
"z  c #9E7F48",
"x  c #847254",
"c  c #8F7A57",
"v  c #A17D45",
"b  c #837D72",
"n  c #328326",
"m  c #338728",
"M  c #358B29",
"N  c #37912A",
"B  c #38952C",
"V  c #4C9A41",
"C  c #559D4B",
"Z  c #53A049",
"A  c #5CA353",
"S  c #64A35B",
"D  c #64AB5A",
"F  c #6DA465",
"G  c #71A26B",
"H  c #73AB6B",
"J  c #6BB061",
"K  c #71B468",
"L  c #78B96F",
"P  c #7AA473",
"I  c #7DAC77",
"U  c #9F804A",
"Y  c #9D8151",
"T  c #A38047",
"R  c #A6824A",
"E  c #A9864D",
"W  c #AB884F",
"Q  c #A48350",
"!  c #AD8A52",
"~  c #A7895A",
"^  c #B18E56",
"/  c #B28F58",
"(  c #B29057",
")  c #B5925A",
"_  c #B9965E",
"`  c #91836D",
"'  c #9D8B6D",
"]  c #86837D",
"[  c #BA9760",
"{  c #BD9A62",
"}  c #BCA074",
"|  c #C19E66",
" . c #C29F68",
".. c #C4A26A",
"X. c #C8A66E",
"o. c #C4A775",
"O. c #CAA770",
"+. c #CCAA74",
"@. c #C3A779",
"#. c #C6A879",
"$. c #CCAD79",
"%. c #D1AF7A",
"&. c #D2B27D",
"*. c #346AAE",
"=. c #2C71C6",
"-. c #3676C4",
";. c #3977C2",
":. c #367ACD",
">. c #3F7DCC",
",. c #427EC5",
"<. c #407FCC",
"1. c #4380CA",
"2. c #4C86CD",
"3. c #4383D5",
"4. c #4B86D1",
"5. c #4E88D0",
"6. c #4787D9",
"7. c #4C8ADC",
"8. c #568ED3",
"9. c #5C8FD2",
"0. c #548EDB",
"q. c #598FD8",
"w. c #5691DF",
"e. c #5F94DC",
"r. c #6195DB",
"t. c #6398DE",
"y. c #699CDF",
"u. c #518FE0",
"i. c #5592E2",
"p. c #5B95E4",
"a. c #5E98E8",
"s. c #6299E6",
"d. c #6A9EE2",
"f. c #649CEA",
"g. c #6CA0E4",
"h. c #67A0EF",
"j. c #69A0EF",
"k. c #73A4E7",
"l. c #74A5E9",
"z. c #7EACEE",
"x. c #6DA4F2",
"c. c #71A7F5",
"v. c #74AAF6",
"b. c #7FADF0",
"n. c #77ACF8",
"m. c #7EB1FD",
"M. c #858483",
"N. c #888684",
"B. c #8C8983",
"V. c #9F9584",
"C. c #969593",
"Z. c #9B9B9B",
"A. c #AF9E82",
"S. c #AFA082",
"D. c #B2A284",
"F. c #A4A4A4",
"G. c #ADADAD",
"H. c #B6B0A6",
"J. c #BFB7A9",
"K. c #A7ACB0",
"L. c #B3B3B3",
"P. c #BCBDBC",
"I. c #D6B480",
"U. c #C3B193",
"Y. c #C2B49D",
"T. c #C0B9AD",
"R. c #8CC484",
"E. c #8FC488",
"W. c #93C48C",
"Q. c #97C491",
"!. c #9AC494",
"~. c #9CC996",
"^. c #9FC59A",
"/. c #A2CD9C",
"(. c #A7CFA1",
"). c #ABD3A5",
"_. c #AED3A9",
"`. c #B2D8AD",
"'. c #B6D9B1",
"]. c #BADDB6",
"[. c #BEDDBA",
"{. c #C2C1BE",
"}. c #96AAC4",
"|. c #9BB0CA",
" X c #8FABD0",
".X c #A5B8CF",
"XX c #A5B9D0",
"oX c #ACBDD5",
"OX c #94BAEF",
"+X c #85B3F4",
"@X c #8BB6F6",
"#X c #8FB9F6",
"$X c #84B4FB",
"%X c #8DB9F9",
"&X c #94BCF4",
"*X c #9ABFF1",
"=X c #95BEFB",
"-X c #B3C4DC",
";X c #9DC1F2",
":X c #9AC1FA",
">X c #B6C8E0",
",X c #BBCCE4",
"<X c #A3C5F4",
"1X c #A9C7F6",
"2X c #AAC8F6",
"3X c #A6C8F8",
"4X c #ADCBF8",
"5X c #B2CEF9",
"6X c #B8D0F4",
"7X c #BBD3F9",
"8X c #C4C4C4",
"9X c #CBC8C4",
"0X c #C4C7CF",
"qX c #CCCCCC",
"wX c #C7DCC3",
"eX c #C8DCC5",
"rX c #CCD2CC",
"tX c #CCDEC9",
"yX c #D0D5CF",
"uX c #C6C9D1",
"iX c #C8CCD2",
"pX c #C8CFDA",
"aX c #D4D4D4",
"sX c #D8DBD7",
"dX c #DCDCDC",
"fX c #D1E1CF",
"gX c #D3E2D2",
"hX c #DDE1DD",
"jX c #C1D2E9",
"kX c #D5E0EE",
"lX c #E4E4E4",
"zX c #E3EEE2",
"xX c #ECECEC",
"cX c #EFF0EE",
"vX c #F3F3F3",
"bX c None",
/* pixels */
"bXbXbXbXbXbXbXbXbXbXbXbXbXbXbXbXbXbXbXbXbXbXbXbXbXbXbXbXbXbXbXbXbXbXbXbXbXbXbXbXbXbXbXbXbXbXbXbX",
"bXbXbXbXbXbXbXbX*X*X<X<X<X3X*Xv.n.n.c.c.x.x.x.f.f.a.p.p.u.7.7.bXbXbXbXbXbXbXbXbXbXbXbXbXbXbXbXbX",
"bXbXbXbXbXbXbXbXOX*X*X*X;X&Xx.x.c.c.x.x.x.h.f.f.a.p.p.u.7.7.6.bXbXbXbXbXbXbXbXbXbXbXbXbXbXbXbXbX",
"bXbXbXbXbXbXbXbXi.i.p.a.s.f.f.f.f.f.f.f.s.s.s.p.i.i.u.7.7.6.6.bXbXbXbXbXbXbXbXbXbXbXbXbXbXbXbXbX",
"bXbXbXbXbXbXbXbX XoX-X-X>X>X,X,XjXjXjXjXjXjX,X>X-X-XoXoX.X|.<.bXbXbXbXbXbXbXbXbXbXbXbXbXbXbXbXbX",
"bXbXbXbXbXbXbXbXoXlXlXlXlXxXxXcXvXvXvXvXvXvXcXxXxXlXdXdXsXuX>.bXbXbXbXbXbXbXbXbXbXbXbXbXbXbXbXbX",
"bXbXbXbXbXbXbXbXoXdXlXlXlXxXxXyXqXqXqXqXqXqXqX8X8X'.P.P.L.G.*.bXbXbXbXbXbXbXbXbXbXbXbXbXbXbXbXbX",
"bXbXbXbXbXbXbXbXXXdXdXlXlXkX7X5X5X5X5X5X5X5X2X1X1X1X<X<X<X;X#X=X=XbXbXbXbXbXbXbXbXbXbXbXbXbXbXbX",
"bXbXbXbXbXbXbX9.}.0XuXpX6X:X=X:X=X=X=X=X=X=X=X=X%X=X#X=X#X@X$X$X$XbXbXbXbXbXbXbXbXbXbXbXbXbXbXbX",
"bXbXbXbXbX$X$X+X@X&X&X&X%X%X%X%X%X%X%X@X%X%X@X+X%X@X+X+X@X@Xv.$X$XbXbXbXbXbXbXbXbXbXbXbXbXbXbXbX",
"bXbXbXbXbXn.n.c.b.+X+X+X+X+X+X+X+X+X+X+X+X+X+X+X+X+X+X+X+X+Xc.v.v.bXbXbXbXbXbXbXbXbXbXbXbXbXbXbX",
"bXbXbXbXbXbXx.x.j.z.b.b.z.z.+Xz.+X+Xl.+X+X+X+X+X+Xz.l.+Xl.l.j.c.bXbXbXbXbXbXbXbXbXbXbXbXbXbXbXbX",
"bXbXbXbXbXbXf.s.d.k.k.k.k.l.l.l.k.l.l.l.l.k.l.k.k.k.k.k.k.g.a.f.bXbXbXbXbXbXbXbXbXbXbXbXbXbXbXbX",
"bXbXbXbXbXbXi.i.p.d.d.y.d.d.d.d.y.d.d.d.d.d.d.d.d.y.d.d.y.r.i.p.bXbXbXbXbXbXbXbXbXbXbXbXbXbXbXbX",
"bXbXbXbXbXbX7.7.q.r.r.r.r.r.r.r.r.r.r.r.r.r.r.r.r.r.r.r.e.p.<.i.bXbXbXbXbXbXbXbXbXbXbXbXbXbXbXbX",
"bXbXbXbXbXbXbX3.4.8.8.8.9.q.8.8.8.q.8.q.8.8.8.8.8.8.9.9.<.u.>.<.bXbXbXbXbXbXbXbXbXbXbXbXbXbXbXbX",
"bXbXbXbXbXbXbX:.1.2.2.2.2.2.2.2.,.8.<.8.5.,.8.,.8.2.,.2.2.,.:.bXbXbXbXbXbXbXbXbXbXbXbXbXbXbXbXbX",
"bXbXbXbXbXbXbX=.*.1.1.1.,.,.1.,.,.,.,.,.,.,.,.,.,.,.,.,.,.;.=.bXbXbXbXbXbXbXbXbXbXbXbXbXbXbXbXbX",
"bXbXX.#.$.$.%.D.D.D.D.D.D.D.D.D.D.D.D.D.A.A.A.D.A.A.D.A.A.A.D.#.#.#.#.bXbXbXbXbXbXbXbXbXbXbXbXbX",
"bXbX%.I.I.I.&.&.I.I.&.&.&.&.&.&.&.&.&.&.%.%.%.%.%.$.%.$.$.$.$.$.#.+.#...bXbXbXbXbXbXbXbXbXbXbXbX",
"bXbX%.+.+.+.+.+.$.O.+.O.O.O.O.O.X.X. .X. .X. .X.X. ... . . . . .....@.o.bXbXbXbXbXbXbXbXbXbXbXbX",
"bXbXO.O.X.X.X.X.X.X.X.X.X....... . .| |  . . .| | | | | | | U.T.9XlXxXlXsX9X{.bXbXbXbXbXbXbXbXbX",
"bX..X...............{ ..| | | | | | | | | | ) | | _ _ [ @.{.lXxXvXvXvXvXvXvXvXcXG.bXbXbXbXbXbXbX",
"bX....{ ..{ { { _ { { _ [ { [ { | ) ) | ) | ) ) ) ) _ Y.aXlXcXcXvXvXvXvXvXvXvXvXvXaXbXbXbXbXbXbX",
"bX{ { [ [ [ [ [ _ _ _ _ ( _ ) ) ) ) ) ( ( ( / ^ / ^ J.dXlXxXxXcXvXvXvXvXvXvXvXvXvXvXlXbXbXbXbXbX",
") ) ) ) ) ) ) ) ( / / ( ( ^ ^ ! ^ / ! ! ! ! ! ! ! D.aXlXxXxXcXcXvXkXzXzXzXvXvXvXvXvXvXaXbXbXbXbX",
"bXQ R U U U U U z z U l z k l z k z l z z k l l v {.dXlXxXxXcXcXcXP P P P sXvXvXvXvXvXvXL.bXbXbX",
"bXbXT T v v v v v v v v v v v v v l l v l l l l H.aXlXlXxXxXxXcXcXP P P P yXvXvXvXvXvXvXlX4 bXbX",
"bXbXE R T E R T T T E T T T T T v T T T T T v ~ L.aXkXxXxXxXxXxXxXP P P P yXcXvXvXvXvXvXcXK.bXbX",
"bXbX! ! ! W W ! ! W W W ! E ! E E E E E E R E ' T.dXhXlXlXxXxXxXxXP P P P yXcXvXvXvXvXvXxX8XbXbX",
"bXbX( ( ^ ( ^ ^ ^ ! ^ ! ! ! ! ! ! ! ! W Q ! R A.uXdXdXlXwXwXrXwXeXP P P P aXgXfXgXgXvXxXcXdXbXbX",
"bXbX) ) ( ) ) ( ( ( ( ^ ^ ^ ^ ^ ! ! ! ! ! ! ! B.8XdXdXdXI H H G F M m m m F G G F H sXcXxXlX9 bX",
"bXbX_ _ _ _ ( _ ) ) / ( / / / / ^ ^ ^ ^ ! ! ! N.8XsXdXdXI H H G F M m m m F G G F H sXxXxXdXM.bX",
"bXbX) ) ) ( ) ( / / ^ ^ / ^ ^ ^ ! ^ ! ! ! ! E ] G.8XqXqXI H H G F M m m m F G G F H sXdXaXaXw bX",
"bXbX) ( / ^ ^ ^ ^ ^ ^ ! ! ^ ^ W ! W W ! E E E b F.8XqXrXI H H G F M m m m F G G F H sXdXaXiXbXbX",
"bXbX( ( ^ ^ ^ ^ ^ ! ! ! ! W W W W E E E E R E ` Z.{.qXqXaXaXsXsXaXm m n n aXdXdXhXhXdXsXaXP.bXbX",
"bXbX! ^ ! ! ! ! ! ! E ! E E E E E E E T R R T c C.P.8XqXaXaXaXaXyXm n n $ yXdXdXlXdXsXaXaXF.bXbX",
"bXbX! ! ! ! E ! E E E E R E E v R R T T T v v j N.F.{.qXaXaXaXsXyXm n $ $ yXdXdXdXdXsXaXqXe bXbX",
"bXbXW E E E E E v E E R E E v v T v v v v v v v x Z.P.8XiXaXaXaXyX$ $ $ $ yXdXdXdXdXaXaXF.bXbXbX",
"bXbXE E R E T T E v R v v v R v v v v l v v l h p q F.8XqXqXaXsXsXP P P P sXdXdXdXsXqX8XbXbXbXbX",
"bXbXE T T T T T v v v v v v v v v h l h h l g h g 2 N.F.8XqXqXyXaXdXdXdXdXsXsXsXaXiXqXe bXbXbXbX",
"bXbXT T T T v v v v v v l l h g h h h h g h g g g f 5 ] F.8X8XqXqXqXaXaXaXaXaXiXiXT.e bXbXbXbXbX",
"bXbXv v v v l v v v l l h h h g g g g g g g g g f f a < 8 Z.L.8X9X9X9XqXqXqXqX9XF.3 bXbXbXbXbXbX",
"bXbXv v l l l l l l g g g g g g g g d g d d a d a a a a : , b C.G.L.oX{.P.G.Z.e bXbXbXbXbXbXbXbX",
"bXbXl h l h g g g g g f g g f f g d d d d a a a a a a g k y 1 = > 6 x 7 3 bXbXbXbXbXbXbXbXbXbXbX",
"bXbXu g g g f s i i y y t t r r : : : ; ; ; ; ; ; - < < = < = = * & & @ bXbXbXbXbXbXbXbXbXbXbXbX",
"bXbXbXO O O O O o o o o o o X X X X X X . . . . . . . . . . . . . . .   bXbXbXbXbXbXbXbXbXbXbXbX",
"bXbXbXbXbXbXbXbXbXbXbXbXbXbXbXbXbXbXbXbXbXbXbXbXbXbXbXbXbXbXbXbXbXbXbXbXbXbXbXbXbXbXbXbXbXbXbXbX"
}
#endif
;
