/* XPM */
extern const char *cacheclear[] 
#ifdef XPM_SOURCE
= {
/* columns rows colors chars-per-pixel */
"48 48 158 2",
"   c #020101",
".  c #110C06",
"X  c #161109",
"o  c #1C140B",
"O  c #20170C",
"+  c #221A0E",
"@  c #392A14",
"#  c #5F4825",
"$  c #634B28",
"%  c #66502A",
"&  c #6F552C",
"*  c #72562B",
"=  c #76592B",
"-  c #7B5D2D",
";  c #685435",
":  c #6F5C3E",
">  c #775D34",
",  c #7D6032",
"<  c #7E6338",
"1  c #444444",
"2  c #4C4C4C",
"3  c #5B5B5B",
"4  c #7C6441",
"5  c #726451",
"6  c #726A5F",
"7  c #786D5E",
"8  c #666666",
"9  c DimGray",
"0  c #7C7467",
"q  c #7E776B",
"w  c gray44",
"e  c #7A7A7A",
"r  c #BF0303",
"t  c #C31C1C",
"y  c #C42121",
"u  c #C42929",
"i  c #C92A2A",
"p  c #C43333",
"a  c #CC3333",
"s  c #80612F",
"d  c #836432",
"f  c #886734",
"g  c #876936",
"h  c #8C6B36",
"j  c #8A6A39",
"k  c #926E35",
"l  c #916F39",
"z  c #947037",
"x  c #96723A",
"c  c #9A763D",
"v  c #9C783F",
"b  c #927443",
"n  c #987742",
"m  c #9D7A42",
"M  c #9E7F48",
"N  c #847254",
"B  c #8F7A57",
"V  c #A17D45",
"C  c #837D72",
"Z  c #C96262",
"A  c #CD6A6A",
"S  c #DC7575",
"D  c #DD7C7C",
"F  c #9F804A",
"G  c #9D8151",
"H  c #A38047",
"J  c #A6824A",
"K  c #A9864D",
"L  c #AB884F",
"P  c #A48350",
"I  c #AD8A52",
"U  c #A7895A",
"Y  c #B18E56",
"T  c #B28F58",
"R  c #B29057",
"E  c #B5925A",
"W  c #B9965E",
"Q  c #91836D",
"!  c #9D8B6D",
"~  c #86837D",
"^  c #BA9760",
"/  c #BD9A62",
"(  c #BB9F74",
")  c #BCA074",
"_  c #C19E66",
"`  c #C29F68",
"'  c #C4A26A",
"]  c #C8A66E",
"[  c #C3A576",
"{  c #CAA770",
"}  c #CCAA74",
"|  c #C1A67A",
" . c #C6A879",
".. c #CDAD79",
"X. c #D1AF7A",
"o. c #D2B27D",
"O. c #848483",
"+. c #888684",
"@. c #8C8983",
"#. c #8E8E8E",
"$. c #9F9584",
"%. c #959494",
"&. c #9B9B9B",
"*. c #B2A082",
"=. c #A4A4A4",
"-. c #ACACAC",
";. c #B6B0A6",
":. c #BFB7A9",
">. c #B1B1B1",
",. c #BDBDBD",
"<. c #D68383",
"1. c #DF8282",
"2. c #DF8C8C",
"3. c #E08585",
"4. c #E28B8B",
"5. c #E39393",
"6. c #E59B9B",
"7. c #C7AC82",
"8. c #CFB68D",
"9. c #D6B480",
"0. c #D0B78E",
"q. c #D0B88E",
"w. c #C3B193",
"e. c #CEB793",
"r. c #CEB996",
"t. c #C2B49D",
"y. c #C0B9AD",
"u. c #D5BFBF",
"i. c #DABEBE",
"p. c #E7A2A2",
"a. c #E8A5A5",
"s. c #E9AAAA",
"d. c #E5B5B5",
"f. c #EBB2B2",
"g. c #E9BEBE",
"h. c #C2C1BE",
"j. c #C4C4C4",
"k. c #CBC8C4",
"l. c #CCCCCC",
"z. c #D3C5C5",
"x. c #DAC5C5",
"c. c #D2C8C8",
"v. c #D9C9C9",
"b. c #D4D3D3",
"n. c #DBD3D3",
"m. c #DBDBDB",
"M. c #EBC4C4",
"N. c #EDCBCB",
"B. c #E7DEDE",
"V. c #F1D6D6",
"C. c #F2DBDB",
"Z. c #E4E4E4",
"A. c #ECE2E2",
"S. c #ECECEC",
"D. c #F1E8E8",
"F. c #F3F3F3",
"G. c #FCFCFC",
"H. c None",
/* pixels */
"H.H.H.H.H.H.H.H.H.H.H.H.H.H.H.H.H.H.H.H.H.H.H.H.H.H.H.H.H.H.H.H.H.H.H.H.H.H.H.H.H.H.H.H.H.H.H.H.",
"H.H.H.H.H.H.H.H.H.H.H.H.H.H.H.H.H.H.H.H.H.H.H.H.O.S.9 H.H.H.H.H.H.H.H.H.H.H.H.H.H.H.H.H.H.H.H.H.",
"H.H.H.H.H.H.H.H.H.&.F.H.H.H.H.H.H.H.H.H.H.H.H.j.Z.Z.S.e H.H.H.H.H.H.H.H.H.H.H.H.H.H.H.H.H.H.H.H.",
"H.H.H.H.H.H.H.H.,.S.F.&.H.H.H.H.H.H.H.H.H.H.Z.Z.Z.Z.S.S.+.H.H.H.H.H.H.H.H.H.H.H.H.H.H.H.H.H.H.H.",
"H.H.H.H.H.H.H.>.S.Z.S.S.Z.%.H.H.H.H.H.H.#.S.Z.Z.Z.Z.F.S.S.H.H.H.H.H.H.H.H.H.H.H.H.H.H.H.H.H.H.H.",
"H.H.H.H.H.H.8 S.Z.S.S.F.S.S.S.l.H.H.H.l.S.S.S.Z.Z.S.S.F.S.H.H.H.H.H.H.H.H.H.H.H.H.H.H.H.H.H.H.H.",
"H.H.H.H.H.H.#.S.Z.S.S.F.S.S.S.S.S.Z.S.S.F.S.S.Z.Z.Z.S.S.S.H.H.H.H.H.H.H.H.H.H.H.H.H.H.H.H.H.H.H.",
"H.H.H.H.H.H.#.S.S.S.S.S.F.S.S.S.S.m.Z.S.F.S.S.Z.Z.S.F.F.F.2 H.H.H.H.H.H.H.H.H.H.H.H.H.H.H.H.H.H.",
"H.H.H.H.H.H.%.S.S.S.S.S.F.F.S.S.S.S.m.S.F.S.S.S.Z.F.F.F.F.9 H.H.H.H.H.H.H.H.H.H.H.H.H.H.H.H.H.H.",
"H.H.H.H.H.H.&.S.Z.S.S.S.F.F.S.F.F.S.Z.S.F.F.S.S.S.F.F.F.G.O.H.H.H.H.H.H.H.H.H.H.H.H.H.H.H.H.H.H.",
"H.H.H.H.H.H.&.S.S.S.S.S.S.F.F.S.S.F.S.S.F.F.F.S.Z.F.G.G.F.=.H.H.H.H.H.H.H.H.H.H.H.H.H.H.H.H.H.H.",
"H.H.H.H.H.H.&.S.S.S.S.S.S.F.F.F.F.F.F.S.F.F.F.F.S.G.G.F.G.j.H.H.H.H.H.H.H.H.H.H.H.H.H.H.H.H.H.H.",
"H.H.H.H.H.H.=.S.S.F.S.F.S.F.F.F.F.F.F.F.G.G.F.F.S.G.G.G.G.b.H.H.H.H.H.H.H.H.H.H.H.H.H.H.H.H.H.H.",
"H.H.H.H.H.H.=.S.S.S.S.S.F.F.F.F.F.F.G.F.F.G.F.F.F.G.G.G.G.S.H.H.H.H.H.H.H.H.H.H.H.H.H.H.H.H.H.H.",
"H.H.H.H.H.H.=.S.S.S.F.F.S.F.F.F.F.F.F.G.G.G.G.G.G.G.G.F.F.F.H.H.H.H.H.H.H.H.H.H.H.H.H.H.H.H.H.H.",
"H.H.H.H.H.H.-.S.F.S.F.S.F.F.F.G.G.G.G.G.G.G.G.G.G.G.G.F.F.F.H.H.H.H.H.H.H.H.H.H.H.H.H.H.H.H.H.H.",
"H.H.H.H.H.H.>.S.S.F.S.F.F.F.F.F.G.F.G.G.G.G.G.G.G.G.F.F.D.S.H.H.H.H.H.H.H.H.H.H.H.H.H.H.H.H.H.H.",
"H.H.H.H.H.H.>.D.S.S.F.F.F.F.G.G.G.G.G.G.G.G.G.G.G.G.F.S.S.S.H.H.H.H.H.H.H.H.H.H.H.H.H.H.H.H.H.H.",
"H.H.]  ...| ..q.q.0.0.0.q.q.8.q.0.0.q.q.q.0.0.0.q.e.r.r.r.e.)  . . . .H.H.H.H.H.H.H.H.H.H.H.H.H.",
"H.H.o.9.9.o.o.o.o.o.o.o.o.o.o.o.X.o.o.o.X.X.....X.................}  .' H.H.H.H.H.H.H.H.H.H.H.H.",
"H.H.X.} } } } } } } } { { { { ] { ] ] ] ' ] ' ' ' ' ' ' ' ' ' ' ' ' | [ H.H.H.H.H.H.H.H.H.H.H.H.",
"H.H.{ ] ] ] { ] ] ] ] ' ' ] ] ' ' ' ' ` ` ` ` ` ` ' / ` / / w.:.k.m.S.Z.b.l.,.H.H.H.H.H.H.H.H.H.",
"H.' ' ' ' ' ' ' ' ' ' _ ' / / / / _ / / / / / / W W W ^ ) j.Z.S.S.F.F.F.F.G.F.Z.-.H.H.H.H.H.H.H.",
"H._ ` ` / _ / _ W / / W ^ / / ^ ^ ^ ^ W W W W E W E E t.m.Z.S.S.F.F.G.F.F.F.F.G.F.b.H.H.H.H.H.H.",
"H./ ^ ^ ^ W ^ W ^ W W W W E W W E E E E E E R R R R :.m.Z.S.S.F.F.F.F.F.F.G.F.F.F.F.Z.H.H.H.H.H.",
"E W E W W E E E R R R R T Y I R I T I I I I I I I *.b.Z.Z.S.M.N.F.F.F.F.F.F.C.C.F.F.F.b.H.H.H.H.",
"H.P H F F F F m m F F m m M m M M n M m m m n n F h.m.Z.Z.g.p.p.N.S.F.F.F.N.f.f.C.F.F.F.>.H.H.H.",
"H.H.J V V V V H V V V V m V m m m V m m m m m m ;.b.Z.Z.d.5.5.5.6.M.D.F.N.a.s.s.s.V.F.F.Z.3 H.H.",
"H.H.K J J J J J J J J J H J J J J H H H H H V U >.b.Z.Z.6.2.4.4.4.5.g.M.6.6.p.p.a.f.F.F.S.-.H.H.",
"H.H.I I I I L I L L L L L K K L K K K K J K K ! h.m.Z.Z.B.5.1.1.3.4.4.4.4.5.5.6.s.D.F.S.F.j.H.H.",
"H.H.R R Y R I Y R I I I I I I I I I I L I K L $.j.m.m.Z.Z.B.2.D D 3.3.3.4.4.4.6.S.F.F.D.S.m.H.H.",
"H.H.E E E E E R R R R R Y Y T I I I I I I I I @.j.m.Z.Z.Z.Z.B.1.S S S D D D 5.A.D.S.F.S.S.m.8 H.",
"H.H.W W E W E E E E T T E T Y T T Y Y I Y I Y +.h.m.m.Z.Z.Z.m.<.a u t y i a <.Z.S.S.S.S.S.m.O.H.",
"H.H.W E E E E T E T Y Y Y Y Y Y I I I I I L K O.-.j.l.b.b.b.Z r r r t t r r r A m.m.Z.m.b.l.w H.",
"H.H.R R Y T Y Y Y Y Y Y Y Y I I I L L L L K K C =.h.l.b.b.Z r r r r r r r r r r A B.m.m.b.l.H.H.",
"H.H.R Y Y Y Y Y Y I L I K L L K L K K K K K J Q &.,.l.l.Z r r r r r t y r r r r t Z B.b.b.,.H.H.",
"H.H.Y I I I I I L L L K K K K K K K J J J J V B %.,.j.l.p r r r r y u.c.u r r r r t n.b.b.=.H.H.",
"H.H.I I I I L K L K K K K K K V J J J J J J V x +.=.j.l.c.p r r t u.m.m.c.u r t t i.m.b.l.e H.H.",
"H.H.I K K K K K K K K J K K V V H V V V V V V V N %.h.j.l.c.p t u.m.m.m.m.x.u t i.m.b.b.=.H.H.H.",
"H.H.K J K J J J V V J V V V J V V V V V m m V v j C =.h.l.l.c.z.m.b.b.m.m.m.v.x.m.b.l.j.H.H.H.H.",
"H.H.J J J J J V K V V V V V V V V V v v v v v v v < @.=.j.l.l.b.b.m.m.m.m.m.m.b.c.b.l.e H.H.H.H.",
"H.H.J V H V V V V V V V V v v v v v v v v v v c x x 4 ~ =.j.j.k.l.l.b.b.b.b.b.l.l.,.e H.H.H.H.H.",
"H.H.V V V V V m V V v v n v v c v v x c x x x x x x h = 7 &.>.j.l.l.l.l.l.l.l.l.&.1 H.H.H.H.H.H.",
"H.H.V m V m m m n n v v c c c c x c x x x x x z z z z k - : ~ %.=.>.h.h.,.-.&.e H.H.H.H.H.H.H.H.",
"H.H.m v m v c c c c c x c x c x x x x z z k k k k k z x n j , & ; 5 0 6 1 H.H.H.H.H.H.H.H.H.H.H.",
"H.H.f c c x x l l h f f f s s s - - - = = = = = = * > > * & & & % $ # @ H.H.H.H.H.H.H.H.H.H.H.H.",
"H.H.H.+ + O O o o o o o o o X X X X X X . . . . . . . . . . . . . . .   H.H.H.H.H.H.H.H.H.H.H.H.",
"H.H.H.H.H.H.H.H.H.H.H.H.H.H.H.H.H.H.H.H.H.H.H.H.H.H.H.H.H.H.H.H.H.H.H.H.H.H.H.H.H.H.H.H.H.H.H.H."
}
#endif
;
