/* XPM */
extern const char *class_decl[]
#ifdef XPM_SOURCE
={
"22 22 97 2",
".# c None",
"Qt c #000000",
".T c #0028a5",
".S c #0061b0",
".H c #081c92",
".E c #0b3153",
".R c #0e3859",
".4 c #1d2d57",
".U c #202b6e",
".F c #2e74b9",
".b c #41403f",
".p c #444b5a",
"#o c #454c3c",
".w c #47588d",
"#u c #4a5143",
".G c #4a63af",
"#x c #505945",
"#i c #565e4d",
".3 c #586771",
".a c #5a5957",
"#r c #5d6f4b",
".u c #64769e",
"#z c #6a7e56",
".K c #6b652c",
".7 c #6c6133",
".W c #6d6533",
"#w c #6d7f5a",
".v c #6e82af",
".s c #747449",
".o c #74777b",
"#m c #798967",
".6 c #7b7863",
".e c #7b7b7b",
".d c #7c7c7c",
"#h c #7c7f75",
".f c #7e7e7e",
".g c #7f7f7f",
".J c #808080",
".h c #818181",
".j c #828282",
".i c #838383",
".I c #848480",
".k c #848484",
".l c #868686",
".y c #888873",
".m c #888888",
".r c #898973",
".Z c #8c7a3a",
"#v c #8c9b7c",
".q c #8f8f8b",
"#q c #90a57a",
"#k c #91a47c",
"#p c #9daf88",
"#g c #a0a0a0",
"#l c #a0b689",
".c c #a8a8a8",
".2 c #bfbfb8",
".B c #c4bd5b",
".N c #c9ab37",
".V c #cacac3",
".5 c #cacac4",
".C c #d4d4d4",
".O c #d8d8d8",
".0 c #dadada",
"#C c #dbdbdb",
".z c #dcdc71",
".8 c #dcdcdc",
"#D c #dddddd",
".Y c #debe3f",
".X c #decb55",
".Q c #dedede",
".x c #df421e",
".9 c #dfdfdf",
".1 c #e0e0e0",
"#. c #e3e3e3",
"#B c #e4e4e4",
"## c #e5e5e5",
"#E c #e7e7e7",
"#t c #e8e8e8",
"#a c #eaeaea",
"#b c #ebebeb",
"#c c #ededed",
"#d c #eeeeee",
".n c #f0f0f0",
"#e c #f1f1f1",
".M c #f2e669",
"#f c #f2f2f2",
".L c #f4e86a",
".A c #f5f57d",
".t c #f5f5f5",
".D c #f6f6f6",
".P c #f7f7f7",
"#j c #f8f8f8",
"#n c #f9f9f9",
"#s c #fafafa",
"#y c #fcfcfc",
"#A c #ffffff",
"QtQtQtQtQtQtQtQtQtQtQtQtQtQtQtQtQtQtQtQtQt.#",
".a.b.b.b.b.b.b.b.b.b.b.b.b.b.b.b.b.b.b.bQt.#",
"QtQtQtQtQtQtQtQtQtQtQtQtQtQtQtQtQtQtQtQtQt.#",
"Qt.c.d.d.d.e.e.d.f.f.f.f.g.h.i.j.k.l.m.fQt.#",
"Qt.#.#.#.#.#.#.#.#.#.#.#.#.#.#.#.#.#.#.#Qt.#",
"Qt.n.#.#.o.p.q.#.#QtQtQtQt.#.#.r.s.q.#.#Qt.#",
"Qt.t.#.o.u.v.w.q.#Qt.x.xQt.#.y.z.A.B.q.CQt.#",
"Qt.D.#.E.F.G.H.I.JQtQtQtQt.J.K.L.M.N.I.OQt.#",
"Qt.P.Q.R.S.T.U.V.#Qt.x.xQt.#.W.X.Y.Z.V.0Qt.#",
"Qt.P.1.2.3.4.5.#.#QtQtQtQt.#.2.6.7.5.#.8Qt.#",
"Qt.P.Q.9.1.J#.##.#.#.#.##a#b#c#d.J#e#f.0Qt.#",
"Qt.P.#.#.#.J.#.#.1#g#h#i.q.#.#.#.J.#.t.8Qt.#",
"Qt#j.#.#.#.J.J.J.J#h#k#l#m.q.J.J.J.#.P.9Qt.#",
"Qt#n.#.#.#.#.#.####o#p#q#r.I.#.#.#.##s.1Qt.#",
"Qt#n.#.#.#.#.#.##t#u#v#w#x.V.#.#.#.##y#.Qt.#",
"Qt#s.#.#.#.#.#.##a.2.3#z.5.#.#.#.#.##A#BQt.#",
"Qt#t.#.#.#.#.#.#.0#C#D.Q.9.1#E#t#B#a#a.OQt.#",
"QtQtQtQtQtQtQtQtQtQtQtQtQtQtQtQtQtQtQtQtQt.#",
".#.#.#.#.#.#.#.#.#Qt.#QtQt.#.#.#.#.#.#.#.#.#",
".#.#.#.#.#.#.#QtQt.#Qt.#.#QtQt.#.#.#.#.#.#.#",
".#.#.#.#.#.#Qt.#.#.#Qt.#.#.#.#Qt.#.#.#.#.#.#",
".#.#.#.#.#.#.#.#.#.#Qt.#.#.#.#.#.#.#.#.#.#.#"}
#endif
;
