/* XPM */
extern const char *clear_results[] 
#ifdef XPM_SOURCE
= {
/* columns rows colors chars-per-pixel */
"48 48 198 2",
"   c #1B1B1C",
".  c #1D1F22",
"X  c #1C2027",
"o  c #1E2329",
"O  c #232323",
"+  c #22252B",
"@  c #24282F",
"#  c #2C2C2D",
"$  c #272B32",
"%  c #292D34",
"&  c #292F38",
"*  c #2D3136",
"=  c #2C323B",
"-  c #31363D",
";  c #35393E",
":  c #313740",
">  c #353A43",
",  c #393E45",
"<  c #3A3F48",
"1  c #3D424A",
"2  c gray25",
"3  c #41464E",
"4  c #474849",
"5  c gray31",
"6  c #454A52",
"7  c #494E55",
"8  c #4B5057",
"9  c #4D5159",
"0  c gray34",
"q  c #51565D",
"w  c #53585F",
"e  c #5B5C5E",
"r  c #555A61",
"t  c #5A5E65",
"y  c #5C6167",
"u  c #5D6269",
"i  c #626364",
"p  c #62656A",
"a  c #65696F",
"s  c #676B72",
"d  c #6A6E72",
"f  c #6D7177",
"g  c #6F7379",
"h  c #737475",
"j  c #72757C",
"k  c #75797E",
"l  c #7C7E7F",
"z  c #BB0202",
"x  c #BF0A0A",
"c  c #BE2424",
"v  c #C10303",
"b  c #C10B0B",
"n  c #C21D1D",
"m  c #C22525",
"M  c #C43C3C",
"N  c #C14444",
"B  c #C94343",
"V  c #C64F4F",
"C  c #CC4D4D",
"Z  c #CE5656",
"A  c #CA6565",
"S  c #CB6E6E",
"D  c #CD7777",
"F  c #D67474",
"G  c #D77979",
"H  c #D87C7C",
"J  c #767B80",
"K  c #7A7D82",
"L  c #7F8082",
"P  c #7F8388",
"I  c #749FD2",
"U  c #7DA2CF",
"Y  c #77A1D2",
"T  c #7CA4D3",
"R  c #828383",
"E  c #83868B",
"W  c #868A8F",
"Q  c #8C8C8D",
"!  c #868A90",
"~  c #8A8D92",
"^  c #8D9095",
"/  c #939394",
"(  c #929599",
")  c #979A9E",
"_  c #9A9A9B",
"`  c #9B9DA2",
"'  c #9EA1A5",
"]  c #A3A4A5",
"[  c #A2A6AA",
"{  c #ABACAC",
"}  c #A5AFBC",
"|  c #B4B4B5",
" . c #BABBBC",
".. c #D98282",
"X. c #DB8B8B",
"o. c #D19393",
"O. c #DD9393",
"+. c #D29C9C",
"@. c #DE9898",
"#. c #E19D9D",
"$. c #D5A4A4",
"%. c #DAA2A2",
"&. c #D7ADAD",
"*. c #DFADAD",
"=. c #D0B3B3",
"-. c #D2BABA",
";. c #E2A3A3",
":. c #E3ABAB",
">. c #E3B4B4",
",. c #E5B9B9",
"<. c #83A5CF",
"1. c #86A8CF",
"2. c #8CAACE",
"3. c #93AECE",
"4. c #97B1CF",
"5. c #82A6D2",
"6. c #84A9D3",
"7. c #8BACD3",
"8. c #8EAFD8",
"9. c #91AFD3",
"0. c #8FB0D7",
"q. c #92B2D7",
"w. c #9CB5D5",
"e. c #94B3D9",
"r. c #99B6DA",
"t. c #9CB9DB",
"y. c #B7BDC4",
"u. c #B9BEC5",
"i. c #A3B9D6",
"p. c #ADBDD1",
"a. c #A3BDDD",
"s. c #A8BFD9",
"d. c #B0BFD3",
"f. c #BDC3CB",
"g. c #A7C0DE",
"h. c #ACC3DF",
"j. c #B5C3D3",
"k. c #B9C4D3",
"l. c #BEC9D6",
"z. c #B4C6DD",
"x. c #B7C9DD",
"c. c #BCCADC",
"v. c #A7C1E0",
"b. c #ADC5E1",
"n. c #B1C6E1",
"m. c #B5CAE3",
"M. c #BACDE3",
"N. c #B9CEE8",
"B. c #BFD0E3",
"V. c #BED1E9",
"C. c #C4C4C4",
"Z. c #C6C7CA",
"A. c #C7C8CA",
"S. c #CBCCCC",
"D. c #DAC4C4",
"F. c #D3CDCD",
"G. c #D9C8C8",
"H. c #C4CBD3",
"J. c #CBCFD3",
"K. c #C2CDDB",
"L. c #CCD0D4",
"P. c #C6D0DE",
"I. c #CCD4DD",
"U. c #D4D4D5",
"Y. c #D5D7D9",
"T. c #D7D8DA",
"R. c #DBDBDC",
"E. c #E7C2C2",
"W. c #E8C4C4",
"Q. c #E5CACA",
"!. c #EBCECE",
"~. c #EBD3D3",
"^. c #EDD9D9",
"/. c #C3D3E5",
"(. c #CDD7E2",
"). c #CFD8E4",
"_. c #C4D5EA",
"`. c #C9D7E8",
"'. c #C7D8EC",
"]. c #CBDAEB",
"[. c #D1D7E1",
"{. c #D3DBE4",
"}. c #DDDEE1",
"|. c #D3DDEB",
" X c #DEE0E3",
".X c #DCE2EA",
"XX c #E3E4E4",
"oX c #E5E6E9",
"OX c #E7E8E9",
"+X c #EBECEC",
"@X c #F1EEEE",
"#X c #E5EBF2",
"$X c #EDEEF1",
"%X c #EEF0F2",
"&X c #F2F3F3",
"*X c #F3F6F8",
"=X c #FAFBFB",
"-X c None",
/* pixels */
"-X-X-X-X-X-X-X-X-X-X-X-X-X-X-X-X-X-X-X-X-X-X-X-X-X-X-X-X-X-X-X-X-X-X-X-X-X-X-X-X-X-X-X-X-X-X-X-X",
"-X-X-X-X-X-X-X-X-X-X-X-X-X-X-X-X-X-X-X-X-X-X-X-X-X-X-X-X-X-X-X-X-X-X-X-X-X-X-X-X-X-X-X-X-X-X-X-X",
"-Xr W W ! W ! ~ ! ^ ^ ^ ( ` ` ` ` ` ' ' ' [ [ [ [ [ [ [ [ [ [ [ [ ' ] ` ` ` ) ) ) ^ W W ! W K -X",
"1 y 3 3 3 3 6 6 8 9 w r t u u a s d f j g j J J K K K K K K K J J K J J J k k j q - 1 1 - 3 a 6 ",
"& & & & = = = = = : > > > , < < 1 1 1 3 6 6 6 7 7 7 9 9 9 9 r r r r r t t t r > X i # . e 4 & & ",
"& & & & = = = = : = : > > , , < 1 1 3 1 3 6 6 7 7 7 9 9 9 r 9 q r r r t t 8 & & # O . X 1   & & ",
"& & & & & = = = : : : > > , , < 1 1 1 3 3 3 6 6 7 7 9 9 9 9 r q r r r r 1 & & & % @ & & # & & & ",
"& & & & & = = = : : : : > , , , 1 1 1 3 3 6 6 6 6 7 9 9 9 q 9 q r r 9 : & & & & * & * & & & & & ",
"& & @ X . + . + + + + + @ @ $ @ # $ * * * * * = = - - - ; ; ; 2 ; % O . . o . . X X X X o o = : ",
"& = / f.C.C.A.A.A.S.S.F.L.F.U.U.U.U.U.U.U.Y.Y.Y.Y.Y.Y.Y.U.U.{ L L L K R L K L L l l K K K h y 6 ",
"* q XXXXoXoXOXOXOX+X+X+X$X+X$X%X%X@X@X%X@X&X%X&X&X&X&X@XXXZ. . . . . . . . . .u. . . . .C.XX( 6 ",
"& w XXXXXXOXOXOX+X+X+X$X$X$X$X*X@X%X&X@X&X&X%X*X&X@XoXU.Z.Z.Z.Z.A.A.A.A.A.A.A.A.A.S.S.}.+X+X( 6 ",
"& w XXXXXXK.7.8.8.7.e.e.e.e.t.e.e.e.t.t.t.t.t.t.w.q.2.2.2.2.3.3.3.3.3.3.4.4.4.4.4.4.g.OX+X+X( 6 ",
"& r }.XXXXx.I I Y Y Y Y Y Y T T T 6.T T 6.6.T 6.5.U <.<.<.<.<.<.1.1.1.1.1.1.1.2.9.r.t..X+X+X^ 6 ",
"& r R. X Xx.I Y Y Y T Y Y T T T T 6.6.T 5.5.5.U U <.<.<.<.<.1.1.1.1.1.1.1.2.7.0.r.t.t. X+XoX^ 6 ",
"& q R.}.}.x.I Y Y Y T T T T 6.T T T T 6.6.T <.U 5.<.<.1.<.1.1.1.1.7.2.7.7.3.q.r.t.t.t..XOX+X^ 7 ",
"* q R.R.}.R.).Y.{.[.{.[.Y.I.I.I..XI.(.I.H.H.H.H.H.H.H.L.H.J.K.L.L.L.L.L.K.I. X.X.X.X XoXoXoX~ 4 ",
"& q T.R.R.}.R.}.}.R.R.R.R.R.R.R. X XT.L.U.U.L.Y.Y.Y.Y.R.R.R.R.R.R.R.T.R.}.XXOXOXOXOXOXoXoXoX^ 3 ",
"& 9 R.R.R.Y.Y.Y.Y.Y.Y.R.R.R.}.}.}.Y.Y.U.Y.Y.Y.R.R.R.R.R.R.}.}.}.}.}.R.}.oXoX+X.XOXoXoXoXoXXX! 6 ",
"= 9 L.S.L.H.j.j.k.l.l.c.K.c.l.K.l.l.l.l.H.P.P.P.I.I.I.(.[.).).[.).).)..X X)..X X X). XXXXXoX! 6 ",
"& 8 S.S.S.p.Y U U U T U T 1.6.6.6.6.7.7.q.q.r.t.a.a.g.h.h.h.h.n.h.x.m.m.n.z.m.h.g.g.h. XXXXXW 3 ",
"& 8 J.L.L.j.U T U U 5.5.<.6.6.6.6.0.q.q.r.r.a.a.g.b.h.h.n.m.m.m.m.M.M.m.M.m.M.x.b.x.h..XXXXXW 6 ",
"* 8 L.L.L.j.U 5.5.5.5.6.1.1.1.2.7.0.q.r.t.a.g.v.b.n.m.m.M.M.B.l.f.C.U.U.f.f.f.B.m.x.x..XXXXXP 4 ",
"& 8 U.U.Y.H.w.w.w.i.i.i.i.i.g.g.h.h.x.x.B.B././.`.`.].].).u.Y.+X@X%X&X&X&X&X@XT.f.`./..XoXXXP 3 ",
"& 9 U.Y.Y.Y.R.R.R.R.}.R.}. XXXXXXXOXOXOX+X+X%X%X@X%X@XoXC.XXOX@X&X&X&X&X&X&X&X&X@XC.R.OXOXXXE 6 ",
"& 7 Y.R.Y.R.R.R.}.}.}.XXXXXXXXOXOXOX+X+X%X+X%X&X&X%XR.U.XX+X@X@X&X&X&X&X&X=X=X&X&X&XU.C.OXOX! 1 ",
"& 9 Y.Y.R.R.R.}.}. XXX XXXXXXXOX+X+X%X%X@X@X*X&X&XoXZ.}.OX+X@X%X&X&X&X&X&X=X&X=X&X&X*XS.A.OX! 6 ",
"& 9 R.R.}.K.w.r.t.t.a.t.g.g.g.h.x.x.B.V.V.`.].]..X| Y.oXOX+X^.E.@X&X&X&X&X&X^.^.&X=X&X&X| R.^ 6 ",
"& 9 R.R.}.c.7.8.0.0.0.e.e.e.r.t.g.v.b.N.V.V.V.'.f.S.XXOXOX~.@.@.>.@X@X@X&X!.:.:.^.&X&X&XXX] / 6 ",
"& 9 }.R.}.K.7.8.0.e.e.e.e.r.t.a.v.b.b.N.V.V.'.].{ F.XXXXQ.X.X.X.O.:.@X@XW.#.#.;.;.!.&X&X@X| l 6 ",
"& 9 R.XXXXM.q.8.0.0.e.e.r.r.t.v.b.b.N.N.V.'.].H.| T.}.XX>.....X.X.X.;.,.O.O.#.O.#.>.&X@X@XA.i 7 ",
"& 9 R. X X X}.{..X.X.X.X.X#X#X#X#X#X%X%X&X*X*X .C.T.}.XXXX*.G G H ......X.X.X.O.:.@X&X@X@X}.p 6 ",
"& 9 }.XX XoXXXoXoXOX+X+X+X%X%X&X*X*X*X=X=X=X=X| C.T.^. XXX+X:.F F H H H H ....:.+X@X&X@X@XXXl 2 ",
"& 9 }.}.XX XXXoXOXOX+X+X+X+X&X%X%X*X=X=X=X=X=X^ C.Y.}.XXXXXXXX%.C B M B V Z X.OX@X@X@X@X+XXXQ - ",
"& 9 }. X X XI.).{.{.{.{.|..X.X.X#X#X#X#X+X%X*XQ { C.S.Y.T.U.U.N z z z z z z c D.}.}.}.}.R.U.E ; ",
"& 7  X^. XP.r.w.r.t.t.a.t.a.g.g.b.b.m.N.V.'.'.^ ] C.A.U.U.F.M z z z z z z z z m G.R.}.R.U.F.f ; ",
"& 9  X X XP.r.r.t.t.a.t.g.g.g.g.g.b.m.V.V.'.].' _ C.C.F.F.M z z z z z z z z z z n D.XXR.U.S.e > ",
"& 9 R.}. XP.r.r.t.t.t.a.t.g.g.g.h.h.m.m.V.V.'.} /  .C.S.V v z z z z A o.x z z z z m R.T.U.| 5 1 ",
"& 9 }. XR.I.z.z.l.x.c.M.M.c.M.B.B././.`.].].|.l.Q ] C.S.=.n v v z S T.R.+.b z v x $.R.U.S.{ e 1 ",
"& 9 R.R.}.}.}. X XXXXXXXoXoXoXOX+X+X+X+X+X%X@X&X{ _  .S.S.-.n v D Y.T.R.T.$.b b $.R.U.U. ./ s 3 ",
"& 6 Y.R.R.}.}.}.}.XX X XoXoXoXoXOXOXOX+X+X+X+X%XU.Q ] C.C.F.-.o.T.T.U.R.T.R.&.&.R.U.U.S.] ] h 1 ",
"& = r J J J J K K l K L L P E ! W ~ ^ ^ ( ( ( ) _ R Q { C.A.S.U.T.U.R.R.T.R.R.T.U.F.S._ i k y 1 ",
"-X& & & & & = = = > 1 1 1 7 9 9 w r y u u s s s f a d Q { C.A.F.F.U.U.Y.U.U.U.U.U.S./ 4 6 y q & ",
"-X-X& & & & & = = & & & & & & = = = = = = = = : - - * - h ] C.C.S.S.F.F.F.F.S.A. .d O * 1 1 -X-X",
"-X-X-X-X-X-X-X-X-X-X-X-X-X-X-X-X-X-X-X-X-X-X-X-X-X-X-X-X-Xt / ] | C.C.C.Z.C.| _ 2 -X-X-X-X-X-X-X",
"-X-X-X-X-X-X-X-X-X-X-X-X-X-X-X-X-X-X-X-X-X-X-X-X-X-X-X-X-X-X-X# 0 h R Q h 5 -X-X-X-X-X-X-X-X-X-X",
"-X-X-X-X-X-X-X-X-X-X-X-X-X-X-X-X-X-X-X-X-X-X-X-X-X-X-X-X-X-X-X-X-X-X-X-X-X-X-X-X-X-X-X-X-X-X-X-X",
"-X-X-X-X-X-X-X-X-X-X-X-X-X-X-X-X-X-X-X-X-X-X-X-X-X-X-X-X-X-X-X-X-X-X-X-X-X-X-X-X-X-X-X-X-X-X-X-X"
}
#endif
;
