/* XPM */
extern const char *idefault[] 
#ifdef XPM_SOURCE
= {
/* columns rows colors chars-per-pixel */
"48 48 114 2",
"   c #392A5A",
".  c #3B2B5C",
"X  c #433168",
"o  c #433268",
"O  c #482A87",
"+  c #4A2D89",
"@  c #4B2E89",
"#  c #4D308B",
"$  c #4E318B",
"%  c #4F328C",
"&  c #50338D",
"*  c #51348D",
"=  c #52358E",
"-  c #52368F",
";  c #53378F",
":  c #543890",
">  c #553990",
",  c #563A91",
"<  c #563B91",
"1  c #573B92",
"2  c #583C93",
"3  c #583D93",
"4  c #593D93",
"5  c #5A3E94",
"6  c #5A3F94",
"7  c #5A428D",
"8  c #5B4193",
"9  c #5B4095",
"0  c #5C4294",
"q  c #5D4395",
"w  c #5C4196",
"e  c #5D4296",
"r  c #5E4397",
"t  c #5F4695",
"y  c #5F4795",
"u  c #5E4497",
"i  c #5F4597",
"p  c #5F4796",
"a  c #5F4797",
"s  c #5F4897",
"d  c #5F4598",
"f  c #604695",
"g  c #614695",
"h  c #604795",
"j  c #604696",
"k  c #604796",
"l  c #614796",
"z  c #604697",
"x  c #604797",
"c  c #614797",
"v  c #604896",
"b  c #614896",
"n  c #604897",
"m  c #614897",
"M  c #604598",
"N  c #614699",
"B  c #624799",
"V  c #624898",
"C  c #634999",
"Z  c #63489A",
"A  c #63499B",
"S  c #64499B",
"D  c #644B9A",
"F  c #644A9B",
"G  c #644B9B",
"H  c #634A9C",
"J  c #654B9C",
"K  c #664C9C",
"L  c #674D9C",
"P  c #674D9D",
"I  c #674E9D",
"U  c #684F9E",
"Y  c #694F9F",
"T  c #6A509F",
"R  c #6B51A0",
"E  c #6B52A0",
"W  c #6C53A1",
"Q  c #6D54A2",
"!  c #6E55A2",
"~  c #6F56A3",
"^  c #6F57A3",
"/  c #7058A4",
"(  c #7159A4",
")  c #7259A5",
"_  c #735AA6",
"`  c #735BA6",
"'  c #745CA7",
"]  c #755DA7",
"[  c #765EA8",
"{  c #775FA8",
"}  c #7860A9",
"|  c #7861A9",
" . c #7962AA",
".. c #7A62AB",
"X. c #7B63AB",
"o. c #7C64AC",
"O. c #7C65AC",
"+. c #7D66AD",
"@. c #7E67AE",
"#. c #7F68AE",
"$. c #8069AF",
"%. c #806AAF",
"&. c #816BB0",
"*. c #826CB0",
"=. c #836CB1",
"-. c #846DB2",
";. c #846EB2",
":. c #856FB3",
">. c #8670B3",
",. c #8771B4",
"<. c #8872B4",
"1. c #8A75B6",
"2. c #8B76B7",
"3. c None",
/* pixels */
"3.3.3.3.3.3.3.3.3.3.3.3.3.3.3.3.3.3.3.3.3.3.3.3.3.3.3.3.3.3.3.3.3.3.3.3.3.3.3.3.3.3.3.3.3.3.3.3.",
"3.3.3.3.3.3.3.3.3.3.3.3.3.3.3.3.3.3.3.3.3.3.3.} ' ( 3.3.3.3.3.3.3.3.3.3.3.3.3.3.3.3.3.3.3.3.3.3.",
"3.3.3.3.3.3.3.3.3.3.3.3.3.3.3.3.3.3.3.3.3.3.| ] ) ~ 3.3.3.3.3.3.3.3.3.3.3.3.3.3.3.3.3.3.3.3.3.3.",
"3.3.3.3.3.3.3.3.3.3.3.3.3.3.3.3.3.3.3.3.O. .[ _ ^ W 3.3.3.3.3.3.3.3.3.3.3.3.3.3.3.3.3.3.3.3.3.3.",
"3.3.3.3.3.3.3.3.3.3.3.3.3.3.3.3.3.3.3.+...{ ` / Q L 3.3.3.3.3.3.3.3.3.3.3.3.3.3.3.3.3.3.3.3.3.3.",
"3.3.3.3.3.3.3.3.3.3.3.3.3.3.3.3.3.&.@.X.} ' ( ! R D k k k x 3.3.3.3.3.3.3.3.3.3.3.3.3.3.3.3.3.3.",
"3.3.3.3.3.3.3.3.3.3.3.3.3.3.3.:.*.#.o.| ] ) ~ E U C k k k k k p x 3.3.3.3.3.3.3.3.3.3.3.3.3.3.3.",
"3.3.3.3.3.3.3.3.3.3.3.3.3.3.>.=.$.O. .[ _ ^ W Y K V k k k k k k k p k 3.3.3.3.3.3.3.3.3.3.3.3.3.",
"3.3.3.3.3.3.3.3.3.3.3.3.1.,.-.%.+...{ ` / Q T P A z k k k k k k k k k a 3.3.3.3.3.3.3.3.3.3.3.3.",
"3.3.3.3.3.3.3.3.3.3.3.2.<.;.&.@.X.} ' ( ! R I F N i k k k k k k k k k k k k 3.3.3.3.3.3.3.3.3.3.",
"3.3.3.3.3.3.3.3.3.3.3.3.:.*.#.o.| ] ) ~ E U J B u q k k k k k k k k k k k k k 3.3.3.3.3.3.3.3.3.",
"3.3.3.3.3.3.3.3.3.3.3.3.3.$.O. .[ _ ^ W Y K Z d w 0 k k k k k k k k k k k k k k 3.3.3.3.3.3.3.3.",
"3.3.3.3.3.3.3.3.3.3.3.3.3.3.3.{ ` / Q T P A M e 5 8 k k k k k k k k k k k k k k 3.3.3.3.3.3.3.3.",
"3.3.3.3.3.3.3.3.3.3.3.3.3.3.3.3.( ! R I F N r 6 1 3 x k k k k k k k k k k k k k k 3.3.3.3.3.3.3.",
"3.3.3.3.3.3.3.3.3.3.3.3.3.3.3.3.3.3.U J B u 9 2 > = 3.3.v v k k k k k k k k k k k s 3.3.3.3.3.3.",
"3.3.3.3.3.3.3.3.3.3.3.3.3.3.3.3.3.3.3.Z d w 4 , - % 3.3.3.3.b k k k k k k k k k k k 3.3.3.3.3.3.",
"3.3.3.3.3.3.3.3.3.3.3.3.3.3.3.3.3.3.3.3.3.5 < ; & # 3.3.3.3.3.3.v k k k k k k k k k l 3.3.3.3.3.",
"3.3.3.3.3.3.3.3.3.3.3.3.3.3.3.3.3.3.3.3.3.3.: * $ + 3.3.3.3.3.3.3.k k k k k k k k k k 3.3.3.3.3.",
"3.3.3.3.3.3.3.3.3.3.3.3.3.3.3.3.3.3.3.3.3.3.3.3.@ O 3.3.3.3.3.3.3.3.k k k k k k k k k k 3.3.3.3.",
"3.3.3.3.3.3.3.3.3.3.3.3.3.3.3.3.3.3.3.3.3.3.3.3.3.3.3.3.3.3.3.3.3.3.k k k k k k k k k k 3.3.3.3.",
"3.3.3.3.3.3.3.3.3.3.3.3.3.3.3.3.3.3.3.3.3.3.3.3.3.3.3.3.3.3.3.3.3.3.3.k k k k k k k k k 3.3.3.3.",
"3.3.3.3.3.3.3.3.3.3.3.3.3.3.3.3.3.3.3.3.3.3.3.3.3.3.3.3.3.3.3.3.3.3.3.k k k k k k k k k z 3.3.3.",
"3.3.3.3.3.3.3.3.3.3.3.3.3.3.3.3.3.3.3.3.3.3.3.3.3.3.3.3.3.3.3.3.3.3.3.m k k k k k k k k k 3.3.3.",
"3.3.3.3.3.3.3.3.3.3.3.3.3.3.3.3.3.3.3.3.3.3.H F F H 3.3.3.3.3.3.3.3.3.3.k k k k k k k k k 3.3.3.",
"3.3.3.3.3.3.3.3.3.3.3.3.3.3.3.3.3.3.3.3.3.G F F F F G 3.3.3.3.3.3.3.3.3.k k k k k k k k k 3.3.3.",
"3.3.3.3.3.3.3.3.3.3.3.3.3.3.3.3.3.3.3.3.3.S F F F F S 3.3.3.3.3.3.3.3.3.k k k k k k k k k 3.3.3.",
"3.3.3.3.3.3.3.3.3.3.3.3.3.3.3.3.3.3.3.3.3.G F F F F G 3.3.3.3.3.3.3.3.3.k k k k k k k k v 3.3.3.",
"3.3.3.3.3.3.3.3.3.3.3.3.3.3.3.3.3.3.3.3.3.3.H F F H 3.3.3.3.3.3.3.3.3.3.k k k k k k k k k 3.3.3.",
"3.3.3.3.3.3.3.3.3.3.3.3.3.3.3.3.3.3.3.3.3.3.3.3.3.3.3.3.3.3.3.3.3.3.3.b k k k k k k k k k 3.3.3.",
"3.3.3.3.3.3.3.3.3.3.3.3.3.3.3.3.3.3.3.3.3.3.3.3.3.3.3.3.3.3.3.3.3.3.3.x k k k k k k k k v 3.3.3.",
"3.3.3.3.3.3.3.3.3.3.3.3.3.3.3.3.3.3.3.3.3.3.3.3.3.3.3.3.3.3.3.3.3.3.3.p k k k k k k k k 3.3.3.3.",
"3.3.3.3.3.3.3.3.3.3.3.3.3.3.3.3.3.3.3.3.3.3.3.3.3.3.3.3.3.3.3.3.3.3.n k k k k k k k k v 3.3.3.3.",
"3.3.3.3.3.3.3.3.3.3.3.3.3.3.3.3.3.3.3.3.3.3.3.3.3.3.3.3.3.3.3.3.3.n k k k k k k k k k v 3.3.3.3.",
"3.3.3.3.3.3.3.3.3.3.3.3.3.3.3.3.3.3.3.3.3.3.3.3.3.3.3.3.3.3.3.3.3.p k k k k k k k k k 3.3.3.3.3.",
"3.3.3.3.3.3.3.3.3.3.3.3.3.3.3.k 3.3.3.3.3.3.3.3.3.3.3.3.3.3.3.3.k k k k k k k k k k p 3.3.3.3.3.",
"3.3.3.3.3.3.3.3.3.3.3.3.3.h g k p y 3.3.3.3.3.3.3.3.3.3.3.3.k k k k k k k k k k k k 3.3.3.3.3.3.",
"3.3.3.3.3.3.3.3.3.3.3.h k x k k k k v 3.3.3.3.3.3.3.3.3.3.k k k k k k k k k k k k k 3.3.3.3.3.3.",
"3.3.3.3.3.3.3.p k k y j a v k l v k k k k k k z z k k k k k k k k k k k k k k k v 3.3.3.3.3.3.3.",
"3.3.3.3.3.3.3.3.k j k f k k l j p k k k k k k k k k k k k k k k k k k k k k k k 3.3.3.3.3.3.3.3.",
"3.3.3.3.3.3.3.3.3.k k k k a k p k k k k k k k k k k k k k k k k k k k k k k k k 3.3.3.3.3.3.3.3.",
"3.3.3.3.3.3.3.3.3.c k k k p k k k k k k k k k k k k k k k k k k k k k k k k x 3.3.3.3.3.3.3.3.3.",
"3.3.3.3.3.3.3.3.3.3.3.p k k k k k k k k k k k k k k k k k k k k k k k k p 3.3.3.3.3.3.3.3.3.3.3.",
"3.3.3.3.3.3.3.3.3.3.3.3.k k k k k k k k k k k k k k k k k k k k k k k k 3.3.3.3.3.3.3.3.3.3.3.3.",
"3.3.3.3.3.3.3.3.3.3.3.3.3.x k k k k k k k k k k k k k k k k k k k k x 3.3.3.3.3.3.3.3.3.3.3.3.3.",
"3.3.3.3.3.3.3.3.3.3.3.3.3.3.3.c k k k k k k k k k k k k k k k k c 3.3.3.3.3.3.3.3.3.3.3.3.3.3.3.",
"3.3.3.3.3.3.3.3.3.3.3.3.3.3.3.3.3.3.7 t h h h h h h h h t 7 3.3.3.3.3.3.3.3.3.3.3.3.3.3.3.3.3.3.",
"3.3.3.3.3.3.3.3.3.3.3.3.3.3.3.3.3.3.3.3.3.3.. o X   3.3.3.3.3.3.3.3.3.3.3.3.3.3.3.3.3.3.3.3.3.3.",
"3.3.3.3.3.3.3.3.3.3.3.3.3.3.3.3.3.3.3.3.3.3.3.3.3.3.3.3.3.3.3.3.3.3.3.3.3.3.3.3.3.3.3.3.3.3.3.3."
}
#endif
;
