/* XPM */
extern const char *doquery[] 
#ifdef XPM_SOURCE
= {
/* columns rows colors chars-per-pixel */
"48 48 149 2",
"   c #0D2B59",
".  c #112F5C",
"X  c #13315F",
"o  c #18345F",
"O  c #143362",
"+  c #1A3661",
"@  c #1D3862",
"#  c #1B3B6B",
"$  c #223D66",
"%  c #25416D",
"&  c #29426A",
"*  c #314A6F",
"=  c #234374",
"-  c #264778",
";  c #27487A",
":  c #2A4B7C",
">  c #334B70",
",  c #395175",
"<  c #4A4A4A",
"1  c #525252",
"2  c #5C5C5C",
"3  c #41587C",
"4  c #636363",
"5  c #6C6C6C",
"6  c #747474",
"7  c #7B7B7B",
"8  c #2E4F81",
"9  c #315385",
"0  c #3D5A86",
"q  c #335588",
"w  c #375A8D",
"e  c #385B8E",
"r  c #3A5D91",
"t  c #4C6284",
"y  c #566B8A",
"u  c #5A6D8B",
"i  c #5C708F",
"p  c #43679B",
"a  c #44689D",
"s  c #576D90",
"d  c #506E9A",
"f  c #5B7293",
"g  c #60728F",
"h  c #627693",
"j  c #677996",
"k  c #6A7C97",
"l  c #60779A",
"z  c #667B9B",
"x  c #6B7E9A",
"c  c #717E92",
"v  c #4A6EA4",
"b  c #4D72A7",
"n  c #4E73A9",
"m  c #5F7FAF",
"M  c #567BB1",
"N  c #597FB5",
"B  c #697FA0",
"V  c #6E809C",
"C  c #778190",
"Z  c #7D8693",
"A  c #72839D",
"S  c #7B889D",
"D  c #5E83B9",
"F  c #6D83A3",
"G  c #7486A2",
"H  c #7B8BA4",
"J  c #7087A9",
"K  c #768DAD",
"L  c #7D8EA9",
"P  c #7F91AB",
"I  c #6885B0",
"U  c #6C8AB4",
"Y  c #6186BC",
"T  c #7E96B9",
"R  c #668BC1",
"E  c #688DC2",
"W  c #6D92C7",
"Q  c #6F94C9",
"!  c #7196CB",
"~  c #759ACE",
"^  c #7A9ED2",
"/  c #7CA0D4",
"(  c #848484",
")  c #8E8E8E",
"_  c #838A96",
"`  c #939393",
"'  c #9B9B9B",
"]  c #8190A7",
"[  c #8C94A3",
"{  c #8393AC",
"}  c #8C99AC",
"|  c #929DAD",
" . c #8799B2",
".. c #8C9BB1",
"X. c #919EB2",
"o. c #99A1AE",
"O. c #94A1B5",
"+. c #9AA4B4",
"@. c #9FA8B6",
"#. c #95A4BB",
"$. c #99A6BA",
"%. c #9DA9BC",
"&. c #A3A3A3",
"*. c gray67",
"=. c #A4ABB5",
"-. c #ADAEB0",
";. c #A3ADBE",
":. c #ABB2BC",
">. c #B4B4B5",
",. c #B1B7BF",
"<. c #BCBCBC",
"1. c #829DC6",
"2. c #8FA3C0",
"3. c #81A4D8",
"4. c #86A9DC",
"5. c #95AFD5",
"6. c #95B0D7",
"7. c #A3AFC0",
"8. c #A6B1C1",
"9. c #AAB4C4",
"0. c #AFB9C8",
"q. c #B0B8C3",
"w. c #BDBFC2",
"e. c #B3BCCB",
"r. c #91B4E6",
"t. c #97B9EB",
"y. c #B9C1CE",
"u. c #BBC3D1",
"i. c #BBC8DA",
"p. c #A7C1E7",
"a. c #B5C9E6",
"s. c #B9C9E0",
"d. c #C4C4C4",
"f. c #C5C7CA",
"g. c #CBCCCC",
"h. c #CBCDD0",
"j. c #CFD1D4",
"k. c #D3D3D3",
"l. c #D5D7D9",
"z. c #DBDBDB",
"x. c #DCDEE0",
"c. c #D3DDEA",
"v. c #DFE1E3",
"b. c #DDE6F2",
"n. c #E4E4E4",
"m. c #ECECEC",
"M. c #F4F4F4",
"N. c #FAFAFA",
"B. c None",
/* pixels */
"B.B.B.B.B.B.B.B.B.B.B.B.B.B.B.B.B.B.B.B.B.B.B.B.B.B.B.B.B.B.B.B.B.B.B.B.B.B.B.B.B.B.B.B.B.B.B.B.",
"B.B.B.B.B.B.B.B.B.B.B.B.B.B.B.B.B.B.B.B.&.*.>.>.>.>.-.) B.B.B.B.B.B.B.B.B.B.B.B.B.B.B.B.B.B.B.B.",
"B.B.B.B.B.B.B.B.B.B.B.B.B.B.B.B.B.B.B.B.l.m.M.m.M.m.m.l.B.B.B.B.B.B.B.B.B.B.B.B.B.B.B.B.B.B.B.B.",
"B.B.B.B.B.B.B.B.B.B.B.B.B.B.B.B.B.B.B.B.g.M.M.M.M.N.N.d.B.B.B.B.B.B.B.B.B.B.B.B.B.B.B.B.B.B.B.B.",
"B.B.B.B.B.B.B.B.B.B.B.B.B.B.B.B.B.B.B.B.k.N.N.N.N.N.N.k.B.B.B.B.B.B.B.B.B.B.B.B.B.B.B.B.B.B.B.B.",
"B.B.B.B.B.B.B.B.B.B.B.B.B.B.B.B.B.B.B.B.z.M.N.N.N.M.N.l.B.B.B.B.B.B.B.B.B.B.B.B.B.B.B.B.B.B.B.B.",
"B.B.B.B.B.B.B.B.B.4 z.l.4 B.B.B.B.B.2 ' M.M.N.M.M.M.M.m.&.5 B.B.B.B.B.<.m.m.) B.B.B.B.B.B.B.B.B.",
"B.B.B.B.B.B.B.B.6 z.M.M.l.5 B.B.7 >.m.M.M.M.M.M.M.M.M.M.M.m.>.( B.B.<.n.m.M.m.' B.B.B.B.B.B.B.B.",
"B.B.B.B.B.B.B.6 x.M.M.M.M.n.' d.M.M.M.M.M.M.M.M.M.M.M.m.M.M.m.m.g.d.n.M.m.m.m.m.` B.B.B.B.B.B.B.",
"B.B.B.B.B.B.5 l.m.M.M.M.M.M.M.M.M.N.M.M.M.M.M.M.M.m.M.m.m.M.m.M.m.m.m.m.m.m.n.m.n.( B.B.B.B.B.B.",
"B.B.B.B.B.B.d.m.m.m.M.M.M.N.N.M.N.M.M.N.M.M.M.M.M.M.m.M.M.m.m.m.m.m.m.m.m.n.n.n.n.<.B.B.B.B.B.B.",
"B.B.B.B.B.B.>.n.n.m.m.M.M.N.M.N.M.N.M.M.N.m.x.l.l.z.m.m.m.m.m.m.m.m.m.m.m.n.n.v.n.>.B.B.B.B.B.B.",
"B.B.B.B.B.B.6 g.n.n.n.M.M.N.N.N.N.N.m.g.=.O.+.$.#.+.| +.f.n.m.n.m.n.m.n.n.n.z.z.f.6 B.B.B.B.B.B.",
"B.B.B.B.B.B.B.( k.n.n.n.M.N.N.N.M.k.+.%.e.u.u.u.u.e.q.7.| } g.n.n.m.n.n.z.z.z.g.7 B.B.B.B.B.B.B.",
"B.B.B.B.B.B.B.B.) v.n.n.n.M.N.M.,.X.e.e.u.y.e.e.e.0.9.9.7.O.] =.v.n.n.n.z.l.k.( B.B.B.B.B.B.B.B.",
"B.B.B.B.B.B.B.B.*.x.z.n.n.n.m.-.O.e.e.e.e.9.9.9.8.;.;.%.%.$.X.H &.z.n.z.l.k.g.&.B.B.B.B.B.B.B.B.",
"B.B.B.B.B.B.B.6 k.z.z.v.v.v.:.} 9.9.9.7.7.;.%.%.$.$.O.O.X.....{ x =.x.l.k.g.g.g.5 B.B.B.B.B.B.B.",
"B.B.B.B.B.B.B.' z.z.z.z.x.g.] %.;.%.%.$.| [ O.#.O.O... .{ { ] L G h d.k.k.g.g.g.` B.B.B.B.B.B.B.",
"B.B.B.B.B.B.2 d.l.z.z.z.z.| ..$.O.X.X.[ <.l.*._  . . . .L H G A A h S g.g.f.g.k.d.4 B.B.B.B.B.B.",
"B.B.B.B.B.B.' k.l.l.z.z.g.A } ........x.N.M.M.m.-.Z { P K J x j h h t w.f.g.g.k.g.` B.B.B.B.B.B.",
"B.` l.z.z.z.k.k.k.l.z.z.=.G ] L ] { 2.N.N.N.m.m.n.n.-.c G F z f y y t [ g.g.g.l.k.z.n.n.x.z.( B.",
"B.` d.g.g.k.k.k.k.l.k.z.H G G G K L 7.N.N.M.m.m.n.n.m.m.-.c l s t t t H g.g.k.k.k.g.g.g.g.d.( B.",
"B.( d.g.g.g.g.k.k.k.k.z.k k x x G J 2.N.N.M.m.n.n.n.n.m.m.n.k f x h 3 * k.k.k.k.k.k.g.g.d.d.7 B.",
"B.7 d.d.g.g.g.g.k.k.k.z., t i h B J 2.N.M.M.m.n.v.n.n.m.M.N.e.f &     @ z.k.k.k.g.g.g.g.d.d.7 B.",
"B.7 d.d.f.g.g.g.k.k.k.z.o     % 0 v  .N.N.M.m.m.n.n.n.m.m.M.L ; #     @ z.k.k.g.g.g.g.d.f.d.7 B.",
"B.6 <.d.d.d.d.g.g.g.g.z.*     # : e U N.M.M.m.n.z.z.x.n.M.i.r : #     > l.k.k.g.g.g.d.d.d.<.6 B.",
"B.5 <.d.d.d.d.g.g.g.k.k.u     # : r U N.N.M.m.n.v.z.m.c.1.v r 8 #     u l.g.g.g.g.d.d.d.<.<.5 B.",
"B.5 >.d.d.g.f.d.g.g.g.g.|     + : r N N.N.M.m.n.n.c.5.R N v r ; #     X.g.k.g.g.d.d.g.f.d.>.4 B.",
"B.B.B.B.B.4 ` d.d.g.g.g.h.X   X - w v i.N.M.M.b.p.3.~ R N v w = o   X k.g.g.f.d.d.` 2 B.B.B.B.B.",
"B.B.B.B.B.B.4 >.d.d.g.g.k.k     # 9 a N 5.a.p.r.r.4.~ R M p q #     c k.g.g.f.d.>.4 B.B.B.B.B.B.",
"B.B.B.B.B.B.B.&.d.d.f.f.g.k.$     = r n Y ! 4.t.r./ Q D v r = O   $ k.g.d.g.d.d.&.B.B.B.B.B.B.B.",
"B.B.B.B.B.B.B.7 <.d.d.f.g.h.9..   X - r n R ! ^ ^ Q D b r ; O   . q.g.g.g.d.d.<.7 B.B.B.B.B.B.B.",
"B.B.B.B.B.B.B.B.*.d.f.d.g.f.g.o..   . # q a n M M n p q = X   . :.n.k.g.g.d.d.*.B.B.B.B.B.B.B.B.",
"B.B.B.B.B.B.B.B.( <.d.<.<.d.d.d.:.$   . O $ ; 8 8 : = O     $ y.m.m.n.g.g.d.d.( B.B.B.B.B.B.B.B.",
"B.B.B.B.B.B.B.( >.<.<.<.<.<.<.d.g.k.c +       .         o S n.m.m.n.n.z.g.g.d.>.7 B.B.B.B.B.B.B.",
"B.B.B.B.B.B.` <.d.<.d.d.d.d.g.g.g.g.z.k.$.h , $ & , g +.z.n.n.n.n.n.n.n.k.g.g.d.d.6 B.B.B.B.B.B.",
"B.B.B.B.B.B.g.d.d.d.g.g.g.g.g.k.g.k.k.k.k.z.z.n.n.n.n.z.z.z.z.z.z.x.z.z.z.k.g.g.d.g.B.B.B.B.B.B.",
"B.B.B.B.B.B.<.f.g.d.g.g.g.k.g.k.k.k.k.k.k.k.k.z.l.l.k.l.z.z.z.z.z.z.l.z.z.k.g.d.d.<.B.B.B.B.B.B.",
"B.B.B.B.B.B.6 d.d.g.g.g.g.g.g.k.g.k.k.k.k.k.k.l.k.k.k.l.k.k.l.k.k.l.k.k.k.k.g.g.d.5 B.B.B.B.B.B.",
"B.B.B.B.B.B.B.7 d.g.g.g.g.g.&.<.k.k.k.k.k.k.k.k.k.k.k.k.k.k.k.k.<.&.g.k.g.g.g.g.7 B.B.B.B.B.B.B.",
"B.B.B.B.B.B.B.B.( d.g.g.g.7 B.B.7 >.l.k.k.k.k.k.k.k.k.k.k.k.>.7 B.B.7 f.g.g.g.7 B.B.B.B.B.B.B.B.",
"B.B.B.B.B.B.B.B.B.6 d.f.5 B.B.B.B.B.1 ' k.k.k.k.k.k.k.k.' 1 B.B.B.B.B.5 d.d.6 B.B.B.B.B.B.B.B.B.",
"B.B.B.B.B.B.B.B.B.B.B.1 B.B.B.B.B.B.B.1 g.k.k.k.k.k.k.g.1 B.B.B.B.B.B.B.< < B.B.B.B.B.B.B.B.B.B.",
"B.B.B.B.B.B.B.B.B.B.B.B.B.B.B.B.B.B.B.B.d.l.k.l.l.k.l.f.B.B.B.B.B.B.B.B.B.B.B.B.B.B.B.B.B.B.B.B.",
"B.B.B.B.B.B.B.B.B.B.B.B.B.B.B.B.B.B.B.B.d.k.k.l.k.k.k.d.B.B.B.B.B.B.B.B.B.B.B.B.B.B.B.B.B.B.B.B.",
"B.B.B.B.B.B.B.B.B.B.B.B.B.B.B.B.B.B.B.B.d.l.z.l.z.z.z.d.B.B.B.B.B.B.B.B.B.B.B.B.B.B.B.B.B.B.B.B.",
"B.B.B.B.B.B.B.B.B.B.B.B.B.B.B.B.B.B.B.B.4 ( ` ' ' ` ( 4 B.B.B.B.B.B.B.B.B.B.B.B.B.B.B.B.B.B.B.B.",
"B.B.B.B.B.B.B.B.B.B.B.B.B.B.B.B.B.B.B.B.B.B.B.B.B.B.B.B.B.B.B.B.B.B.B.B.B.B.B.B.B.B.B.B.B.B.B.B."
}
#endif
;
