/* XPM */
extern const char *func_decl[]
#ifdef XPM_SOURCE
={
"22 22 70 2",
"Qt c None",
".q c #0000ff",
".t c #1f1ffb",
".l c #2323fb",
".9 c #2727fa",
".i c #2b2bfa",
".F c #2f2f2d",
".p c #2f2ff9",
".c c #3131f9",
".e c #3737f9",
".4 c #3a3a38",
".Z c #3d3df8",
".r c #4e4ef6",
".h c #5656f5",
".5 c #585854",
".H c #5a5a57",
".s c #5a5af5",
".R c #6060f4",
".6 c #636360",
".b c #6464f4",
".E c #656560",
".V c #666663",
".2 c #6a6a66",
".M c #6a6a67",
".f c #6a6af3",
".3 c #72726e",
".8 c #7a7af1",
".0 c #7b7bf1",
".Q c #7f7ff0",
".o c #8282f1",
".D c #878782",
".G c #888883",
".y c #8c8c87",
".A c #93938e",
".v c #9797ef",
".z c #a0a09a",
".W c #a0a09b",
"#b c #a3a39e",
".x c #a6a6a0",
".L c #a6a6a1",
".j c #a9a9ec",
".C c #adada7",
".g c #adadec",
".T c #b0b0aa",
".7 c #b3b3ad",
"#. c #bebeea",
".B c #c0c0b9",
".m c #c2c2ea",
"#d c #c4c4e9",
".k c #c4c4ea",
"#a c #c9c9c3",
".a c #cacae9",
".O c #cdcdc6",
".Y c #cecec6",
"## c #d0d0c9",
".w c #d8d8e8",
".N c #d9d9d1",
".U c #d9d9d2",
".I c #dbdbd3",
".u c #dcdce7",
".1 c #ddddd5",
".S c #dddddd",
".J c #dfdfd7",
".X c #e0e0d8",
".d c #e0e0e7",
".# c #e2e2e7",
".n c #e4e4e7",
".K c #e5e5dd",
"#c c #e8e8e6",
".P c #e9e9e1",
"QtQtQtQtQtQtQtQtQtQtQtQtQtQtQtQtQtQtQtQtQtQt",
"QtQtQtQtQtQtQtQtQtQtQtQtQtQtQtQtQtQtQtQtQtQt",
"QtQtQtQtQtQtQtQtQtQtQtQtQtQtQtQtQtQtQtQtQtQt",
"QtQtQtQtQtQtQtQtQtQtQtQtQtQtQtQtQtQtQtQtQtQt",
"QtQtQtQtQtQtQtQtQtQtQtQtQtQtQtQtQtQtQtQtQtQt",
"QtQtQtQtQtQtQtQtQtQtQtQtQtQtQtQtQtQtQtQtQtQt",
"QtQtQtQtQt.#.aQtQtQtQtQtQtQtQtQtQtQtQtQtQtQt",
"QtQtQtQtQt.b.c.aQtQtQtQtQtQtQtQtQtQtQtQtQtQt",
"QtQtQtQt.d.e.f.gQtQtQtQtQtQtQtQtQtQtQtQtQtQt",
"QtQtQtQt.h.i.j.kQtQtQtQtQtQtQtQtQtQtQtQtQtQt",
"QtQtQtQt.h.iQtQtQtQtQtQtQtQtQtQtQtQtQtQtQtQt",
"QtQtQtQt.h.l.m.mQtQtQtQtQtQtQtQtQtQtQtQtQtQt",
"QtQt.n.o.p.q.q.rQtQtQtQtQtQtQtQtQtQtQtQtQtQt",
"QtQt.s.q.q.t.g.uQtQtQtQtQtQtQtQtQtQtQtQtQtQt",
"QtQtQt.v.q.wQtQtQtQtQtQtQtQtQtQtQtQtQtQtQtQt",
"QtQtQt.v.q.wQt.x.y.z.A.BQtQtQtQtQtQtQtQtQtQt",
"QtQtQt.v.q.w.C.D.E.F.G.H.IQtQtQtQtQtQtQtQtQt",
"QtQtQt.v.q.w.J.K.L.M.N.O.PQtQtQtQtQtQtQtQtQt",
"QtQt.Q.v.R.S.T.U.V.W.X.YQtQtQtQtQtQtQtQtQtQt",
"QtQt.Z.0.v.1.2.3.4.5.6.7QtQtQtQtQtQtQtQtQtQt",
"QtQt.8.9#.Qt##.x#a#b.7QtQtQtQtQtQtQtQtQtQtQt",
"QtQt#c#dQtQtQtQtQtQtQtQtQtQtQtQtQtQtQtQtQtQt"}
#endif
;
