/* XPM */

extern const char *func_defn[]
#ifdef XPM_SOURCE
={
"23 22 114 2",
"Qt c None",
".9 c #0000ff",
"#a c #1f1ffb",
".0 c #2323fb",
"#P c #2727fa",
".K c #2b2bfa",
".E c #2d2c29",
"#m c #2f2f2d",
".8 c #2f2ff9",
".u c #302e2b",
".F c #31302e",
".q c #3131f9",
".z c #3737f9",
"#K c #3a3a38",
".t c #3d3c39",
"#F c #3d3df8",
"#. c #4e4ef6",
".J c #5656f5",
"#L c #585854",
"#o c #5a5a57",
"## c #5a5af5",
"#z c #6060f4",
"#M c #636360",
".p c #6464f4",
"#l c #656560",
"#C c #666663",
".H c #67655d",
".w c #696760",
".Y c #6a6963",
"#I c #6a6a66",
"#t c #6a6a67",
".A c #6a6af3",
".W c #6f6d65",
"#J c #72726e",
".V c #75736b",
".b c #7a7871",
".k c #7a7872",
"#O c #7a7af1",
"#G c #7b7bf1",
".s c #7c7a74",
".r c #7c7b75",
".c c #7e7c76",
"#y c #7f7ff0",
".l c #82807a",
".7 c #8282f1",
".D c #83827c",
".5 c #86857f",
".S c #87857e",
"#k c #878782",
".m c #88857d",
".C c #888681",
"#n c #888883",
"#f c #8c8c87",
".n c #8d8b83",
".v c #8d8b86",
".I c #8e8d86",
".X c #908e87",
"#h c #93938e",
".O c #94928b",
"#c c #9797ef",
".P c #9a9993",
".e c #9b9a93",
".j c #9c9b94",
".R c #9f9d98",
"#g c #a0a09a",
"#D c #a0a09b",
"#T c #a3a39e",
"#e c #a6a6a0",
"#s c #a6a6a1",
".U c #a9a7a1",
".L c #a9a9ec",
".4 c #abaaa3",
"#j c #adada7",
".B c #adadec",
".x c #aeaea6",
"#B c #b0b0aa",
".d c #b3b3ab",
"#N c #b3b3ad",
".Q c #b7b6b3",
".T c #b8b7b1",
".G c #bab9b7",
".i c #bdbdb6",
"#Q c #bebeea",
".N c #bfbdb7",
"#i c #c0c0b9",
".1 c #c2c2ea",
".a c #c3c2bd",
"#V c #c4c4e9",
".M c #c4c4ea",
".# c #c7c7c1",
"#S c #c9c9c3",
".h c #cacae9",
"#v c #cdcdc6",
"#E c #cecec6",
".Z c #d0cfc8",
"#x c #d0d0c8",
"#R c #d0d0c9",
"#d c #d8d8e8",
"#u c #d9d9d1",
".o c #d9d9d2",
"#p c #dbdbd3",
".3 c #dcdcd4",
"#b c #dcdce7",
"#H c #ddddd5",
"#A c #dddddd",
".f c #dfded7",
"#q c #dfdfd7",
".2 c #e0e0d8",
".y c #e0e0e7",
".g c #e2e2e7",
".6 c #e4e4e7",
"#r c #e5e5dd",
"#U c #e8e8e6",
"#w c #e9e9e1",
"QtQtQtQtQtQtQtQtQtQtQtQtQtQtQtQtQtQtQtQtQtQtQt",
"QtQtQtQtQtQtQtQtQtQtQtQtQtQtQtQtQtQtQtQtQtQtQt",
"QtQtQtQtQtQtQtQtQtQtQtQtQtQtQtQtQtQtQtQtQtQtQt",
"QtQtQtQtQtQtQtQt.#.a.b.c.d.e.fQtQtQtQtQtQtQtQt",
"QtQtQt.g.hQtQtQt.i.j.k.l.m.n.oQtQtQtQtQtQtQtQt",
"QtQtQt.p.q.hQtQt.r.s.t.u.v.w.xQtQtQtQtQtQtQtQt",
"QtQt.y.z.A.BQtQt.C.D.E.F.G.H.IQtQtQtQtQtQtQtQt",
"QtQt.J.K.L.MQtQt.N.O.P.Q.R.S.fQtQtQtQtQtQtQtQt",
"QtQt.J.KQtQtQtQt.T.U.V.W.X.Y.ZQtQtQtQtQtQtQtQt",
"QtQt.J.0.1.1QtQt.2.3.4.5.#.a.b.c.d.e.fQtQtQtQt",
".6.7.8.9.9#.QtQtQtQtQtQt.i.j.k.l.m.n.oQtQtQtQt",
"##.9.9#a.B#bQtQtQtQtQtQt.r.s.t.u.v.w.xQtQtQtQt",
"Qt#c.9#dQtQtQtQtQtQtQtQt.C.D.E.F.G.H.IQtQtQtQt",
"Qt#c.9#dQt#e#f#g#h#iQtQt.N.O.P.Q.R.S.fQtQtQtQt",
"Qt#c.9#d#j#k#l#m#n#o#pQt.T.U.V.W.X.Y.ZQtQtQtQt",
"Qt#c.9#d#q#r#s#t#u#v#wQt.2.3.4.5.f#xQtQtQtQtQt",
"#y#c#z#A#B.o#C#D.2#EQtQtQtQtQtQtQtQtQtQtQtQtQt",
"#F#G#c#H#I#J#K#L#M#NQtQtQtQtQtQtQtQtQtQtQtQtQt",
"#O#P#QQt#R#e#S#T#NQtQtQtQtQtQtQtQtQtQtQtQtQtQt",
"#U#VQtQtQtQtQtQtQtQtQtQtQtQtQtQtQtQtQtQtQtQtQt",
"QtQtQtQtQtQtQtQtQtQtQtQtQtQtQtQtQtQtQtQtQtQtQt",
"QtQtQtQtQtQtQtQtQtQtQtQtQtQtQtQtQtQtQtQtQtQtQt"}
#endif
;
