/* XPM */
extern const char *gotoline[] 
#ifdef XPM_SOURCE
= {
/* columns rows colors chars-per-pixel */
"48 48 220 2",
"   c #074216",
".  c #0B4618",
"X  c #0D4A1A",
"o  c #104D1B",
"O  c #104E1B",
"+  c #165218",
"@  c #12511D",
"#  c #13511E",
"$  c #14551E",
"%  c #15561E",
"&  c #205D1A",
"*  c #2C6412",
"=  c #28671C",
"-  c #336C13",
";  c #175820",
":  c #175920",
">  c #195C22",
",  c #1A5D22",
"<  c #1C6023",
"1  c #1E6325",
"2  c #206425",
"3  c #206726",
"4  c #216726",
"5  c #256C27",
"6  c #236B28",
"7  c #256E2A",
"8  c #28722B",
"9  c #2A732B",
"0  c #2A762D",
"q  c #2B762D",
"w  c #2C792E",
"e  c #2E7A2E",
"r  c #307120",
"t  c #337721",
"y  c #2F7D30",
"u  c #497E0C",
"i  c #407C15",
"p  c #555555",
"a  c #565656",
"s  c gray36",
"d  c gray39",
"f  c #6A6A6A",
"g  c gray44",
"h  c #318132",
"j  c #338233",
"k  c #348433",
"l  c #358433",
"z  c #368835",
"x  c #378A36",
"c  c #388A36",
"v  c #388B36",
"b  c #388C37",
"n  c #3A8C37",
"m  c #578D0D",
"M  c #5B8F08",
"N  c #5F9207",
"B  c #4E8B18",
"V  c #559319",
"C  c #569219",
"Z  c #609307",
"A  c #639607",
"S  c #659807",
"D  c #669907",
"F  c #679A07",
"G  c #699D07",
"H  c #6A9D07",
"J  c #6A9E07",
"K  c #6C9F08",
"L  c #6DA108",
"P  c #6EA208",
"I  c #6FA308",
"U  c #69A10F",
"Y  c #70A308",
"T  c #71A408",
"R  c #71A609",
"E  c #73A708",
"W  c #74A708",
"Q  c #75A808",
"!  c #75A908",
"~  c #77AB08",
"^  c #7AAE09",
"/  c #7BAF09",
"(  c #7CB009",
")  c #7EB209",
"_  c #65A01F",
"`  c #76AF10",
"'  c #79B010",
"]  c #41862D",
"[  c #448A32",
"{  c #4A9139",
"}  c #50973E",
"|  c #639D2B",
" . c #669F35",
".. c #75A523",
"X. c #75A524",
"o. c #77A525",
"O. c #77A726",
"+. c #7BAB21",
"@. c #79A922",
"#. c #7FAF21",
"$. c #78A728",
"%. c #79A829",
"&. c #4F9941",
"*. c #6EA542",
"=. c #79AE4F",
"-. c #80B409",
";. c #81B509",
":. c #82B609",
">. c #84B909",
",. c #85B909",
"<. c #86BA09",
"1. c #84B80B",
"2. c #87BB0A",
"3. c #86BB0B",
"4. c #89BD0A",
"5. c #8ABF0A",
"6. c #8BBF0A",
"7. c #83B51F",
"8. c #85B71E",
"9. c #87BA1B",
"0. c #87B81D",
"q. c #89BA1C",
"w. c #88BA1D",
"e. c #81B120",
"r. c #8EBD35",
"t. c #83B439",
"y. c #91BE37",
"u. c #91BE39",
"i. c #92BE3B",
"p. c #91BE3D",
"a. c #8CC10A",
"s. c #8DC20B",
"d. c #8FBB46",
"f. c #8BB84C",
"g. c #91BB43",
"h. c #91BD40",
"j. c #90BD41",
"k. c #92BE42",
"l. c #94BE43",
"z. c #93BF46",
"x. c #91BC48",
"c. c #93BD4B",
"v. c #93BE4B",
"b. c #94BE48",
"n. c #94BE4B",
"m. c #94BD4D",
"M. c #83B65C",
"N. c #82B65D",
"B. c #96C04F",
"V. c #97C04F",
"C. c #98C152",
"Z. c #99C152",
"A. c #9AC155",
"S. c #9CC456",
"D. c #9CC457",
"F. c #9DC559",
"G. c #9FC65C",
"H. c #A1C75F",
"J. c #9CC463",
"K. c #A3C962",
"L. c #A6CB64",
"P. c #A8CB67",
"I. c #A7CC68",
"U. c #AACE6A",
"Y. c #ACCF6D",
"T. c #ADD070",
"R. c #AFD173",
"E. c #ADD07A",
"W. c #B1D476",
"Q. c #B2D476",
"!. c #B4D579",
"~. c #B6D67B",
"^. c #B8D77F",
"/. c #BBDA82",
"(. c #BDDB86",
"). c #BDDB87",
"_. c #BAD98A",
"`. c #BFDC89",
"'. c #C1DF8C",
"]. c #C4E090",
"[. c #C6E193",
"{. c #C8E397",
"}. c #CBE69A",
"|. c #CDE79E",
" X c #CFE8A1",
".X c #D3EBA5",
"XX c #D5EDA8",
"oX c #D5EDAB",
"OX c #D7EEAB",
"+X c #DEF3B6",
"@X c #E0F4B8",
"#X c gray88",
"$X c #E1E1E1",
"%X c #E2E2E2",
"&X c gray89",
"*X c #E4E4E4",
"=X c gray90",
"-X c #E7E7E7",
";X c gray91",
":X c #E9E9E9",
">X c #EAEAEA",
",X c gray92",
"<X c #ECECEC",
"1X c gray93",
"2X c #EEEEEE",
"3X c #EFEFEF",
"4X c gray94",
"5X c #F1F1F1",
"6X c gray95",
"7X c #F3F3F3",
"8X c #F4F4F4",
"9X c gray96",
"0X c #F6F6F6",
"qX c gray97",
"wX c #F8F8F8",
"eX c #F9F9F9",
"rX c gray98",
"tX c #FBFBFB",
"yX c gray99",
"uX c None",
/* pixels */
"uXuXuXuXuXuXuXuXuXuXuXuXuXuXuXuXuXuXuXuXuXuXuXuXuXuXuXuXuXuXuXuXuXuXuXuXuXuXuXuXuXuXuXuXuXuXuXuX",
"uXuXuXuXuXuXuXuXuXuXuXuXuXuXuXuXuXuXuXuXuXuXuXuXuXuXuXuXuXuXuXuXuXuXuXuXuXuXuXuXuXuXuXuXuXuXuXuX",
"uXuXuXuXuXuXuXuXuXuXuXuXuXuXuXuXuXuXuXuXuXuXuXuXuXuXuXuXuXuXuXuXuXuXuXuXuXuXuXuXuXuXuXuXuXuXuXuX",
"uXuXuXuXuXuXuXuXuXuXuXuXuXuXuXuXuXuXuXuXuXuXuXuXuXuXuXuXuXuXuXuXuXuXuXuXuXuXuXuXuXuXuXuXuXuXuXuX",
"uXuXuXuXuXuXuXuXuXuXuXuXuXuXuXuXuXuXuXuXuXuXuXuXuXuXuXuXuXuXuXuXuXuXuXuXuXuXuXuXuXuXuXuXuXuXuXuX",
"uXuXuXuXuXuXuXuXuXuXuXuXuXuXuXuXuXuXuXuXuXuXuXuXuXuXuXuXuXuXuXuXuXuXuXuXuXuXuXuXuXuXuXuXuXuXuXuX",
"uXuXuXuXuXuXuXuXuXuXuXuXuXuXuXuXuXuXuXuXuXuXuXuXuXuXuXuXuXuXuXuXuXuXuXuXuXuXuXuXuXuXuXuXuXuXuXuX",
"uXuXuXuXuXuXuXuXuXuXuXuXuXuXuXuXuXuXuXuXuXuXuXuXuXuXuXuXuXuXuXuXuXuXuXuXuXuXuXuXuXuXuXuXuXuXuXuX",
"uXuXuXuXuXuXuXuXuXg g g g g g g g g g g g g g g g g g g g g g g g uXuXuXuXuXuXuXuXuXuXuXuXuXuXuX",
"uXuXuXuXuXuXuXuXuXf yXyXyXyXyXyXyXyXyXtXwX9X6X3X<X;X=X%X#X#X#X#Xf uXuXuXuXuXuXuXuXuXuXuXuXuXuXuX",
"uXuXuXuXuXuXuXuXuXd yXyXyXyXyXyXyXyXtXwX9X5X2X,X;X=X%X#X#X#X#X#Xd uXuXuXuXuXuXuXuXuXuXuXuXuXuXuX",
"uXuXuXuXuXuXuXuXuXs yXyXyXyXyXyXyXrXqX8X5X2X,X;X*X$X#X#X#X#X#X#Xs uXuXuXuXuXuXuXuXuXuXuXuXuXuXuX",
"uXuXuXuXuXuXuXuXuXp p p p p p p p p p p p p p p p p p p p p p p p uXuXuXuXuXuXuXuXuXuXuXuXuXuXuX",
"uXuXuXuXuXuXuXuXuXuXuXuXuXuXuXuXuXuXuXuXuXuXuXuXuXuXuXuXuXuXuXuXuXuXuXuXuXuXuXuXuXuXuXuXuXuXuXuX",
"uXuXuXuXuXuXuXuXuXuXuXuXuXuXuXuXuXuXuXuXuXuXuXuXuXuXuXuXuXuXuXuXuXuXuXuXuXuXuXuXuXuXuXuXuXuXuXuX",
"uXuXuXuXuXuXuXuXuXuXuXuXuXuXuXuXuXuXuXuXuXuXuXuXuXuXuXuXuXuXuXuXuXuXuXuXuXuXuXuXuXuXuXuXuXuXuXuX",
"uXuXuXuXuXv uXuXuXuXuXuXuXuXuXuXuXuXuXuXuXuXuXuXuXuXuXuXuXuXuXuXuXuXuXuXuXuXuXuXuXuXuXuXuXuXuXuX",
"uXuXuXuXv N.v uXuXuXuXuXuXuXuXuXuXuXuXuXuXuXuXuXuXuXuXg g g g g g g g g g g g g g g g uXuXuXuXuX",
"uXuXuXuXv @X_.&.b uXuXuXuXuXuXuXuXuXuXuXuXuXuXuXuXuXuXf yXyXyXyXyXyXeX8X3X>X=X#X#X#Xf uXuXuXuXuX",
"uXuXuXuXv @X+XoXM.n uXuXuXuXuXuXuXuXuXuXuXuXuXuXuXuXuXd yXyXyXyXyXrX9X5X<X-X%X#X#X#Xd uXuXuXuXuX",
"uXuXuXuXv OXXX.X XE.} c uXuXuXuXuXuXuXuXuXuXuXuXuXuXuXs yXyXyXyXyXqX6X1X;X&X#X#X#X#Xs uXuXuXuXuX",
"uXuXuXuXz |.}.{.[.].).=.x uXuXuXuXuXuXuXuXuXuXuXuXuXuXp p p p p p p p p p p p p p p p uXuXuXuXuX",
"uXuXuXuXk ].'.`.(./.^.~.J.{ l uXuXuXuXuXuXuXuXuXuXuXuXuXuXuXuXuXuXuXuXuXuXuXuXuXuXuXuXuXuXuXuXuX",
"uXuXuXuXh /.^.~.!.W.R.T.Y.I.*.j uXuXuXuXuXuXuXuXuXuXuXuXuXuXuXuXuXuXuXuXuXuXuXuXuXuXuXuXuXuXuXuX",
"uXuXuXuXy Q.R.T.Y.U.P.L.K.H.G.f.[ y uXuXuXuXuXuXuXuXuXuXuXuXuXuXuXuXuXuXuXuXuXuXuXuXuXuXuXuXuXuX",
"uXuXuXuXw U.P.L.K.H.G.F.S.A.C.V.v. .e uXuXuXuXuXuXuXuXuXuXuXuXuXuXuXuXuXuXuXuXuXuXuXuXuXuXuXuXuX",
"uXuXuXuX0 H.G.F.D.A.Z.B.m.n.b.z.l.k.t.] q uXuXuXuXuXuXg g g g g g g g g g g g g g g uXuXuXuXuXuX",
"uXuXuXuX8 A.Z.B.m.c.x.d.g.j.h.p.i.u.y.r.| 9 uXuXuXuXuXf yXyXyXyXyXyXqX5X<X-X$X#X#Xf uXuXuXuXuXuX",
"uXuXuXuX7 %.$.O.o.X...@.+.#.e.7.8.0.w.q.9._ 7 uXuXuXuXd yXyXyXyXyXwX7X2X;X&X#X#X#Xd uXuXuXuXuXuX",
"uXuXuXuX6 N N N N N S J Y ! ^ ) :.,.2.3.V 5 uXuXuXuXuXs yXyXyXyXrX9X3X>X=X#X#X#X#Xs uXuXuXuXuXuX",
"uXuXuXuX3 N N N N A G I ! / -.,.4.a.' t 4 uXuXuXuXuXuXp p p p p p p p p p p p p p p uXuXuXuXuXuX",
"uXuXuXuX1 N N N Z F L W ^ -.<.6.s.C 2 uXuXuXuXuXuXuXuXuXuXuXuXuXuXuXuXuXuXuXuXuXuXuXuXuXuXuXuXuX",
"uXuXuXuX< N N N A H T ~ ) >.5.` r < uXuXuXuXuXuXuXuXuXuXuXuXuXuXuXuXuXuXuXuXuXuXuXuXuXuXuXuXuXuX",
"uXuXuXuX> N N N S K E ^ ;.1.B , uXuXuXuXuXuXuXuXuXuXuXuXuXuXuXuXuXuXuXuXuXuXuXuXuXuXuXuXuXuXuXuX",
"uXuXuXuX; N N N D L Q ( U = : uXuXuXuXuXuXuXuXuXuXuXuXuXuXuXuXuXuXuXuXuXuXuXuXuXuXuXuXuXuXuXuXuX",
"uXuXuXuX$ N N Z F P R i % uXuXuXuXuXuXuXuXuXuXuXuXuXuXg g g g g g g g g g g g g g g g g g uXuXuX",
"uXuXuXuX@ N N N F m & # uXuXuXuXuXuXuXuXuXuXuXuXuXuXuXf yXyXyXyXyXyXyXeX8X4X<X;X&X#X#X#Xf uXuXuX",
"uXuXuXuXo N N M - O uXuXuXuXuXuXuXuXuXuXuXuXuXuXuXuXuXd yXyXyXyXyXyXeX9X5X1X;X*X#X#X#X#Xd uXuXuX",
"uXuXuXuXX N u + X uXuXuXuXuXuXuXuXuXuXuXuXuXuXuXuXuXuXs yXyXyXyXyXrX0X5X1X:X=X#X#X#X#X#Xs uXuXuX",
"uXuXuXuX. * . uXuXuXuXuXuXuXuXuXuXuXuXuXuXuXuXuXuXuXuXa p p p p p p p p p p p p p p p p a uXuXuX",
"uXuXuXuXuX  uXuXuXuXuXuXuXuXuXuXuXuXuXuXuXuXuXuXuXuXuXuXuXuXuXuXuXuXuXuXuXuXuXuXuXuXuXuXuXuXuXuX",
"uXuXuXuXuXuXuXuXuXuXuXuXuXuXuXuXuXuXuXuXuXuXuXuXuXuXuXuXuXuXuXuXuXuXuXuXuXuXuXuXuXuXuXuXuXuXuXuX",
"uXuXuXuXuXuXuXuXuXuXuXuXuXuXuXuXuXuXuXuXuXuXuXuXuXuXuXuXuXuXuXuXuXuXuXuXuXuXuXuXuXuXuXuXuXuXuXuX",
"uXuXuXuXuXuXuXuXuXuXuXuXuXuXuXuXuXuXuXuXuXuXuXuXuXuXuXuXuXuXuXuXuXuXuXuXuXuXuXuXuXuXuXuXuXuXuXuX",
"uXuXuXuXuXuXuXuXuXuXuXuXuXuXuXuXuXuXuXuXuXuXuXuXuXuXuXuXuXuXuXuXuXuXuXuXuXuXuXuXuXuXuXuXuXuXuXuX",
"uXuXuXuXuXuXuXuXuXuXuXuXuXuXuXuXuXuXuXuXuXuXuXuXuXuXuXuXuXuXuXuXuXuXuXuXuXuXuXuXuXuXuXuXuXuXuXuX",
"uXuXuXuXuXuXuXuXuXuXuXuXuXuXuXuXuXuXuXuXuXuXuXuXuXuXuXuXuXuXuXuXuXuXuXuXuXuXuXuXuXuXuXuXuXuXuXuX",
"uXuXuXuXuXuXuXuXuXuXuXuXuXuXuXuXuXuXuXuXuXuXuXuXuXuXuXuXuXuXuXuXuXuXuXuXuXuXuXuXuXuXuXuXuXuXuXuX"
}
#endif
;
