/* XPM */
extern const char *highlight[] 
#ifdef XPM_SOURCE
= {
/* columns rows colors chars-per-pixel */
"48 48 231 2",
"   c gray12",
".  c #202020",
"X  c #313131",
"o  c #323232",
"O  c #323333",
"+  c #343535",
"@  c #393939",
"#  c gray24",
"$  c #3F3F3F",
"%  c #424241",
"&  c gray26",
"*  c gray28",
"=  c #474847",
"-  c gray29",
";  c #4B4B4B",
":  c #4C4C4C",
">  c gray30",
",  c #4D4E4D",
"<  c #4E4F4E",
"1  c gray31",
"2  c #505050",
"3  c gray32",
"4  c #535353",
"5  c #555555",
"6  c #565756",
"7  c gray34",
"8  c #575856",
"9  c #585957",
"0  c #585858",
"q  c #5A5A5A",
"w  c gray36",
"e  c gray37",
"r  c #5F5F5F",
"t  c gray38",
"y  c #626262",
"u  c gray39",
"i  c #636461",
"p  c #636561",
"a  c #646464",
"s  c #686966",
"d  c #686868",
"f  c #68696A",
"g  c #696A6A",
"h  c #6A6A6A",
"j  c #6B6C69",
"k  c #6C6D6B",
"l  c #6C6E6A",
"z  c #6C6E6B",
"x  c #6A6B6C",
"c  c #6C6C6C",
"v  c #6D6E6E",
"b  c gray43",
"n  c #6E6F6E",
"m  c #6E706D",
"M  c #6F716E",
"N  c gray44",
"B  c #717272",
"V  c #707273",
"C  c #727272",
"Z  c #727471",
"A  c #727475",
"S  c #747474",
"D  c #747574",
"F  c gray46",
"G  c #767776",
"H  c #777777",
"J  c #777877",
"K  c gray47",
"L  c #797979",
"P  c #7A7B78",
"I  c #7A7B79",
"U  c gray48",
"Y  c #7B7B7B",
"T  c #7A7C79",
"R  c #7B7C7D",
"E  c #7A7C7E",
"W  c #7D7D7C",
"Q  c gray49",
"!  c #7D7E7C",
"~  c #7D7F7C",
"^  c #7D7E7D",
"/  c #7D7E7E",
"(  c #7E7E7E",
")  c #7F7F7F",
"_  c #7F807D",
"`  c #7E7F80",
"'  c #808080",
"]  c #818181",
"[  c gray51",
"{  c #828382",
"}  c #838383",
"|  c #838582",
" . c #848484",
".. c gray52",
"X. c #868686",
"o. c #888888",
"O. c #898989",
"+. c #898A89",
"@. c #8A8B88",
"#. c gray54",
"$. c #8B8B8A",
"%. c #8B8B8B",
"&. c #8C8E8B",
"*. c gray55",
"=. c #8D8D8D",
"-. c #8E8E8E",
";. c gray56",
":. c #8F908E",
">. c #929392",
",. c #949593",
"<. c #929394",
"1. c #959595",
"2. c #969697",
"3. c #979797",
"4. c #999998",
"5. c #989999",
"6. c #9A9A9A",
"7. c #9C9C9B",
"8. c gray61",
"9. c #9D9D9D",
"0. c #9E9F9D",
"q. c gray62",
"w. c #9E9E9F",
"e. c #9F9F9F",
"r. c #A0A0A0",
"t. c gray63",
"y. c #A2A2A2",
"u. c gray64",
"i. c #A4A4A4",
"p. c #A5A5A5",
"a. c gray65",
"s. c #A7A7A7",
"d. c #A7A8A7",
"f. c gray66",
"g. c #A9A9A9",
"h. c #ABABA9",
"j. c #AAAAAA",
"k. c gray67",
"l. c #ACACAC",
"z. c gray68",
"x. c #AEAEAE",
"c. c #AFAFAE",
"v. c #AFAFAF",
"b. c gray69",
"n. c #B1B1B1",
"m. c #B2B3B1",
"M. c #B2B2B2",
"N. c #B2B3B2",
"B. c #B3B3B2",
"V. c #B2B3B3",
"C. c gray70",
"Z. c #B4B4B4",
"A. c gray71",
"S. c #B6B6B6",
"D. c #B7B7B7",
"F. c #B7B8B8",
"G. c gray72",
"H. c #B9B9B9",
"J. c #B9BAB9",
"K. c gray73",
"L. c #BABABB",
"P. c #BBBBBB",
"I. c #BCBCBC",
"U. c gray74",
"Y. c gray",
"T. c gray75",
"R. c #C0C0C0",
"E. c #C1C1C1",
"W. c gray76",
"Q. c #C3C3C3",
"!. c gray77",
"~. c #C5C5C5",
"^. c #C6C6C5",
"/. c #C6C6C6",
"(. c gray78",
"). c #C8C8C8",
"_. c gray79",
"`. c #CACACA",
"'. c #CBCBCB",
"]. c gray80",
"[. c #CDCDCD",
"{. c #CECECE",
"}. c gray81",
"|. c #D0D0D0",
" X c gray82",
".X c #D2D2D2",
"XX c LightGray",
"oX c #D3D4D3",
"OX c gray83",
"+X c #D5D5D5",
"@X c gray84",
"#X c #D7D7D7",
"$X c #D8D8D8",
"%X c gray85",
"&X c #DADADA",
"*X c gray86",
"=X c gainsboro",
"-X c #DDDDDD",
";X c gray87",
":X c #DFDFDF",
">X c gray88",
",X c #E1E1E1",
"<X c #E2E2E2",
"1X c gray89",
"2X c #E3E4E3",
"3X c #E4E4E4",
"4X c gray90",
"5X c #E6E6E6",
"6X c #E7E7E7",
"7X c gray91",
"8X c #E9E9E9",
"9X c #EAEAEA",
"0X c gray92",
"qX c #ECECEC",
"wX c gray93",
"eX c #EEEEEE",
"rX c #EFEFEF",
"tX c #EFF0F0",
"yX c gray94",
"uX c #F1F1F1",
"iX c #F3F3F3",
"pX c gray96",
"aX c #F6F6F6",
"sX c #F6F7F7",
"dX c #F8F8F8",
"fX c #F9F9F9",
"gX c gray98",
"hX c #FBFBFB",
"jX c gray99",
"kX c #FDFDFD",
"lX c None",
/* pixels */
"lXlXlXlXlXlXlXlXlXlXlXlXlXlXlXlXlXlXlXlXlXlXlXlXlXlXlXlXlXlXlXlXlXlXlXlXlXlXlXlXlXlXlXlXlXlXlXlX",
"lXlXlXlXlXlXlXlXlXlXlXlXlXlXlXlXlXlXlXlXlXlXlXlXlXlXlXlXlXlXlXlXlXlXlXlXlXlXlXlXy.&X.XM.lXlXlXlX",
"lXlXlXlXlXlXlXlXlXlXlXlXlXlXlXlXlXlXlXlXlXlXlXlXlXlXlXlXlXlXlXlXlXlXlXlXlXlXlXs.K.x.k.'.I.lXlXlX",
"lXlXlXlXlXlXlXlXlXlXlXlXlXlXlXlXlXlXlXlXlXlXlXlXlXlXlXlXlXlXlXlXlXlXlXlXlXlXD.rX+XP.n.k.%.S lXlX",
"lXlXlXlXlXlXlXlXlXlXlXlXlXlXlXlXlXlXlXlXlXlXlXlXlXlXlXlXlXlXlXlXlXlXlXlXlXS.rX&X|..XQ.%.L !.lXlX",
"lXlXlXlXlXlXlXlXlXlXlXlXlXlXlXlXlXlXlXlXlXlXlXlXlXlXlXlXlXlXlXlXlXlXlXlXS.rX*X|. X}.=.-.p.R.%.lX",
"lXlXlXlXlXlXlXlXlXlXlXlXlXlXlXlXlXlXlXlXlXlXlXlXlXlXlXlXlXlXlXlXlXlXa S.rX*X|.}.{.*.} `.A.] x.lX",
"lXlXlXlXlXlXlXlXlXlXlXlXlXlXlXlXlXlXlXlXlXlXlXlXlXlXlXlXlXlXlXlXlXy S.rX*X|.[.].%.} '.>X;.f.t lX",
"lXlXlXlXlXlXlXlXlXlXlXlXlXlXlXlXlXlXlXlXlXlXlXlXlXlXlXlXlXlXlXlXr S.rX*X|.].].O.} '.,Xi.E.1 lXlX",
"lXlXlXlXlXlXlXlXlXlXlXlXlXlXlXlXlXlXlXlXlXlXlXlXlXlXlXlXlXlXlXe S.rX*X|.].`.o.} '.,Xp. Xr lXlXlX",
"lXlXlXlXlXlXlXlXlXlXlXlXlXlXlXlXlXlXlXlXlXlXlXlXlXlXlXlXlXlXw A.rX*X|.'.).o.} '.,Xf..Xa lXlXlXlX",
"lXlXlXlXlXlXlXlXlXlXlXlXlXlXlXlXlXlXlXlXlXlXlXlXlXlXlXlXlX0 S.rX*X|.'.(.X.} '.,Xj..Xd lXlXlXlXlX",
"lXlXlXlXlXlXlXlXlXlXlXlXlXlXlXlXlXlXlXlXlXlXlXlXlXlXlXlX7 S.rX*X|.'.~.X.} '.<Xz. Xc lXlXlXlXlXlX",
"lXlXlXlXlXlXlXlXlXlXlXlXlXlXlXlXlXlXlXlXlXlXlXlXlXlXlX5 A.rX*X|.`.Q...} '.<Xb. XN lXlXlXlXlXlXlX",
"lXlXlXlXlXlXlXlXlXlXlXlXlXlXlXlXlXlXlXlXlXlXlXlXlXlX3 S.rX*X}.`.W. .} '.<XC. XC lXlXlXlXlXlXlXlX",
"lXlXlXlXlXlXlXlXlXlXlXlXlXlXlXlXlXlXlXlXlXlXlXlXlX3 S.rX*X}.`.T.} } '.<XS.}.F lXlXlXlXlXlXlXlXlX",
"lXlXlXlXlXlXlXlXlXlXlXlXlXlXlXlXlXlXlXlXlXlXlXlX2 A.rX*X}._.U.} } '.<XH.}.K lXlXlXlXlXlXlXlXlXlX",
"lXlXlXlXlXlXlXlXlXlXlXlXlXlXlXlXlXlXlXlXlXlXlX> S.rX*X{._.P.[ } '.<XU.|.U lXlXlXlXlXlXlXlXlXlXlX",
"lXlXlXlXlXlXlXlXlXlXlXlXlXlXlXlXlXlXlXlXlXlX: S.rX*X{.).G.[ } '.<XR.{.Y lXlXlXlXlXlXlXlXlXlXlXlX",
"lXlXlXlXlXlXlXlXlXlXlXlXlXlXlXlXlXlXlXlXlX; A.rX*X{.).S.[ } '.<X!.{.( . lXlXlXlXlXlXlXlXlXlXlXlX",
"lXlXlXlXlXlXlXlXlXlXlXlXlXlXlXlXlXlXlXlX* D.rX*X[.(.Z.] } '.<X(.|.( . lXlXlXlXlXlXlXlXlXlXlXlXlX",
"lXlXlXlXlXlXlXlXlXlXlXlXlX0 H ;.g.P.!./.D.U.E.)./.n.] } '.<X'.}.)   lXlXlXlXlXlXlXlXlXlXlXlXlXlX",
"lXlXlXlXlXlXlXlXlXlXlX- N i.`.%X:X1X3X4X5X3X-XQ.f.] } '.<X{.|.) . lXlXlXlXlXlXlXlXlXlXlXlXlXlXlX",
"lXlXlXlXlXlXlXlXlXo q ..u.S.~.@X1X5X3X,X:X;X;X=Xb...'.1X.XXX) . lXlXlXlXlXlXlXlXlXlXlXlXlXlXlXlX",
"lXlXlXlXlXlXlXlX# K M.:X8X:X X(.).].;X1X<X;X&X=X-X+X<X+XOX(   lXlXlXlXlXlXlXlXlXlXlXlXlXlXlXlXlX",
"lXlXlXlXlXlXlX& ' K.4XeX0X5X<X:X{.K.T.&X4X7X<X&X;X1X*X@X( . lXlXlXlXlXlXlXlXlXlXlXlXlXlXlXlXlXlX",
"lXlXlXlXlXlX& ' I.5XeX9X4X,X1X8X:X`.H.K.|.<X7X-X=X<X;XQ . lXlXlXlXlXlXlXlXlXlXlXlXlXlXlXlXlXlXlX",
"lXlXlXlXlX% D j.>XuX9X4X>X<X8X:XXX).U.S.G..X5X>X*X<XT.. lXlXlXlXlXlXlXlXlXlXlXlXlXlXlXlXlXlXlXlX",
"lXlXlXlXi s 9 8 i | J.1X1X7X:XXX(.I.Z.C.D.K.;X,X*X<X|.    lXlXlXlXlXlXlXlXlXlXlXlXlXlXlXlXlXlXlX",
"lXlXlX~ = O 2 F } ..J z h.;XXX(.P.n.v.G.R.H.Q.-X-X3X XlXlXlXlXlXlXlXlXlXlXlXlXlXlXlXlXlXlXlXlXlX",
"lXlXI , + r 6.y.t.r.r.q.$.P N.P.v.l.S.W.{.`.K.].:X3X).lXlXlXlXlXlXlXlXlXlXlXlXlXlXlXlXlXlXlXlXlX",
"lXlXW $ 1 1.f.t.e.e.a.U.#Xx.M :.j.Z.E.[.%X3XE.U.<X3XY.lXlXlXlXlXlXlXlXlXlXlXlXlXlXlXlXlXlXlXlXlX",
"lXlXJ 4 t i.z.s.u.A.'.%X%XI.u.m ,.R.].$X3X1X|.H.%X6X9.lXlXlXlXlXlXlXlXlXlXlXlXlXlXlXlXlXlXlXlXlX",
"lXlX) g h H.T.W.U.).}.$X%X}.Y.s.k B.$X3X3X*X;XT.{.wXc lXlXlXlXlXlXlXlXlXlXlXlXlXlXlXlXlXlXlXlXlX",
"lXlX#.] B W.|..X X X.X[.|.@X}.U.q.M :X3X*X:X4X[.(.*XX lXlXlXlXlXlXlXlXlXlXlXlXlXlXlXlXlXlXlXlXlX",
"lXlX+.5...K.#X-X-X*X%XY.x.!.E.C.v.! 0.*X:X4X0X&XR.t.lXlXlXlXlXlXlXlXlXlXlXlXlXlXlXlXlXlXlXlXlXlX",
"lXlXW V.F.1.&X3X6X<XOX_.}.j.l.Q.t.7.p #X4X0XyX%XU.q lXlXlXlXlXlXlXlXlXlXlXlXlXlXlXlXlXlXlXlXlXlX",
"lXlXlXG.&Xi.`.4XeXrX:X;X>XR._.a.y.r.j m.0XyX5X'.q.lXlXlXlXlXlXlXlXlXlXlXlXlXlXlXlXlXlXlXlXlXlXlX",
"lXlXlX>.qXtX3.-XyXdXyX7X0X$Xl.i.s.r.^ @.yX5X+XT.- lXlXlXlXlXlXlXlXlXlXlXlXlXlXlXlXlXlXlXlXlXlXlX",
"lXlXlXlX^.sX,Xa.5XaXfXuX4X).S.k.r.t.{ Z 4X+X[.u lXlXlXlXlXlXlXlXlXlXlXlXlXlXlXlXlXlXlXlXlXlXlXlX",
"lXlXlXlXlX;XgX=Xg.6XiXuX1X.XW.g.s.r.H l OX}.b lXlXlXlXlXlXlXlXlXlXlXlXlXlXlXlXlXlXlXlXlXlXlXlXlX",
"lXlXlXlXlXlX6XhX8Xx.#X9X,X#X}.k.A.#.v T }.c lXlXlXlXlXlXlXlXlXlXlXlXlXlXlXlXlXlXlXlXlXlXlXlXlXlX",
"lXlXlXlXlXlXlX2XhXjX Xv.k.K.C.y.w.x n ,.d lXlXlXlXlXlXlXlXlXlXlXlXlXlXlXlXlXlXlXlXlXlXlXlXlXlXlX",
"lXlXlXlXlXlXlXlXoXiXkXpX).2.` R V f _ 6 lXlXlXlXlXlXlXlXlXlXlXlXlXlXlXlXlXlXlXlXlXlXlXlXlXlXlXlX",
"lXlXlXlXlXlXlXlXlX8.oX%XL.<.E A / &.< lXlXlXlXlXlXlXlXlXlXlXlXlXlXlXlXlXlXlXlXlXlXlXlXlXlXlXlXlX",
"lXlXlXlXlXlXlXlXlXlXlXo.a.c.d.4.G @ lXlXlXlXlXlXlXlXlXlXlXlXlXlXlXlXlXlXlXlXlXlXlXlXlXlXlXlXlXlX",
"lXlXlXlXlXlXlXlXlXlXlXlXlXlXlXlXlXlXlXlXlXlXlXlXlXlXlXlXlXlXlXlXlXlXlXlXlXlXlXlXlXlXlXlXlXlXlXlX",
"lXlXlXlXlXlXlXlXlXlXlXlXlXlXlXlXlXlXlXlXlXlXlXlXlXlXlXlXlXlXlXlXlXlXlXlXlXlXlXlXlXlXlXlXlXlXlXlX"
}
#endif
;
