/* XPM */
extern const char *lookup[] 
#ifdef XPM_SOURCE
= {
/* columns rows colors chars-per-pixel */
"48 48 203 2",
"   c #0D0D0D",
".  c #100F0F",
"X  c #151414",
"o  c #181717",
"O  c #1C1B1B",
"+  c #311A0E",
"@  c #3B1E0E",
"#  c #2F1F17",
"$  c #201F1F",
"%  c #311E14",
"&  c #3F200F",
"*  c #2F231D",
"=  c #332016",
"-  c #3E2110",
";  c #372318",
":  c #3B261C",
">  c #201F20",
",  c #242323",
"<  c #2B2524",
"1  c #2C2B2B",
"2  c #352823",
"3  c #3D2D24",
"4  c #302E2F",
"5  c #392F2A",
"6  c #37302E",
"7  c #2E2E30",
"8  c #312F30",
"9  c #343233",
"0  c #393636",
"q  c #373638",
"w  c #393738",
"e  c #3C3A3B",
"r  c #43220F",
"t  c #48230F",
"y  c #452716",
"u  c #4B2510",
"i  c #4E2B17",
"p  c #462B1C",
"a  c #4E2B19",
"s  c #502711",
"d  c #532912",
"f  c #5B2D14",
"g  c #522E1B",
"h  c #52311F",
"j  c #5B3119",
"k  c #602F15",
"l  c #653216",
"z  c #6C3517",
"x  c #64341A",
"c  c #69371C",
"v  c #64381F",
"b  c #6E381A",
"n  c #703717",
"m  c #703718",
"M  c #753A1A",
"N  c #7A3D1C",
"B  c #4C3325",
"V  c #45342A",
"C  c #5C3D2C",
"Z  c #423631",
"A  c #4D3B32",
"S  c #413E3E",
"D  c #493E39",
"F  c #623C27",
"G  c #6C3C22",
"H  c #623C28",
"J  c #753F21",
"K  c #7D401F",
"L  c #4C413C",
"P  c #5D4233",
"I  c #564339",
"U  c #5A463D",
"Y  c #63402D",
"T  c #7B4626",
"R  c #744429",
"E  c #7B4A2D",
"W  c #6E4935",
"Q  c #654B3C",
"!  c #7A4E35",
"~  c #704D3A",
"^  c #413F40",
"/  c #444243",
"(  c #484545",
")  c #4D4846",
"_  c #474749",
"`  c #494748",
"'  c #4C4B4B",
"]  c #504D4D",
"[  c #54504E",
"{  c #4E4E51",
"}  c #504F50",
"|  c #535253",
" . c #595656",
".. c #575759",
"X. c #595758",
"o. c #5B5A5B",
"O. c #694F40",
"+. c #615047",
"@. c #6A5041",
"#. c #775441",
"$. c #7A5946",
"%. c #745C4E",
"&. c #7D5F4E",
"*. c #645A55",
"=. c #6A5C55",
"-. c #605E5E",
";. c #685F5A",
":. c #67605C",
">. c #7F6354",
",. c #7C665A",
"<. c #5E5E61",
"1. c #615F60",
"2. c #646363",
"3. c #696767",
"4. c #6D6C6C",
"5. c #726660",
"6. c #756B66",
"7. c #796E67",
"8. c #716F6F",
"9. c #7E736D",
"0. c #716F70",
"q. c #747273",
"w. c #787676",
"e. c #7C7B7C",
"r. c #84411C",
"t. c #8A441D",
"y. c #91471E",
"u. c #95491F",
"i. c #834524",
"p. c #8A4723",
"a. c #8E4924",
"s. c #834B2C",
"d. c #8C4D2A",
"f. c #934B24",
"g. c #9C4E23",
"h. c #934F29",
"j. c #9D562F",
"k. c #814E32",
"l. c #8C5739",
"z. c #915331",
"x. c #9B5732",
"c. c #9D5933",
"v. c #9F5E3B",
"b. c #A14F22",
"n. c #A55022",
"m. c #AC5424",
"M. c #B15625",
"N. c #B55825",
"B. c #B25A29",
"V. c #BA5C29",
"C. c #9F613E",
"Z. c #A1613D",
"A. c #BA6637",
"S. c #B6683C",
"D. c #B8683D",
"F. c #C26634",
"G. c #825841",
"H. c #8D5C41",
"J. c #82604D",
"K. c #89624C",
"L. c #826352",
"P. c #8C6A57",
"I. c #826758",
"U. c #846A5C",
"Y. c #836F65",
"T. c #837167",
"R. c #8E7161",
"E. c #83766F",
"W. c #8A7468",
"Q. c #837872",
"!. c #8A7C74",
"~. c #CB7545",
"^. c #C57549",
"/. c #CD7A4C",
"(. c #CE7D50",
"). c #B8875E",
"_. c #817F80",
"`. c #848383",
"'. c #898788",
"]. c #8D8B8C",
"[. c #918E8F",
"{. c #918F90",
"}. c #959293",
"|. c #989697",
" X c #9D9B9C",
".X c #A09D9E",
"XX c #A19FA0",
"oX c #A5A3A3",
"OX c #A8A6A7",
"+X c #AAA7A8",
"@X c #AEABAC",
"#X c #B0AEAF",
"$X c #B4B2B3",
"%X c #B8B6B7",
"&X c #B9B7B8",
"*X c #BCBABB",
"=X c #C0BEBF",
"-X c #C1BFC0",
";X c #C4C2C3",
":X c #C8C6C7",
">X c #C9C7C8",
",X c #CDCACB",
"<X c None",
/* pixels */
"<X<X<X<X<X<X<X<X<X<X<X<X<X<X<X<X<X<X<X<X<X<X<X<X<X<X<X<X<X<X<X<X<X<X<X<X<X<X<X<X<X<X<X<X<X<X<X<X",
"<X<X<X<X<X<X<X<X<X<X<X<X<X<X<X<X<X<X<X<X<X<X<X<X<X<X<X<X<X<X<X<X<X<X<X<X<X<X<X<X<X<X<X<X<X<X<X<X",
"<X<X<X<X<X<X<X<X<X<X<X<X<X<X<X<X<X<X<X<X<X<X<X<X<X<X<X<X<X<X<X<X<X<X<X<X<X<X<X<X<X<X<X<X<X<X<X<X",
"<X<X<X<X<X<X<X<X<X<X<X<X<X<X<X<X<X<X<X<X<X<X<X<X<X<X<X<X<X<X<X<X<X<X<X<X<X<X<X<X<X<X<X<X<X<X<X<X",
"<X<X<X<X<X<X<X<X<X<X<X<X<X<X<X<X<X<X<X<X<X<X<X<X<X<X<X<X<X<X<X<X<X<X<X<X<X<X<X<X<X<X<X<X<X<X<X<X",
"<X<X<X<X<X<X<X<X<X<X<X<X<X<X<X<X<X<X<X<X<X<X<X<X<X<X<X<X<X<X<X<X<X<X<X<X<X<X<X<X<X<X<X<X<X<X<X<X",
"<X<X<X<X<X<X<X<X<X<X<X<X<X<X<X<X<X<X<X<X<X<X<X<X<X<X<X<X<X<X<X<X<X<X<X<X<X<X<X<X<X<X<X<X<X<X<X<X",
"<X<X<X<X<X<X<X<X<X<X<X<X<X<X<X<X<X<X<X<X<X<X<X<X<X<X<X<X<X<X<X<X<X<X<X<X<X<X<X<X<X<X<X<X<X<X<X<X",
"<X<X<X<X<X<X<X<X<X<X<X<X<X<X<X<X<X<X<X<X<X<X<X<X<X<X<X<X<X<X<X<X<X<X<X<X<X<X<X<X<X<X<X<X<X<X<X<X",
"<X<X<X<X<X<X<X<X<X<X<X<X<X<X<X<X<X<X<X<X<X<X<X<X<X<X<X<X<X<X<X<X<X<X<X<X<X<X<X<X<X<X<X<X<X<X<X<X",
"<X<X<X<X<X<X<X<X<X<X<X<X<X<X<X<X<X<X<X<X<X<X<X<X<X<X<X<X<X<X<X<X<X<X<X<X<X<X<X<X<X<X<X<X<X<X<X<X",
"<X<X<X<X<X<X<X<X<X<X<X<X<X<X<X<X<X<X<X<X<X<X<X<X<X<X<X<X<X<X<X<X<X<X<X<X<X<X<X<X<X<X<X<X<X<X<X<X",
"<X<X<X<X<X<X<X<X<X<X<X<X<X<X-XoXq.<X<X<X<X<X<X<X<X<X<X<X<X<X<X_.+X;X<X<X<X<X<X<X<X<X<X<X<X<X<X<X",
"<X<X<X<X<X<X<X<X<X<X<X<X<Xq.2.} e e <X<X<X<X<X<X<X<X<X<X<X<Xw ` o.w.`.<X<X<X<X<X<X<X<X<X<X<X<X<X",
"<X<X<X<X<X<X<X<X<X<X<X<X'.q.] e X > <X<X<X<X<X<X<X<X<X<X<X<XX o e | e.].<X<X<X<X<X<X<X<X<X<X<X<X",
"<X<X<X<X<X<X<X<X<X<X<X'.}.8.w 1 9 O <X<X<X<X<X<X<X<X<X<X<X, $ 9 1 e q.}.<X<X<X<X<X<X<X<X<X<X<X<X",
"<X<X<X<X<X<X<X<X<X<X<X|.}.o.9 9 / S 9 <X<X<X<X<X<X<X<X<X<X8 ^ ^ 9 9 2.|.}.<X<X<X<X<X<X<X<X<X<X<X",
"<X<X<X<X<X<X<X<Xq.` |  X}...9 / ` / w 4 <X/ 7 7 q ..4.<X8 e / ' ^ w o.}. Xo.4.|.<X<X<X<X<X<X<X<X",
"<X<X<X<X<X<X@XOX!...`.'.' e ( 2.| / w 8 9 / , _ { { 4./ 8 e / ..1.^ e | {.'.'.@X$X#X<X<X<X<X<X<X",
"<X<X<X<X<X@X&X$X].4. .q w w ' w  .( w 9 7 e _ <.<.o./ 7 8 e ' | e ` w w 9 2.|.$X&X*X<X<X<X<X<X<X",
"<X<X<X<X<X@X-X%X|.0./ q q e e w 9 ( ^ 9 ^ o.e.|.}.q.{ q 9 ^ / 8 e e e ^ e ( oX$X*X;X;X<X<X<X<X<X",
"<X<X<X<X%X$X$X_.<.e 9 7 9 q e e e 9 w e { <. X@X@XXX.._ w w 9 e e e e e ^ / | q.[.&X>X,X<X<X<X<X",
"<X<X<X<X X}.q.4.1.{ ^ 9 , 1 7 q e e q 8 ^ <.}.#X-XOX..w 8 q S e e e e / 0.].oX@X$X@X&X,X<X<X<X<X",
"<X<X<X<Xq.OX X].q.o./ 7 o o , 7 w e e q 8 _ | {.{.<.e 8 w S e e e e q ' _.}. X@X%X;X>X].<X<X<X<X",
"<X<X<X|. X:X&X@X X`.2.e O . X , 4 w e e w 9 8 <X<X8 q w e e S e q q q _ 0.]. X+X%X-X,X X}.<X<X<X",
"<X<X*Xe. Xq.| ` } | | / , X X O < q e e e w 9 <X<X9 e e e e e e _ q 7 ^ { <. .| '  .w.oXe.=X<X<X",
"<X<X X9 O [ :.7.9.6.] , . O O 1 , 1 ^ ` w w 9 <X<X9 e w ' S e ^ 4.^ 1 X 1 ' o.5.6.:./ X 9  X<X<X",
"<X|.> S +.B P Q %.,.T.Q.'   * e , w `.].q.w w <X<Xq e '.|.'.' ] ).9 X ) e V P O.%.,.T.Q.9 ,  X<X",
"<X, S B r g F W ! >.I.T.E.L   / 9 X.].X. XS w <X<Xw | #X3.e.4. .3.. ] + r h Y ~ $.L.U.W.!.6 , <X",
", O L t d f c R ! $.J.I.Q y , O / ` '.,X{.e w <X<Xw e '.*X*X{ X.$ e y @ t j Y ! G.K.P.R.I.3 X <X",
"X / @ t m m M K s.s.E G T @ *   w ' _ | e e <X<X<X<Xe e | / ' `   L & G l l J s.l.H.H.! t r , O ",
"X L y f l T c.n.c.Z.C.z.).c = X , <X<X<X<X<X<X<X<X<X<X<X<X<X<X, o V t s s.C.C.v.n.j.i.T E u < X ",
"X S s z N r.t.f.x.d.N M N f ; O o <X<X<X<X<X<X<X<X<X<X<X<X<X<XX O V d l n N d.c.h.t.t.f.d.s < X ",
"X 1 h M f.g.m.M.m.n.u.f.K d 2 , <X<X<X<X<X<X<X<X<X<X<X<X<X<X<X<XO Z s K p.y.b.m.M.m.g.g.N a O X ",
"<XX Z z f.A.~./.(.^.D.h.n i w O <X<X<X<X<X<X<X<X<X<X<X<X<X<X<X<Xo e a z h.S.^././.~.A.f.b 2 O <X",
"<Xo < 3 r.n.V.F.F.B.n.t.l < / <X<X<X<X<X<X<X<X<X<X<X<X<X<X<X<X<X<X9 6 x t.g.B.F.F.V.m.t.; 1 O <X",
"<X<X, 1 = M n.M.M.n.y.j 5 :., <X<X<X<X<X<X<X<X<X<X<X<X<X<X<X<X<X<X, ( 0 v y.n.m.M.m.N # e 1 <X<X",
"<X<X<X1 e L p f l g I w.4.<X<X<X<X<X<X<X<X<X<X<X<X<X<X<X<X<X<X<X<X<X<X`  .U F J G C =.:.w <X<X<X",
"<X<X<X<X<X<Xo.2.3.w.q.<X<X<X<X<X<X<X<X<X<X<X<X<X<X<X<X<X<X<X<X<X<X<X<X<X<XX.4.8.q.e.<X<X<X<X<X<X",
"<X<X<X<X<X<X<X<X<X<X<X<X<X<X<X<X<X<X<X<X<X<X<X<X<X<X<X<X<X<X<X<X<X<X<X<X<X<X<X<X<X<X<X<X<X<X<X<X",
"<X<X<X<X<X<X<X<X<X<X<X<X<X<X<X<X<X<X<X<X<X<X<X<X<X<X<X<X<X<X<X<X<X<X<X<X<X<X<X<X<X<X<X<X<X<X<X<X",
"<X<X<X<X<X<X<X<X<X<X<X<X<X<X<X<X<X<X<X<X<X<X<X<X<X<X<X<X<X<X<X<X<X<X<X<X<X<X<X<X<X<X<X<X<X<X<X<X",
"<X<X<X<X<X<X<X<X<X<X<X<X<X<X<X<X<X<X<X<X<X<X<X<X<X<X<X<X<X<X<X<X<X<X<X<X<X<X<X<X<X<X<X<X<X<X<X<X",
"<X<X<X<X<X<X<X<X<X<X<X<X<X<X<X<X<X<X<X<X<X<X<X<X<X<X<X<X<X<X<X<X<X<X<X<X<X<X<X<X<X<X<X<X<X<X<X<X",
"<X<X<X<X<X<X<X<X<X<X<X<X<X<X<X<X<X<X<X<X<X<X<X<X<X<X<X<X<X<X<X<X<X<X<X<X<X<X<X<X<X<X<X<X<X<X<X<X",
"<X<X<X<X<X<X<X<X<X<X<X<X<X<X<X<X<X<X<X<X<X<X<X<X<X<X<X<X<X<X<X<X<X<X<X<X<X<X<X<X<X<X<X<X<X<X<X<X",
"<X<X<X<X<X<X<X<X<X<X<X<X<X<X<X<X<X<X<X<X<X<X<X<X<X<X<X<X<X<X<X<X<X<X<X<X<X<X<X<X<X<X<X<X<X<X<X<X",
"<X<X<X<X<X<X<X<X<X<X<X<X<X<X<X<X<X<X<X<X<X<X<X<X<X<X<X<X<X<X<X<X<X<X<X<X<X<X<X<X<X<X<X<X<X<X<X<X"
}
#endif
;
