/* XPM */

extern const char *method_public_decl[]
#ifdef XPM_SOURCE
={
"22 22 6 1",
". c None",
"# c #000000",
"b c #e0bc38",
"d c #e8ebe0",
"c c #f0dc5c",
"a c #fcfc80",
"......................",
"......................",
"......................",
"......................",
"......................",
"......................",
"..........##..........",
".........#aa##........",
"........#aaaaa#.......",
".......#aaaaab#.......",
".......#ccaabb#.......",
".......#cccbbb#.......",
".......#cccbb#........",
"........##cb#.........",
"..........##..........",
"......................",
"......................",
"......................",
"..........d...........",
"......................",
"......................",
"......................"}
#endif
;
