/* XPM */

extern const char *method_npublic_decl[]
#ifdef XPM_SOURCE
={
"22 22 5 1",
". c None",
"# c #000000",
"b c #0016a4",
"c c #0069be",
"a c #7186b4",
"......................",
"......................",
"......................",
"......................",
"......................",
"......................",
".........##...........",
"........#aa##.........",
".......#aaaaa#........",
"......#aaaaab#........",
"......#ccaabb#........",
"......#cccbbb#........",
"......#cccbb#.........",
".......##cb#..........",
".........##...........",
"......................",
"......................",
"......................",
"......................",
"......................",
"......................",
"......................"}
#endif
;
