/* XPM */

extern const char *method_npublic_defn[]
#ifdef XPM_SOURCE
={
"22 22 52 1",
". c None",
"S c #000000",
"U c #0016a4",
"V c #0069be",
"w c #2d2c29",
"q c #302e2b",
"x c #31302e",
"p c #3d3c39",
"z c #67655d",
"s c #696760",
"M c #6a6963",
"K c #6f6d65",
"T c #7186b4",
"J c #75736b",
"b c #7a7871",
"i c #7a7872",
"o c #7c7a74",
"n c #7c7b75",
"c c #7e7c76",
"j c #82807a",
"v c #83827c",
"R c #86857f",
"G c #87857e",
"k c #88857d",
"u c #888681",
"l c #8d8b83",
"r c #8d8b86",
"A c #8e8d86",
"L c #908e87",
"C c #94928b",
"D c #9a9993",
"e c #9b9a93",
"h c #9c9b94",
"F c #9f9d98",
"I c #a9a7a1",
"Q c #abaaa3",
"t c #aeaea6",
"d c #b3b3ab",
"E c #b7b6b3",
"H c #b8b7b1",
"y c #bab9b7",
"g c #bdbdb6",
"B c #bfbdb7",
"a c #c3c2bd",
"# c #c7c7c1",
"N c #d0cfc8",
"W c #d0d0c8",
"m c #d9d9d2",
"P c #dcdcd4",
"f c #dfded7",
"O c #e0e0d8",
"X c #e8ebe0",
"........#abcdef.......",
"........ghijklm.......",
"........nopqrst.......",
"........uvwxyzA.......",
"........BCDEFGf.......",
"........HIJKLMN.......",
"........OPQR#abcdef...",
"............ghijklm...",
".....SS.....nopqrst...",
"....STTSS...uvwxyzA...",
"...STTTTTS..BCDEFGf...",
"..STTTTTUS..HIJKLMN...",
"..SVVTTUUS..OPQRfW....",
"..SVVVUUUS............",
"..SVVVUUS.............",
"...SSVUS..............",
".....SS...............",
"......................",
"..........X...........",
"......................",
"......................",
"......................"}
#endif
;
