/* XPM */

extern const char *project[]
#ifdef XPM_SOURCE
={
"22 22 156 2",
"Qt c None",
".a c #000000",
".6 c #010101",
"#e c #040404",
"#c c #050505",
"## c #070707",
"#a c #080808",
"#u c #090909",
"#3 c #0a0908",
"#g c #0a0a0a",
"#h c #0b0b0b",
"a# c #0c0c0c",
"#7 c #0d0d0d",
"#W c #0e0e0e",
"aq c #0f0f0f",
"ap c #101010",
"#V c #111111",
"#8 c #161614",
".C c #171614",
"#4 c #181816",
"al c #202020",
"#2 c #21201e",
"aj c #232322",
"#S c #282724",
"#t c #2a2a2a",
"#T c #363430",
".t c #403f3b",
".3 c #42413c",
"#R c #43423f",
"#q c #484641",
"ak c #494943",
".F c #52504a",
".B c #53524e",
".X c #54534d",
"#I c #595854",
"ai c #5d5c55",
".W c #5f5d56",
"#J c #605e57",
"au c #616160",
"#6 c #65635c",
".s c #67655f",
".u c #686661",
".Y c #696969",
".U c #6b6964",
"#U c #6d6b63",
"ar c #747473",
"af c #757575",
"#L c #76746b",
".D c #767573",
".V c #78756c",
"ao c #787877",
"am c #7a7974",
".r c #7b7973",
".J c #7b7a75",
"aa c #7b7b7a",
".v c #7c7a72",
".N c #7d7b75",
"#M c #7d7d7c",
"an c #7f7f7e",
"ab c #7f7f7f",
"#F c #807d74",
".n c #838078",
"#. c #858584",
".K c #86847d",
"as c #878786",
"#s c #888781",
".l c #898781",
"#K c #898883",
".T c #8b8984",
"#9 c #8c8b89",
".4 c #8d8d8d",
".m c #8e8c85",
"#D c #908e86",
"az c #90908e",
".o c #909090",
"ae c #93918b",
"#E c #97958e",
".k c #97958f",
"#f c #999999",
".A c #9a9992",
".L c #9a9996",
".E c #9b9993",
"#b c #9d9d9c",
"#r c #9f9d96",
"#Y c #9f9f9f",
"#C c #a8a7a1",
"#Z c #a8a8a7",
".# c #a9a9a9",
"ah c #aba9a3",
".g c #acacac",
"#0 c #adadad",
"#H c #aeaead",
"#n c #afafaf",
"ac c #b0afa9",
"#B c #b0afad",
"ay c #b1b1af",
".b c #b1b1b1",
".O c #b2b2b2",
"#p c #b3b3b1",
"#1 c #b6b5af",
".M c #b7b6b3",
"#N c #b8b8b7",
".c c #b9b9b9",
"#m c #bababa",
".G c #bbbbbb",
"#G c #bebebd",
".9 c #c1c1c0",
"#i c #c4c4c3",
".5 c #c5c5c5",
".w c #cccccc",
"#X c #cececd",
".f c #cfceca",
"ax c #cfcfcd",
"#l c #cfcfcf",
"at c #d2d2d0",
"ad c #d5d4d1",
"#v c #d5d5d5",
"ag c #d6d5d2",
"#A c #d9d9d8",
"av c #dbdbd9",
".z c #dddcdb",
".p c #dddddd",
".P c #dedede",
"a. c #dfdedc",
"#z c #dfdfde",
"aw c #e0e0de",
"#k c #e0e0e0",
".j c #e1e1e0",
".Z c #e1e1e1",
".8 c #e2e2e1",
"#o c #e2e2e2",
"#d c #e4e3e1",
".S c #e4e4e4",
".H c #e5e5e4",
"#5 c #e6e6e4",
"#y c #ebebea",
".x c #eeeeee",
"#P c #efefee",
".2 c #efefef",
"#Q c #f0f0ef",
".h c #f0f0f0",
"#O c #f1f1f0",
"#x c #f2f2f1",
".d c #f2f2f2",
"#w c #f4f4f3",
".0 c #f4f4f4",
".q c #f5f5f4",
"#j c #f5f5f5",
".Q c #f6f6f6",
".I c #f7f7f7",
".7 c #f8f8f7",
".R c #f8f8f8",
".1 c #f9f9f9",
".y c #fafafa",
".i c #fbfbfb",
".e c #fdfdfd",
"QtQtQtQtQt.#.a.a.a.b.c.dQtQtQtQtQtQtQtQt.eQt",
"QtQtQtQt.a.a.a.f.a.a.a.g.h.i.eQtQtQtQtQt.eQt",
"QtQtQtQt.a.j.k.l.m.n.a.o.p.q.iQtQtQtQtQtQtQt",
"QtQtQt.a.a.r.s.t.u.v.a.a.w.x.yQtQtQtQtQtQtQt",
"QtQtQt.a.z.A.B.C.D.E.F.a.G.H.IQtQt.hQtQtQtQt",
"QtQt.I.a.a.J.K.L.M.N.a.a.O.P.Q.y.y.y.y.yQtQt",
".y.y.R.S.a.T.U.V.W.X.a.Y.c.Z.0.I.R.1.y.yQtQt",
".1.1.R.2.a.a.a.3.a.a.a.4.5.6.6.6.S.h.Q.I.RQt",
".7.7.7.q.8.9.a.a.a#.###a#b#c#d#e#f#g#h#iQtQt",
".Q.Q.Q#j.x#k#l#m#n#a#o#p#a#q#r#q#a#s#t#u#vQt",
".q.q.q.q#w#x#y#z#A#g#B#C#r#r#r#D#E#F#q#a#GQt",
"QtQtQtQtQtQtQtQtQt#H#u#r#r#I#J#K#F#L###M#NQt",
"Qt#x#x#O#P#P#P#Q.6.6#q#r#J#R#S#T#r#U#q#V#WQt",
"Qt#X#Y.a.a.a#Z#0.6.8#1#r#I#2#3#4#5#F#6#J#7Qt",
"QtQt.a.a.f.a.a.a.6#e#q#r#K#T#8#9a.#6#qa##7Qt",
"Qt.a.j.k.l.m.n.aaaab##ac#F#1#5adae#6##afQtQt",
".a.a.r.s.t.u.v.a.a#aagah#r#F#F#L#Lai#q##QtQt",
".a.z.A.B.C.D.E.F.a##aj#I#c#q#L#q##akal##QtQt",
".a.aam.K.L.M.N.a.aan#a#aaoap.3aqar####asQtQt",
"at.a.T.U.V.W.X.aauQtQtQtQtQta##h#bQtQtQtQtQt",
"av.a.a.a.3.a.a.aQtQtQt.eQtQtQtQtQtQtQt.e.eQt",
"awaxay.a.a.aazQtQtQtQtQtQtQtQtQtQtQtQtQtQtQt"}
#endif
;
