/* XPM */
extern const char *setdomain[] 
#ifdef XPM_SOURCE
= {
/* columns rows colors chars-per-pixel */
"48 48 256 2",
"   c #061E0F",
".  c #08230C",
"X  c #07220B",
"o  c #143B0E",
"O  c #14320E",
"+  c #0C2D11",
"@  c #0D2C1A",
"#  c #112712",
"$  c #1A3E10",
"%  c #153D1A",
"&  c #193C2B",
"*  c #243723",
"=  c #144C0F",
"-  c #17550F",
";  c #1E4712",
":  c #174916",
">  c #174818",
",  c #1D521C",
"<  c #234C1C",
"1  c #21431A",
"2  c #27531F",
"3  c #235C1C",
"4  c #255416",
"5  c #1F7317",
"6  c #2D641A",
"7  c #356D18",
"8  c #3B7618",
"9  c #2D670D",
"0  c #1B412E",
"q  c #234924",
"w  c #2B5B22",
"e  c #22512E",
"r  c #34542C",
"t  c #3C5232",
"y  c #2A6428",
"u  c #35652A",
"i  c #3B7E20",
"p  c #2A7921",
"a  c #437D19",
"s  c #4C7B2F",
"d  c #4C6B3A",
"f  c #426735",
"g  c #4D733B",
"h  c #467439",
"j  c #547D3D",
"k  c #2E5A49",
"l  c #356A47",
"z  c #3F7E4C",
"x  c #555658",
"c  c #577846",
"v  c #457D58",
"b  c #4A7B42",
"n  c #647E50",
"m  c #477A6E",
"M  c #447673",
"N  c #3E8522",
"B  c #49851B",
"V  c #4E8B1D",
"C  c #448018",
"Z  c #54901F",
"A  c #448F24",
"S  c #559220",
"D  c #5A9722",
"F  c #5E9B24",
"G  c #5C942C",
"H  c #548533",
"J  c #59893A",
"K  c #5F9039",
"L  c #4D8F2A",
"P  c #609E25",
"I  c #64943D",
"U  c #6A9B3C",
"Y  c #4DA128",
"T  c #50A829",
"R  c #5EBC2E",
"E  c #58B52D",
"W  c #5CBA30",
"Q  c #64A227",
"!  c #66A429",
"~  c #6CAB2B",
"^  c #68A729",
"/  c #70AF2D",
"(  c #75B52F",
")  c #71A43B",
"_  c #77AF3A",
"`  c #62BE30",
"'  c #76B433",
"]  c #7CBB32",
"[  c #7FBB39",
"{  c #3F8155",
"}  c #3E864B",
"|  c #5F8942",
" . c #5B8447",
".. c #4B825F",
"X. c #64854A",
"o. c #669542",
"O. c #689643",
"+. c #6A9943",
"@. c #66914E",
"#. c #6C964C",
"$. c #6E984C",
"%. c #6F9951",
"&. c #6B9356",
"*. c #739A55",
"=. c #769B5C",
"-. c #789858",
";. c #678755",
":. c #6EA046",
">. c #72A447",
",. c #73A158",
"<. c #7CA95D",
"1. c #76A254",
"2. c #4B8665",
"3. c #518C6C",
"4. c #5A9577",
"5. c #7A9C62",
"6. c #7E9F68",
"7. c #6F9F79",
"8. c #7FA069",
"9. c #7DA163",
"0. c #75C64C",
"q. c #83C436",
"w. c #8ACB39",
"e. c #8AAB5D",
"r. c #8EB45A",
"t. c #82A666",
"y. c #86AA67",
"u. c #86A470",
"i. c #8EAB78",
"p. c #8DAE75",
"a. c #94B87A",
"s. c #767F84",
"d. c #548989",
"f. c #5D9881",
"g. c #5D969D",
"h. c #619996",
"j. c #7D929D",
"k. c #69A38D",
"l. c #5F9AA1",
"z. c #538FB5",
"x. c #5799B7",
"c. c #5C9BBB",
"v. c #5794B9",
"b. c #639DA3",
"n. c #669DBE",
"m. c #5FA0BB",
"M. c #66A4AA",
"N. c #6AA5AB",
"B. c #6CA9AE",
"V. c #68A4A4",
"C. c #6DACB1",
"Z. c #62A3BE",
"A. c #69AABF",
"S. c #68A6B4",
"D. c #72AEB3",
"F. c #79ACBF",
"G. c #6EB0B4",
"H. c #74B1B6",
"J. c #79B5B2",
"K. c #76B5B9",
"L. c #79B5BA",
"P. c #7CBABE",
"I. c #75B1AA",
"U. c #639FC1",
"Y. c #6D9FC0",
"T. c #66A3C1",
"R. c #6BABC4",
"E. c #67A8C0",
"W. c #7AAEC1",
"Q. c #73A6C1",
"!. c #7DB2C5",
"~. c #7DBBC2",
"^. c #74B2C8",
"/. c #8F9A9E",
"(. c #818788",
"). c #80AA88",
"_. c #97B280",
"`. c #A1B888",
"'. c #A9BF91",
"]. c #8EA0AA",
"[. c #9CA5A7",
"{. c #9EB4B5",
"}. c #A1ACAD",
"|. c gray68",
" X c #AAB3B4",
".X c #ABB5B5",
"XX c #BDBDBD",
"oX c #B3B8B9",
"OX c #A8DB8E",
"+X c #B1C698",
"@X c #B2DF9B",
"#X c #B5E19F",
"$X c #BACCA1",
"%X c #C8D9B0",
"&X c #80ACC5",
"*X c #81BEC2",
"=X c #81B7C9",
"-X c #84BBCB",
";X c #88BFCE",
":X c #85B3C9",
">X c #97B9CC",
",X c #A1BEC0",
"<X c #AEBFC0",
"1X c #84C2C5",
"2X c #8BC6C7",
"3X c #85C3CB",
"4X c #89C4CB",
"5X c #8DCACD",
"6X c #90CCCF",
"7X c #8CC3D1",
"8X c #93CED1",
"9X c #96D0D3",
"0X c #9BD2D4",
"qX c #A5C2C4",
"wX c #A4C4CC",
"eX c #A7CCCD",
"rX c #BDC0C0",
"tX c #ABD5CF",
"yX c #ADCAD3",
"uX c #A7C2D3",
"iX c #B5CAD6",
"pX c #BBCED8",
"aX c #AEDADC",
"sX c #A6D6D8",
"dX c #B3D1D9",
"fX c #B3DCDE",
"gX c #BDD5DA",
"hX c #B5DEE0",
"jX c #B8DFE0",
"kX c #BCE2E3",
"lX c #B7E0E2",
"zX c #C5C5C5",
"xX c #CCCCCC",
"cX c #C3D3DC",
"vX c #CBDBDE",
"bX c #C3D9DB",
"nX c #D5D5D5",
"mX c gainsboro",
"MX c #D0DADE",
"NX c #CEDAE0",
"BX c #D3DDE2",
"VX c #C3E4E5",
"CX c #C3E6E8",
"ZX c #CCEAEC",
"AX c #C7E8EA",
"SX c #DBE4E6",
"DX c #DEE7E8",
"FX c #D2ECED",
"GX c #DCEAEA",
"HX c #D4E5E6",
"JX c #E4E4E4",
"KX c #E4E9E9",
"LX c #EAEAEA",
"PX c #E6E7E8",
"IX c #F2F2F2",
"UX c None",
/* pixels */
"UXUXUXUXUXUXUXUXUXUXUXUXUXUXUXUXUXUXUXUXUXUXUXUXUXUXUXUXUXUXUXUXUXUXUXUXUXUXUXUXUXUXUXUXUXUXUXUX",
"UXUXUXUXUXUXUXUXUXUXUXUXUXUXUXUXUXUXUXUX` ` ` ` ` ` ` ` UXUXUXUXUXUXUXUXUXUXUXUXUXUXUXUXUXUXUXUX",
"UXUXUXUXUXUXUXUXUXUXUXUXUXUXUXUXUXUXOX#XR R R R ` ` R R 0.#XUXUXUXUXUXUXUXUXUXUXUXUXUXUXUXUXUXUX",
"UXUXUXUXUXUXUXUXUXUXUXUXUXUXUXUXUXUXW a.%X%X%X%X%X%X%X%Xa.` UXUXUXUXUXUXUXUXUXUXUXUXUXUXUXUXUXUX",
"UXUXUXUXUXUXUXUXUXUXUXUXUXUXUXUXUXUXE 9.$X$X$X$X$X$X$X$X<.E UXUXUXUXUXUXUXUXUXUXUXUXUXUXUXUXUXUX",
"UXUXUXUXUXUXUXUXUXUXUXUXUXUXUXUXUXUXT ,.+X+X+X+X+X+X+X+X,.Y UXUXUXUXUXUXUXUXUXUXUXUXUXUXUXUXUXUX",
"UXUXUXUXUXUXUXUXUXUXUXUXUXUXUXUXUXUXA %.+X+X+X+X'.'.+X'.%.A UXUXUXUXUXUXUXUXUXUXUXUXUXUXUXUXUXUX",
"UXUXUXUXUXUXUXUXUXUXUXUXUXUXUXUXUXUXN #._.`._._.`.`.`._.@.i UXUXUXUXUXUXUXUXUXUXUXUXUXUXUXUXUXUX",
"UXUXUXUXUXUXUXUXUXUXUXUXUXUXUXUXUXUX8 | _._._._._._._._. .7 UXUXUXUXUXUXUXUXUXUXUXUXUXUXUXUXUXUX",
"UXUXUXUXUXUXUXUXUXUXDXLXLXLXLXLXLXLX6  .i.i.i.i.i.i.i.i. .3 LXLXLXLXLXLXLXDXUXUXUXUXUXUXUXUXUXUX",
"UXUXUXUXUXUXUXUXUXUXJXgXyXyXyXyXyXyX3 j u.u.u.u.u.u.u.u.c 4 dXdXdXdXdXdXGXPXUXUXUXUXUXUXUXUXUXUX",
"UXUXUXUXUXUXUXUXUXUXPXz.F.W.W.W.W.!.< g 6.6.6.6.6.6.6.6.g ; -X-X-X-X-X-XFXLXUXUXUXUXUXUXUXUXUXUX",
"UXUXUXUXUXUXUXUXUXBXpXv.W.W.!.!.!.!.; b 5.5.5.5.5.5.5.5.c $ -X-X-X;X;X;XFXKXGXUXUXUXUXUXUXUXUXUX",
"UXUXUXUXUXUXUXUXUXBX>Xv.!.!.!.&X!.!.$ d =.=.=.=.=.=.=.=.c O ;X;X7X7X;X7XFXGXPXUXUXUXUXUXUXUXUXUX",
"UXUXUXUXUXUXUXUXUXPXY.c.=X!.=X=X=X-X$ d &.*.*.*.*.*.-.*.c O ;X7X7X7X7X7XZXFXLXUXUXUXUXUXUXUXUXUX",
"UXUXUXUXUXUXUXUXUXSXv.U.=X=X=X=X-X-X- d #.#.$.%.*.%.%.%.n o 7X7X7X7X7X8XZXFXPXUXUXUXUXUXUXUXUXUX",
"UXUXUXUXUXUXUXUXNXiXc.U.4.......z } 5 g #.#.#.$.$.$.#.#.;.= z z v ..2.4.CXZXKXGXUXUXUXUXUXUXUXUX",
"UXUXUXUXUXUXUXUXSX:XU.2.i y w q < 3 p J o.+.O.+.+.#.+.o.&.6 ; 0 < 2 2 6 ).ZXGXPXUXUXUXUXUXUXUXUX",
"UXUXUXUXUXUXUXUXKXU.T.z v u.5.9.t.y.y.*.I I O.O.O.U O.I -.a.a.p.6.X.&.y 7.AXFXLXUXUXUXUXUXUXUXUX",
"UXUXUXUXUXUXUXcXBXv.T.S.y u H H H H J K I I U U U :.<.e.1.L 8 7 9 7 w y tXCXAXPXGXUXUXUXUXUXUXUX",
"UXUXUXUXUXUXUXBX>XU.U.^.V.3 u J H J O.+.+.>.>.>.>.>.G V B C a 8 8 u q I.lXkXVXDXKXUXUXUXUXUXUXUX",
"UXUXUXUXUXUXUXLX:XU.R.^.9Xk., h 8 a a B V S D D D D S Z V B a a h > k.0XfXlXVXZXLXUXUXUXUXUXUXUX",
"UXUXUXUXUXUXpXPXc.T.R.;X9X9X3.>  .a B V S D F P P P P D Z V C j = 2.9X9XsXlXkXVXLXSXUXUXUXUXUXUX",
"UXUXUXUXUXUXcXcXx.T.R.7X9X9X9Xl : J B Z D P Q ! ^ ^ P P D Z K ; l 8X8X9X9XaXjXkXKXDXUXUXUXUXUXUX",
"UXUXUXUXUXUXSX>Xc.Z.^.5X5X8X5X2Xe q I Z P P ^ / / / ^ ! P o.q q 2X5X5X8X5XsXaXjXHXLXUXUXUXUXUXUX",
"UXUXUXUXUXUXLXQ.m.E.~.4X5X5X5X5XJ.% r U P ~ / ( ( ' / ~ ) r % J.5X5X5X5X8X0XaXfXVXLXUXUXUXUXUXUX",
"UXUXUXUXUXiXJXx.m.A.~.3X3X1X2X1X2Xh.O d ) / ( ] ] ] ( _ d + h.=X1X4X3X5X2X8XsXaXfXLXSXUXUXUXUXUX",
"UXUXUXUXUXNXpXx.m.A.1X1X1X1X1X*X^.{.m # n ' ( q.q.q.[ n   m L.L.~.*X1X1X1X1X0XsXfXSXPXUXUXUXUXUX",
"UXUXUXUXUXLXpXwX<XuXuXP.*X*X*XP.K.K.H.k # t.] q.w.q.t.  k D.J.L.L.{.~.~.P.eXgXbXbXSXJXUXUXUXUXUX",
"UXUXUXUXMXLXLXPXLXLXxX XH.~.~.P.K.G.H.B.& # e.[ w.e.# & N.N.D.D.H.P.~.G.$XPXLXPXLXLXLXJXUXUXUXUX",
"UXUXUXUX].XXXXXXXXXX<X|.}.G.P.K.H.H.B.B.h.@ * r.r.* # b.b.N.D.D.H.L.D.{.GX<XXXXXXXXXXXoXUXUXUXUX",
"UXUXUXUX/.zX<XzXXXzXzX%X|.}.B.K.H.C.B.N.b.d.  t f   d.b.b.N.N.D.F.S.{.JXxXzXzXzXrXzXzX[.UXUXUXUX",
"UXUXUXUXUXzXxXzXzXxXzXzXzX|.}.B.D.C.S.M.b.l.M @ , M g.g.M.M.B.C.B.{.PXxXxXzXxXzXzXxXxXUXUXUXUXUX",
"UXUXUXUXUXxXxXxXxXxXxXxXxXxX|.}.B.C.C.B.M.M.l.g.g.l.l.l.M.B.B.M.{.JXxXxXxXxXxXxXxXxXxXUXUXUXUXUX",
"UXUXUXUXUXxXnXnXnXnXnXnXnXnXxX|..XwX<X<X,XqX,X,X,X,X,XqXqXqXqXoXPXnXnXnXxXnXnXxXxXxXxXUXUXUXUXUX",
"UXUXUXUXUXXXnXmXnXnXnXnXnXnXnXnXxXLXLXLXPXLXPXLXLXPXLXPXLXLXLXLXnXnXnXnXnXnXmXnXmXnX%XUXUXUXUXUX",
"UXUXUXUXUX XmXmXmXmXmXmXmXmXmXmXmXmXmXmXmXmXmXmXmXmXmXmXmXmXmXmXmXmXmXmXmXmXmXmXmXmXoXUXUXUXUXUX",
"UXUXUXUXUX[.mXJXJXJXmXJXJXJXJXmXJXJXJXmXJXmXJXJXBXJXJXmXmXJXJXmXJXJXJXJXJXmXJXJXmXJX XUXUXUXUXUX",
"UXUXUXUXUX/.mXJXJXJXLXPXPXLXJXJXPXJXLXLXJXJXPXJXPXLXPXLXLXLXJXLXJXLXJXLXJXPXPXLXJXPX[.UXUXUXUXUX",
"UXUXUXUXUXj.LXLXLXLXLXLXLXLXLXLXLXLXLXLXLXLXLXLXLXLXLXLXLXLXLXLXLXLXLXLXLXLXLXLXLXLX(.UXUXUXUXUX",
"UXUXUXUXUXx LXLXIXIXLXIXIXIXIXLXIXLXIXIXIXIXLXIXIXIXLXLXIXIXLXLXIXIXLXLXIXIXLXLXIXIXx UXUXUXUXUX",
"UXUXUXUXUXUXIXLXIXIXIXLXIXIXIXIXLXLXIXIXIXIXIXLXIXIXIXLXIXIXIXLXIXIXIXLXIXIXIXLXIXIXUXUXUXUXUXUX",
"UXUXUXUXUXUX                                                                        UXUXUXUXUXUX",
"UXUXUXUXUXUXUXUXUXUXUXUXUXUXUXUXUXUXUXUXUXUXUXUXUXUXUXUXUXUXUXUXUXUXUXUXUXUXUXUXUXUXUXUXUXUXUXUX",
"UXUXUXUXUXUXUXUXUXUXUXUXUXUXUXUXUXUXUXUXUXUXUXUXUXUXUXUXUXUXUXUXUXUXUXUXUXUXUXUXUXUXUXUXUXUXUXUX",
"UXUXUXUXUXUXUXUXUXUXUXUXUXUXUXUXUXUXUXUXUXUXUXUXUXUXUXUXUXUXUXUXUXUXUXUXUXUXUXUXUXUXUXUXUXUXUXUX",
"UXUXUXUXUXUXUXUXUXUXUXUXUXUXUXUXUXUXUXUXUXUXUXUXUXUXUXUXUXUXUXUXUXUXUXUXUXUXUXUXUXUXUXUXUXUXUXUX",
"UXUXUXUXUXUXUXUXUXUXUXUXUXUXUXUXUXUXUXUXUXUXUXUXUXUXUXUXUXUXUXUXUXUXUXUXUXUXUXUXUXUXUXUXUXUXUXUX"
}
#endif
;
