/* XPM */

extern const char *source_c[]
#ifdef XPM_SOURCE
={
"22 22 111 2",
"#N c None",
"Qt c None",
"#S c #000000",
"#R c #000000",
"#Q c #000000",
"#L c #000000",
"#O c #000000",
"#M c #000000",
".n c #6148e2",
".l c #644de1",
".m c #644de2",
".C c #654edc",
".k c #6650e1",
".B c #6852dc",
".A c #6853dc",
".z c #6b56dc",
".j c #6c58e4",
".y c #705dde",
".i c #7062e7",
".x c #7566e1",
".h c #776ce9",
".w c #7970e4",
".g c #7b74eb",
".v c #7f78e6",
".f c #807cee",
".u c #8481e8",
".e c #8484f0",
".t c #8787ea",
".d c #8a8ef1",
".o c #8c78f5",
".s c #8d91eb",
".c c #8d95f2",
".D c #8e7bef",
".r c #9098ec",
".# c #979797",
".q c #a4adf2",
".b c #a4aef7",
"#B c #bcbcbc",
"#G c #bdbdbd",
"#k c #bebebe",
"#E c #c1c1c1",
"#I c #c2c2c2",
".p c #c2caf9",
"#g c #c3c3c3",
"#o c #c4c4c4",
"#r c #c6c6c6",
"#j c #c7c7c7",
"#a c #c8c8c8",
"#y c #c9c9c9",
"#f c #cacaca",
"## c #cccccc",
"#b c #cdcdcd",
".a c #ced7ff",
"#F c #d0d0d0",
"#s c #d1d1d1",
"#h c #d2d2d2",
"#l c #d3d3d3",
"#C c #d4d4d4",
"#x c #d5d5d5",
"#v c #d6d6d6",
"#i c #d7d7d7",
"#. c #dcdcdc",
"#K c #dddddd",
"#D c #e0e0e0",
"#c c #e1e1e1",
"#p c #e5e5e5",
"#J c #e6e6e6",
"#A c #e8e8e8",
"#P c #eaeaea",
"#H c #ebebeb",
"#u c #ececec",
".S c #eeecf6",
"#q c #eeeeee",
".R c #efecf6",
"#n c #efefef",
".Q c #f0eff7",
"#z c #f0f0f0",
".P c #f1eff7",
"#d c #f1f1f1",
".O c #f2f1fa",
"#t c #f2f2f2",
"#m c #f3f3f3",
".N c #f4f2fa",
".M c #f4f3fc",
".8 c #f4f4f4",
".9 c #f5f5f5",
".L c #f6f4fd",
".7 c #f6f6f6",
".K c #f7f6fe",
".6 c #f7f7f7",
".5 c #f9f9f9",
".J c #f9f9ff",
".1 c #f9faf6",
".0 c #fafaf7",
"#w c #fafafa",
".I c #fafaff",
".E c #fafbff",
".Z c #fbfbf9",
".4 c #fbfbfb",
".H c #fbfbff",
".F c #fbfcff",
".T c #fcfbff",
".3 c #fcfcfc",
".G c #fcfcff",
".Y c #fcfdfa",
".X c #fdfdfb",
".2 c #fdfdfd",
"#e c #fefefe",
".W c #fefffd",
".V c #fffffe",
".U c #ffffff",
"Qt.#.#.#.#.#.#.#.#.#.#.#.#.#.#.#.#.#.#.#.#Qt",
"Qt.#.a.b.c.d.e.f.g.h.i.j.k.l.l.m.m.m.n.o.#Qt",
"Qt.#.p.q.r.s.t.u.v.w.x.y.z.A.A.A.B.B.C.D.#Qt",
"Qt.#.E.F.G.G.F.H.I.J.K.L.M.N.O.P.Q.R.S.T.#Qt",
"Qt.#.U.U.U.U.U.U.U.U.U.U.V.W.X.Y.Z.0.1.U.#Qt",
"Qt.#.U.U.U.U.U.U.U.U.2.3.3.2.4.5.6.7.8.2.#Qt",
"Qt.#.U.U.U.U.U.U.9#.###a#b#c.5.5.6.9#d#e.#Qt",
"Qt.#.U.U.U.U.U.9#f#g#h#i#j#k#l.7.6#m#n.U.#Qt",
"Qt.#.U.U.U.U.U#l#o#p#e.U#d#a#j#q.7#d#d.U.#Qt",
"Qt.#.U.U.U.U#m#r#s#e.2.4.4#m.8.8#m#t#t.U.#Qt",
"Qt.#.U.U.U.U#u#g#v.2.3#w#w.5.7#m#m.8.8.U.#Qt",
"Qt.#.U.U.U.U#u#g#x.2.4#w.6.7.6.7.9.9.9.U.#Qt",
"Qt.#.3.U.U.U#t#o#y.6.4.6.6#v#x#z.6.7.7.U.#Qt",
"Qt.#.6#u#A.9#w#h#B#C#m.7#D#k#E#d#w.5#w.U.#Qt",
"Qt.#.4#F#G#H.3.8#b#G#I#r#k#g#J.3.4.4.4.U.#Qt",
"Qt.#.4#J#K.8.3.3.6#p#i#x#K#z.#.#.#.#.#.#.#Qt",
"Qt.#.3#e.U.3.3.3.2.U#e.3.U#e.#.9.2.2.U.##LQt",
"Qt.#.2.2.2.2.2.2.2.2.2.2.2.2.#.8#e.U.##M#NQt",
"Qt.##e#e#e#e#e#e#e#e#e#e#e.U.##u.U.##O#N#NQt",
"Qt.#.U.U.U.U.U.U.U.U.U.U.U.U.##P.##Q#N#N#NQt",
"Qt.#.U.U.U.U.U.U.U.U.U.U.U.U.#.##R#N#N#N#NQt",
"Qt.#.#.#.#.#.#.#.#.#.#.#.#.#.##S#N#N#N#N#NQt"}
#endif
;
