/* XPM */
extern const char *target[] 
#ifdef XPM_SOURCE
= {
/* columns rows colors chars-per-pixel */
"48 48 96 2",
"   c gray27",
".  c #4C4C4C",
"X  c #545454",
"o  c #5B5B5B",
"O  c #646464",
"+  c #6B6B6B",
"@  c #737373",
"#  c #7B7B7B",
"$  c #CE0207",
"%  c #D30307",
"&  c #D50408",
"*  c #DB0609",
"=  c #D0090E",
"-  c #DA0A0E",
";  c #D10F14",
":  c #D51014",
">  c #DE1215",
",  c #D51418",
"<  c #DA1618",
"1  c #D21A1E",
"2  c #DB1B1E",
"3  c #E3090B",
"4  c #EB0C0D",
"5  c #F10E0E",
"6  c #E41A1C",
"7  c #D41C20",
"8  c #DA1E22",
"9  c #D52125",
"0  c #DD2225",
"q  c #D5262A",
"w  c #D9272A",
"e  c #D72B2F",
"r  c #DD2A2E",
"t  c #D72F33",
"y  c #DF2C30",
"u  c #D63033",
"i  c #DC3034",
"p  c #DA3538",
"a  c #DA383C",
"s  c #E22224",
"d  c #E82022",
"f  c #E52628",
"g  c #E32B2D",
"h  c #EA2B2C",
"j  c #F02F2F",
"k  c #E22E30",
"l  c #E43334",
"z  c #EB3334",
"x  c #E33739",
"c  c #EF3738",
"v  c #E33B3D",
"b  c #EC3B3C",
"n  c #F23A3A",
"m  c #DC3D41",
"M  c #DB4145",
"N  c #DD4649",
"B  c #DB494D",
"V  c #DD4F52",
"C  c #DD5357",
"Z  c #E44245",
"A  c #E94344",
"S  c #E34A4D",
"D  c #E04F53",
"F  c #DE5D60",
"G  c #DF6264",
"H  c #E16265",
"J  c #E26B6D",
"K  c #E37476",
"L  c #838383",
"P  c #8C8C8C",
"I  c #939393",
"U  c #9A9A9A",
"Y  c #A4A4A4",
"T  c #ACACAC",
"R  c #B3B3B3",
"E  c #BEBEBE",
"W  c #E68385",
"Q  c #E78789",
"!  c #E88C8E",
"~  c #E99597",
"^  c #EBA0A1",
"/  c #EEADAF",
"(  c #C3C3C3",
")  c #CCCCCC",
"_  c #D4D4D4",
"`  c #DBDBDB",
"'  c #F3C5C6",
"]  c #F4CACB",
"[  c #F7D5D6",
"{  c #F7D9DA",
"}  c #E3E3E3",
"|  c #EBEBEB",
" . c #F4F4F4",
".. c #FCF1F1",
"X. c #FDFDFD",
"o. c None",
/* pixels */
"o.o.o.o.o.o.o.o.o.o.o.o.o.o.o.o.o.o.o.L P L L P L L P L L o.o.o.o.o.o.o.o.o.o.o.o.o.o.o.o.o.o.o.",
"o.o.o.o.o.o.o.o.o.o.o.o.o.o.o.o.L P L L L L L L L L L L L P L L o.o.o.o.o.o.o.o.o.o.o.o.o.o.o.o.",
"o.o.o.o.o.o.o.o.o.o.o.o.o.o.L L L L L L # # # # # # # # L # L L L L o.o.o.o.o.o.o.o.o.o.o.o.o.o.",
"o.o.o.o.o.o.o.o.o.o.o.o.L L L # # # @ @ @ + + + + + + @ @ # # # # L L L o.o.o.o.o.o.o.o.o.o.o.o.",
"o.o.o.o.o.o.o.o.o.o.L L L L # @ @ + O O O @ @ L L @ + + o O + + @ # L L L L o.o.o.o.o.o.o.o.o.o.",
"o.o.o.o.o.o.o.o.o.L # L # @ + O o @ P R E E ( ( ( ( ( E R I @ O O @ @ # # L L o.o.o.o.o.o.o.o.o.",
"o.o.o.o.o.o.o.o.L L # @ + O O L R E ( ) _ ` ` ` ` ` ` _ ) ) ( R L o O @ @ # L # o.o.o.o.o.o.o.o.",
"o.o.o.o.o.o.o.# # # @ + O # T E ) ` } } } } } | } } } } } ` _ _ ( R # O + @ # # L o.o.o.o.o.o.o.",
"o.o.o.o.o.o.# # @ @ O o I E ) ` } | | | | |  .|  .| | | } } } } _ ) ) I o O @ @ # # o.o.o.o.o.o.",
"o.o.o.o.o.# # # @ O O Y ( _ } } | | |  . . . . . . . . . .| | } } ` _ ) T O O @ # # # o.o.o.o.o.",
"o.o.o.o.# # # + O O T ( ` } | | |  . . . . .X. .X. . . . . . .| | } ` ` ) R O O + # # # o.o.o.o.",
"o.o.o.o.# @ @ O o Y ( ` | |  . . . . .X.X.X.X.X.X.X.X.X.X.X. . . .| | ` ` ) Y o O @ # # o.o.o.o.",
"o.o.o.# @ @ + o I E ` } |  . . .X. .X.X.X.X.X.X.X.X.X.X.X. .X. . . .| | } _ ) I o + @ @ # o.o.o.",
"o.o.o.# @ + O @ E _ | |  . . . .X.X.X.X.X.X.X.X.X.X.X.X.X.X.X.X. . . .| | } ` ) @ O + @ @ o.o.o.",
"o.o.# @ @ + o T ) } |  . . .X.X.X.X.X.X.X.X.X.X.X.X.X.X.X.X.X.X.X.X. . .| } } _ E X + @ @ # o.o.",
"o.o.@ @ + o # ( ` |  . . .X.X.X.X.X.X.X.[ ^ K B N J ~ ] X.X.X.X.X.X.X. . .| } ` ) L o + @ # o.o.",
"o.@ @ @ O X R ) | |  . .X.X.X.X.X.X...! m m a p t t q 7 K ..X.X.X.X.X.X. .| | } _ E o O @ @ @ o.",
"o.@ @ + O + E ` |  . .X.X.X.X.X.X.{ F N M m a p t e w 9 7 u ] X.X.X.X.X. . .| } ` _ @ o + @ @ o.",
"o.@ @ + o P ( | |  . . .X.X.X.X...G B N Z m v x l y r 0 7 , t ..X.X.X.X.X. . .} } _ I o + + @ o.",
"@ @ + O X T ) } |  .X. .X.X.X.X.~ V B S M Z v x l k g 0 0 2 , J X.X.X.X.X. . .| } _ E X O + @ @ ",
"@ + + O o E ) ` |  .X.X.X.X.X.{ C C S S Z Z b v l z g s 8 2 < ; ] X.X.X.X.X. .| } ` ) o O + @ @ ",
"+ @ + o O E _ ` | |  .X.X.X.X./ C V S S Z A A b z z h f s 2 < ; Q X.X.X.X.X. .| | } ) + o + + @ ",
"@ + + o @ ( _ ` }  . .X.X.X.X.W C V D S A A b b c z h f d 2 < ; C X.X.X.X.X. . .} ` _ @ o + + + ",
"+ + O o # ( _ } |  . . .X.X.X.1 = 2 g l x c n n n j h d 6 6 - & 7 X.X.X.X.X. . .| } _ # o O + @ ",
"+ + O o # ( _ } | |  .X.X.X.X.7 $ & * * 3 4 4 5 5 5 4 4 3 * * & 7 X.X.X.X.X. . .| } _ # o O + + ",
"+ + O o + ( _ ` |  .X.X.X.X.X.C $ & * * 3 3 4 5 5 5 4 3 3 * * & D X.X.X.X.X. . .| } _ + o O O + ",
"+ + O X O ( _ } | |  .X.X.X.X.W $ % * * * 3 4 4 4 4 3 3 3 * & % Q X.X.X.X.X. . .} } _ O X O + + ",
"O + O o X E _ ` | |  .X.X.X.X.' $ % & * * 3 3 3 3 4 3 3 * * % & ] X.X.X.X.X. .| | ` _ o o O O + ",
"+ O O o . T ) ` } |  .X.X.X.X.X.G $ % & * * 3 3 3 3 3 * * * % H X.X.X.X.X.X. . .} ` (   o O + + ",
"o.+ O o X P ) ` } |  . .X.X.X.X...7 % & & * * * * * * * * % 7 ..X.X.X.X.X. . .| } ` I X O O O o.",
"o.O O O X + ( _ } | |  .X.X.X.X.X.' 7 $ & & & * * * * & % 8 ' X.X.X.X.X. . . .} } _ + X o O O o.",
"o.O O o o . R ) } } |  . .X.X.X.X.X...G $ % % & % % % % H ..X.X.X.X.X.X. . .| | ` (   o O O O o.",
"o.o.O O o X # ( ` } |  . . .X.X.X.X.X.X.' W C 7 1 D Q ' X.X.X.X.X.X.X.X. . .} } _ # X o O O o.o.",
"o.o.O O o X   R ) ` } |  . .X.X.X.X.X.X.X.X.X.X.X.X.X.X.X.X.X.X.X.X.X. . .| } } E . X o O O o.o.",
"o.o.o.O o o X + ( _ } } |  . .X.X.X.X.X.X.X.X.X.X.X.X.X.X.X.X.X.X.X. . .| } } _ @ . o o O o.o.o.",
"o.o.o.O O o X   I ) _ } } |  . .X.X.X.X.X.X.X.X.X.X.X.X.X.X.X.X. . . .| | ` ` U   o o O O o.o.o.",
"o.o.o.o.O o o X   Y ) ` } } |  . .X.X.X.X.X.X.X.X.X.X.X.X.X.X. . . .| | } ` R   X o o O o.o.o.o.",
"o.o.o.o.O o o X . X R ) ` } | | |  . . . .X.X.X.X.X.X.X.X. . . .| | } } ` E X . X o o O o.o.o.o.",
"o.o.o.o.o.o O o X . X Y ) ` ` } | |  . . . . . . . . . . . .| | | } ` ` T X   X o o o o.o.o.o.o.",
"o.o.o.o.o.o.o o o X .   I ) _ ` } } } | |  .|  . . . .| | | | } } ` _ U   . X o o o o.o.o.o.o.o.",
"o.o.o.o.o.o.o.o o o X     + R _ ` ` } } } } | | } | | } } } } ` _ E @   . X o o o o.o.o.o.o.o.o.",
"o.o.o.o.o.o.o.o.o o o X X     @ E ) _ ` ` } ` } } } } } ` ` _ ) #     . X X o o o.o.o.o.o.o.o.o.",
"o.o.o.o.o.o.o.o.o.o o X X X .     O P E ) ) _ _ _ _ _ ) ( P O     . X X o o o o.o.o.o.o.o.o.o.o.",
"o.o.o.o.o.o.o.o.o.o.X o X X X X .       X o + @ @ + o .       . X X X X o X o.o.o.o.o.o.o.o.o.o.",
"o.o.o.o.o.o.o.o.o.o.o.o.o X X X X X .   .             . . X . X X X X o o.o.o.o.o.o.o.o.o.o.o.o.",
"o.o.o.o.o.o.o.o.o.o.o.o.o.o.X o o X X X X . X X X X X X X X X X X o o.o.o.o.o.o.o.o.o.o.o.o.o.o.",
"o.o.o.o.o.o.o.o.o.o.o.o.o.o.o.o.X X o X X X X X X X X X X X X o o.o.o.o.o.o.o.o.o.o.o.o.o.o.o.o.",
"o.o.o.o.o.o.o.o.o.o.o.o.o.o.o.o.o.o.o.X X X X X X X X X X o.o.o.o.o.o.o.o.o.o.o.o.o.o.o.o.o.o.o."
}
#endif
;
