/* XPM */

extern const char *typedf[]
#ifdef XPM_SOURCE
={
"22 22 88 2",
"Qt c None",
"#s c #0a0a0a",
"#t c #0b0b0b",
".D c #181818",
"#k c #191919",
".5 c #212121",
"#m c #222222",
"## c #232323",
"#p c #2a2a2a",
"#n c #2b2b2b",
"#o c #2e2e2e",
"#g c #2f2f2f",
"#c c #303030",
"#q c #373737",
"#j c #393939",
".3 c #3c3c3c",
".0 c #424242",
".j c #494949",
".C c #4a4a4a",
"#h c #4b4b4b",
".J c #4d4d4d",
".c c #4e4e4e",
".N c #4f4f4f",
"#r c #505050",
".n c #525252",
".B c #535353",
"#i c #545454",
".9 c #555555",
"#. c #575757",
".o c #595959",
".f c #5b5b5b",
".u c #5c5c5c",
".T c #5d5d5d",
".e c #5f5f5f",
"#b c #616161",
".k c #646464",
"#e c #666666",
"#a c #696969",
".S c #6d6d6d",
".X c #6e6e6e",
".4 c #6f6f6f",
".M c #707070",
"#u c #727272",
".I c #737373",
"#d c #767676",
".d c #777777",
".g c #787878",
"#f c #7d7d7d",
".t c #828282",
".Y c #838383",
".Z c #858585",
".8 c #888888",
".A c #898989",
".v c #8a8a8a",
".K c #8c8c8c",
".6 c #8f8f8f",
"#l c #909090",
".P c #949494",
".L c #959595",
".7 c #969696",
".Q c #979797",
".z c #999999",
".R c #9a9a9a",
".# c #9c9c9c",
".E c #9d9d9d",
"#v c #a0a0a0",
".F c #a1a1a1",
".H c #a4a4a4",
".G c #a5a5a5",
".r c #a7a7a7",
".w c #aaaaaa",
".p c #adadad",
".2 c #b0b0b0",
".x c #b1b1b1",
".W c #b5b5b5",
".1 c #b6b6b6",
".b c #b7b7b7",
".q c #b8b8b8",
".y c #b9b9b9",
".V c #c4c4c4",
".U c #cacaca",
".a c #d0d0d0",
".O c #d4d4d4",
".h c #dedede",
".i c #dfdfdf",
".s c #e9e9e9",
".m c #ebebeb",
".l c #f1f1f1",
"QtQtQtQtQtQtQtQtQtQtQtQtQtQtQtQtQtQtQtQtQtQt",
"QtQtQtQtQtQtQtQtQtQtQtQtQtQtQtQtQtQtQtQtQtQt",
"QtQtQtQtQtQtQtQtQtQtQtQtQtQtQtQtQtQtQtQtQtQt",
"QtQtQtQtQtQtQtQtQtQtQtQt.#.aQtQtQtQtQtQtQtQt",
"QtQtQtQtQtQtQtQtQtQt.b.c.d.eQtQtQtQtQtQtQtQt",
"QtQtQtQtQtQtQtQt.#.f.g.h.i.jQtQtQtQtQtQtQtQt",
"QtQtQtQtQtQt.b.c.k.b.l.m.i.jQtQtQtQtQtQtQtQt",
"QtQtQtQt.#.n.o.p.q.r.s.m.i.jQtQtQtQtQtQtQtQt",
"QtQtQt.t.u.v.w.x.y.z.A.B.C.DQtQtQtQtQtQtQtQt",
"QtQtQt.c.#.E.F.G.H.I.J.K.L.M.N.OQtQtQtQtQtQt",
"QtQtQt.c.P.L.Q.R.S.T.q.U.V.W.X.NQtQtQtQtQtQt",
"QtQtQt.c.Y.Z.Z.Z.0.d.1.q.2.r.t.3.1QtQtQtQtQt",
"QtQtQt.c.4.M.M.X.5.I.6.R.7.8.k.0.cQtQtQtQtQt",
"QtQtQt.c.k.o.9#.##.B.S.M#a#b.J#c.tQtQtQtQtQt",
"QtQtQt.c.K#d#e.u#f#g#h#i.B#h#j#kQtQtQtQtQtQt",
"QtQtQt.c.p#l.X.N.c#m###n#o#p.D#qQtQtQtQtQtQt",
"QtQtQt.c.E.c#r.aQt.1.M#s#t#u#v.aQtQtQtQtQtQt",
"QtQtQt.c#..bQtQtQtQtQtQtQtQtQtQtQtQtQtQtQtQt",
"QtQtQt.1.1QtQtQtQtQtQtQtQtQtQtQtQtQtQtQtQtQt",
"QtQtQtQtQtQtQtQtQtQtQtQtQtQtQtQtQtQtQtQtQtQt",
"QtQtQtQtQtQtQtQtQtQtQtQtQtQtQtQtQtQtQtQtQtQt",
"QtQtQtQtQtQtQtQtQtQtQtQtQtQtQtQtQtQtQtQtQtQt"}
#endif
;
