/* XPM */

extern const char *var[]
#ifdef XPM_SOURCE
={
"22 22 28 1",
". c None",
"b c #000000",
"c c #314e6c",
"r c #4e6239",
"a c #565248",
"i c #748fae",
"m c #7792b0",
"j c #7994b2",
"k c #7b96b3",
"n c #7b96b4",
"l c #7d98b5",
"# c #807d74",
"o c #819cb9",
"p c #839ebb",
"q c #85a0bd",
"v c #92ad74",
"w c #99b37e",
"y c #9bb580",
"x c #a1b988",
"z c #a2ba89",
"e c #a5b6ca",
"f c #a7b8cb",
"g c #a8b9cd",
"h c #a9bbce",
"t c #b7c9a4",
"u c #bbcca9",
"d c #c4cfdc",
"s c #d0dcc3",
"......................",
"......................",
"......................",
"......................",
"..#a.............#a...",
"..ab.ccccccccccc.ab...",
"..ab.cdeeeeefghc.ab...",
"..ab.ceiiiiijklc.ab...",
"..ab.cemjnjnopqc.ab...",
"..ab.ccccccccccc.ab...",
"..ab.............ab...",
"..ab.rrrrrrrrrrr.ab...",
"..ab.rstttttttur.ab...",
"..ab.rtvvvvvvwxr.ab...",
"..ab.rtvvvvvvyzr.ab...",
"..ab.rrrrrrrrrrr.ab...",
"..bb.............bb...",
"......................",
"......................",
"......................",
"......................",
"......................"}
#endif
;
