/* XPM */
extern const char *zoomin[] 
#ifdef XPM_SOURCE
= {
/* columns rows colors chars-per-pixel */
"48 48 179 2",
"   c #232323",
".  c #2C2C2C",
"X  c #363636",
"o  c #3F3F3F",
"O  c #414141",
"+  c #494949",
"@  c #444E5A",
"#  c #545454",
"$  c #5E5E5E",
"%  c #4B5663",
"&  c #47596F",
"*  c #535C66",
"=  c #505D69",
"-  c #4D5E73",
";  c #5D636A",
":  c #556371",
">  c #596573",
",  c #5A6876",
"<  c #52657B",
"1  c #5D6B79",
"2  c #606060",
"3  c #63696F",
"4  c #6A6A6A",
"5  c #636D76",
"6  c #626F7E",
"7  c #61707F",
"8  c #6A737C",
"9  c #747474",
"0  c gray48",
"q  c #264A9E",
"w  c #294EA4",
"e  c #2E54AC",
"r  c #3157B2",
"t  c #335AB5",
"y  c #365DB9",
"u  c #3860BD",
"i  c #606F82",
"p  c #647483",
"a  c #697683",
"s  c #6E7984",
"d  c #687788",
"f  c #6C7B8B",
"g  c #737C83",
"h  c #717E8B",
"j  c #677A93",
"k  c #6C7E92",
"l  c #3B64C3",
"z  c #3F68C9",
"x  c #416BCD",
"c  c #436DD1",
"v  c #4570D5",
"b  c #4974DA",
"n  c #4D79E1",
"m  c #73808F",
"M  c #6F8092",
"N  c #6C809D",
"B  c #738394",
"V  c #7F8992",
"C  c #748698",
"Z  c #77899C",
"A  c #7B8B9E",
"S  c #7C8EA2",
"D  c #748BAE",
"F  c #7E91A5",
"G  c #778FB4",
"H  c #7C91B1",
"J  c #7A93BC",
"K  c #7C96C0",
"L  c #808080",
"P  c #818B94",
"I  c #828E9B",
"U  c #83909D",
"Y  c #909090",
"T  c #8393A4",
"R  c #8A96A3",
"E  c #8E98A3",
"W  c #8296AA",
"Q  c #8997A8",
"!  c #8598AC",
"~  c #8B9BAC",
"^  c #919CA7",
"/  c #939FAB",
"(  c #879BB0",
")  c #8A9DB1",
"_  c #919EB0",
"`  c #96A1AD",
"'  c #9BA4AD",
"]  c #8FA1B5",
"[  c #8EA1BF",
"{  c #93A3B3",
"}  c #99A6B4",
"|  c #9FA9B5",
" . c #93A5B9",
".. c #9BA7B8",
"X. c #96A8BB",
"o. c #9CABBB",
"O. c #A4A8AD",
"+. c gray66",
"@. c #A1ACB6",
"#. c #A8AFB7",
"$. c #A1ADBC",
"%. c #A5B1BE",
"&. c #AAB3BC",
"*. c gray70",
"=. c gray75",
"-. c #879DC2",
";. c #839DC8",
":. c #9BACC3",
">. c #94A8CA",
",. c #9FB1C3",
"<. c #95ACD3",
"1. c #99AFD3",
"2. c #94ADD8",
"3. c #A2AFC3",
"4. c #A3B3C4",
"5. c #AAB6C3",
"6. c #A9B8C7",
"7. c #A4B4CC",
"8. c #A7B8CB",
"9. c #ACBBCC",
"0. c #B1BCCC",
"q. c #A9B7D1",
"w. c #ACBDD4",
"e. c #AFBFD9",
"r. c #9DB6E0",
"t. c #9FB8E2",
"y. c #A5BDE5",
"u. c #B2C0CE",
"i. c #BDC3CA",
"p. c #B4C4D4",
"a. c #BAC7D4",
"s. c #B4C2D9",
"d. c #BAC6DB",
"f. c #BBCADA",
"g. c #AFC4EC",
"h. c #B6C7E4",
"j. c #B1C6EC",
"k. c #B4C9EF",
"l. c #BFD0EA",
"z. c #BACEF2",
"x. c #BFD0F1",
"c. c #C8C8C8",
"v. c #C0C7D2",
"b. c #C9CED3",
"n. c #C1CFDC",
"m. c #C2D0DF",
"M. c #C4D3E2",
"N. c #C9D5E5",
"B. c #C9D8E7",
"V. c #C4D3ED",
"C. c #CDD7ED",
"Z. c #CCDAEB",
"A. c #D2DAE2",
"S. c #D3DBEB",
"D. c #D8DEEA",
"F. c #C1D3F5",
"G. c #C9D7F1",
"H. c #CDDAF3",
"J. c #C6D7FA",
"K. c #CCDCFC",
"L. c #D2DEF6",
"P. c #DAE0EA",
"I. c #D6E1F5",
"U. c #DAE3F6",
"Y. c #D4E2FF",
"T. c #DAE6FE",
"R. c #DEE9FF",
"E. c #E2E3E7",
"W. c #E4E7EC",
"Q. c #EAEDF3",
"!. c #E3ECFF",
"~. c #E8EFFF",
"^. c #EFF0F2",
"/. c #ECF2FF",
"(. c #F3F3F3",
"). c #F2F6FF",
"_. c #F6F9FF",
"`. c #FCFDFF",
"'. c None",
/* pixels */
"'.'.'.'.'.'.'.'.'.'.'.'.'.'.'.'.'.'.'.'.'.'.'.'.'.'.'.'.'.'.'.'.'.'.'.'.'.'.'.'.'.'.'.'.'.'.'.'.",
"'.'.'.'.'.'.'.'.'.'.'.'.'.'.'.'.'.P P '.'.'.'.'.'.'.'.'.'.'.'.'.'.'.'.'.'.'.'.'.'.'.'.'.'.'.'.'.",
"'.'.'.'.'.'.'.'.'.'.'.'.^ ' @.%.5.5.5.o.{ R I s '.'.'.'.'.'.'.'.'.'.'.'.'.'.'.'.'.'.'.'.'.'.'.'.",
"'.'.'.'.'.'.'.'.'.'.' &.a.m.B.B.M.m.f.f.p.w.4._ V a '.'.'.'.'.'.'.'.'.'.'.'.'.'.'.'.'.'.'.'.'.'.",
"'.'.'.'.'.'.'.'./ &.m.Z.C.m.a.6.5...} X.o.4.4.4.o.! h > '.'.'.'.'.'.'.'.'.'.'.'.'.'.'.'.'.'.'.'.",
"'.'.'.'.'.'.'.} a.Z.Z.f.5...4.7.s.e.w.w.:. .T ! {  .( B , '.'.'.'.'.'.'.'.'.'.'.'.'.'.'.'.'.'.'.",
"'.'.'.'.'.'.@.m.Z.m.5.:.p.G.H.L.H.H.H.G.V.l.h.:.S Z W ! Z 1 '.'.'.'.'.'.'.'.'.'.'.'.'.'.'.'.'.'.",
"'.'.'.'.'.@.m.Z.p.o.f.I.I.R.R.R.R.R.R.T.I.L.H.l.h.D j S ! Z 1 '.'.'.'.'.'.'.'.'.'.'.'.'.'.'.'.'.",
"'.'.'.'.' n.B.0.3.C.T.!.R.!.!.R.!.R.R.!.R.R.T.I.H.h.J j S W C > '.'.'.'.'.'.'.'.'.'.'.'.'.'.'.'.",
"'.'.'.` a.N.u.4.I.!.!.!.!.!.!.!.!.!.!.R.!.R.R.R.T.H.y.;.j S W k % '.'.'.'.'.'.'.'.'.'.'.'.'.'.'.",
"'.'.'.%.M.a.o.U.!.!.!.!.!.!.!.!.!.!.!.!.R.!.R.!.R.T.z.y.J j F F p '.'.'.'.'.'.'.'.'.'.'.'.'.'.'.",
"'.'.^ a.f.o.C.!.!.!.!.!.!.~.!.!.n n b b !.!.!.R.!.R.I.k.r.D C ( Z = '.'.'.'.'.'.'.'.'.'.'.'.'.'.",
"'.'.o.f.9.0.!.!.!.T.T.R.R.!.!.~.n b b c !.!.!.!.!.!.R.J.g.2.j F F p '.'.'.'.'.'.'.'.'.'.'.'.'.'.",
"'.U 9.p.} U.!.~.R.R.T.R.T.T.R.R.b b b c ~.!.!.!.!.R.!.K.x.y.G C W M @ '.'.'.'.'.'.'.'.'.'.'.'.'.",
"'.^ p.6.$.~.~.!./.!.!.R.R.R.R.T.b v c z ~.!.!.!.!.R.!.Y.K.k.2.j W S : '.'.'.'.'.'.'.'.'.'.'.'.'.",
"'./ w.} v.~.~.~.~./././.~.!.R.R.v c x z R.!.~.~.!.!.R.T.K.F.y.N S T 7 '.'.'.'.'.'.'.'.'.'.'.'.'.",
"'.{ 6.~ S.~.~./././././././././.c c z l T.T.R.!.!.~.R.T.K.K.k.H Z W d '.'.'.'.'.'.'.'.'.'.'.'.'.",
"h } :.T ~.~././././.n n b b v x z z l l u y t r e e !.T.K.K.x.-.C ! k '.'.'.'.'.'.'.'.'.'.'.'.'.",
"h _ X.T ~./././.)./.n b b c x x z l l u u t r e e w R.Y.Y.Y.x.2.B W B '.'.'.'.'.'.'.'.'.'.'.'.'.",
"a ~ { I ~./././.).).b b v c x x l l u y t r e e w w Y.Y.Y.K.J.1.B ! B '.'.'.'.'.'.'.'.'.'.'.'.'.",
"6 T ~ C /.).).).).).b v c x x l l y y t r e e w w q T.Y.Y.Y.K.>.B ( C '.'.'.'.'.'.'.'.'.'.'.'.'.",
"'.Z W M D.).).).).).)._._.).).).l y t r /./././.~.R.Y.Y.Y.K.K.[ F ] B '.'.'.'.'.'.'.'.'.'.'.'.'.",
"'.f ! C a.).)._._._._._.).)._.).y t r e /./././.~.~.T.Y.Y.Y.J.F ~  .B '.'.'.'.'.'.'.'.'.'.'.'.'.",
"'.d W S | _._._._._._.`.`._._.).t r e e )././././.R.T.T.T.Y.F.S X.X.s '.'.'.'.'.'.'.'.'.'.'.'.'.",
"'.1 S W B Q._._.`.`.`._.`._._._.r e e w )././././.R.T.T.Y.Y.1.Q ,.~ * '.'.'.'.'.'.'.'.'.'.'.'.'.",
"'.'.M ! C &.`.`.`.`.`.`.`.`.`._.e e w w ).)././.!.R.T.T.T.K.Q X.4.U '.'.'.'.'.'.'.'.'.'.'.'.'.'.",
"'.'.p F T B W.`.`.`.`.`.`.`.`.`.e w w q ).).)./.R.R.R.T.T.q.~ 8.o.a '.'.'.'.'.'.'.'.'.'.'.'.'.'.",
"'.'.'.k W Z ^ _.`.`.`.`.`.`.`.`.`._._._.)././.!.!.R.R.T.V.Q 4.9.R '.'.'.'.'.'.'.'.'.'.'.'.'.'.'.",
"'.'.'.1 Z ! C #.`.`.`.`.`.`.`.`.`.`.)._.)././.!.!.!.R.C.~ ,.p...8 '.'.'.'.'.'.'.'.'.'.'.'.'.'.'.",
"'.'.'.'.p F W C #.`.`.`.`.`.`.`._._._._.)./.~.!.!.R.H.) 4.p.{ f '.'.'.'.'.'.'.'.'.'.'.'.'.'.'.'.",
"'.'.'.'.'.d F W C E E.`.`.`.`.`.`.`._.)././.~.~.R.d.{ 4.a.{ ' Z '.'.'.'.'.'.'.'.'.'.'.'.'.'.'.'.",
"'.'.'.'.'.'.d F ! A B &.(.`.`.`.`.`._././.~.!.M...} 8.f.~ : ' A.F '.'.'.'.'.'.'.'.'.'.'.'.'.'.'.",
"'.'.'.'.'.'.'.p S W F Z B ` i.E.Q././.P.m.0.} ` 4.p.f.4., - M 4.A.; # 2 '.'.'.'.'.'.'.'.'.'.'.'.",
"'.'.'.'.'.'.'.'., k T ( ( ! T T A T U ~ ` $.8.p.f.u.} s '.& < k O.L o # $ '.'.'.'.'.'.'.'.'.'.'.",
"'.'.'.'.'.'.'.'.'.'.a C !  .o.:.,.4.9.9.p.p.p.9...U '.'.'.'.1 b.c.+ X O # $ '.'.'.'.'.'.'.'.'.'.",
"'.'.'.'.'.'.'.'.'.'.'.'.1 m T ~ X.o.o.o...` R g '.'.'.'.'.'.(.c.+.9 + X O # $ '.'.'.'.'.'.'.'.'.",
"'.'.'.'.'.'.'.'.'.'.'.'.'.'.'.'.3 5 8 3 '.'.'.'.'.'.'.'.'.'.$ 0 #.+.9 + X O # $ '.'.'.'.'.'.'.'.",
"'.'.'.'.'.'.'.'.'.'.'.'.'.'.'.'.'.'.'.'.'.'.'.'.'.'.'.'.'.'.'.$ 0 *.+.9 + X O # 2 '.'.'.'.'.'.'.",
"'.'.'.'.'.'.'.'.'.'.'.'.'.'.'.'.'.'.'.'.'.'.'.'.'.'.'.'.'.'.'.'.# 0 *.+.9 + X + # $ '.'.'.'.'.'.",
"'.'.'.'.'.'.'.'.'.'.'.'.'.'.'.'.'.'.'.'.'.'.'.'.'.'.'.'.'.'.'.'.'.# 0 *.+.9 + X o # $ '.'.'.'.'.",
"'.'.'.'.'.'.'.'.'.'.'.'.'.'.'.'.'.'.'.'.'.'.'.'.'.'.'.'.'.'.'.'.'.'.$ 0 *.+.9 + X O # $ '.'.'.'.",
"'.'.'.'.'.'.'.'.'.'.'.'.'.'.'.'.'.'.'.'.'.'.'.'.'.'.'.'.'.'.'.'.'.'.'.# 0 *.+.9 + X O # + '.'.'.",
"'.'.'.'.'.'.'.'.'.'.'.'.'.'.'.'.'.'.'.'.'.'.'.'.'.'.'.'.'.'.'.'.'.'.'.'.# 0 *.+.9 + X O o X '.'.",
"'.'.'.'.'.'.'.'.'.'.'.'.'.'.'.'.'.'.'.'.'.'.'.'.'.'.'.'.'.'.'.'.'.'.'.'.'.$ 0 *.+.9 + X . . '.'.",
"'.'.'.'.'.'.'.'.'.'.'.'.'.'.'.'.'.'.'.'.'.'.'.'.'.'.'.'.'.'.'.'.'.'.'.'.'.'.$ 0 *.+.4 X   '.'.'.",
"'.'.'.'.'.'.'.'.'.'.'.'.'.'.'.'.'.'.'.'.'.'.'.'.'.'.'.'.'.'.'.'.'.'.'.'.'.'.'.# 4 Y 4 O '.'.'.'.",
"'.'.'.'.'.'.'.'.'.'.'.'.'.'.'.'.'.'.'.'.'.'.'.'.'.'.'.'.'.'.'.'.'.'.'.'.'.'.'.'.X O $ '.'.'.'.'.",
"'.'.'.'.'.'.'.'.'.'.'.'.'.'.'.'.'.'.'.'.'.'.'.'.'.'.'.'.'.'.'.'.'.'.'.'.'.'.'.'.'.'.'.'.'.'.'.'."
}
#endif
;
