/* XPM */
extern const char *zoomout[] 
#ifdef XPM_SOURCE
= {
/* columns rows colors chars-per-pixel */
"48 48 179 2",
"   c #232323",
".  c #2C2C2C",
"X  c #363636",
"o  c #3F3F3F",
"O  c #414141",
"+  c #494949",
"@  c #444E5A",
"#  c #545454",
"$  c #5E5E5E",
"%  c #4B5663",
"&  c #47596F",
"*  c #535C66",
"=  c #505D69",
"-  c #4D5E73",
";  c #5D636A",
":  c #556371",
">  c #596573",
",  c #5A6876",
"<  c #52657B",
"1  c #5D6B79",
"2  c #606060",
"3  c #63696F",
"4  c #6A6A6A",
"5  c #636D76",
"6  c #626F7E",
"7  c #61707F",
"8  c #6A737C",
"9  c #747474",
"0  c gray48",
"q  c #264A9E",
"w  c #294EA4",
"e  c #2E54AC",
"r  c #3157B2",
"t  c #335AB5",
"y  c #365DB9",
"u  c #3860BD",
"i  c #606F82",
"p  c #647483",
"a  c #697683",
"s  c #6E7984",
"d  c #687788",
"f  c #6C7B8B",
"g  c #737C83",
"h  c #717E8B",
"j  c #677A93",
"k  c #6C7E92",
"l  c #3B64C3",
"z  c #3F68C9",
"x  c #416BCD",
"c  c #436DD1",
"v  c #4570D5",
"b  c #4974DA",
"n  c #4D79E1",
"m  c #73808F",
"M  c #6F8092",
"N  c #6C809D",
"B  c #738394",
"V  c #7F8992",
"C  c #748698",
"Z  c #77899C",
"A  c #7B8B9E",
"S  c #7C8EA2",
"D  c #748BAE",
"F  c #7E91A5",
"G  c #778FB4",
"H  c #7C91B1",
"J  c #7A93BC",
"K  c #7C96C0",
"L  c #808080",
"P  c #818B94",
"I  c #828E9B",
"U  c #83909D",
"Y  c #909090",
"T  c #8393A4",
"R  c #8A96A3",
"E  c #8E98A3",
"W  c #8296AA",
"Q  c #8997A8",
"!  c #8598AC",
"~  c #8B9BAC",
"^  c #919CA7",
"/  c #939FAB",
"(  c #879BB0",
")  c #8A9DB1",
"_  c #919EB0",
"`  c #96A1AD",
"'  c #9BA4AD",
"]  c #8FA1B5",
"[  c #8EA1BF",
"{  c #93A3B3",
"}  c #99A6B4",
"|  c #9FA9B5",
" . c #93A5B9",
".. c #9BA7B8",
"X. c #96A8BB",
"o. c #9CABBB",
"O. c #A4A8AD",
"+. c gray66",
"@. c #A1ACB6",
"#. c #A8AFB7",
"$. c #A1ADBC",
"%. c #A5B1BE",
"&. c #AAB3BC",
"*. c gray70",
"=. c gray75",
"-. c #879DC2",
";. c #839DC8",
":. c #9BACC3",
">. c #94A8CA",
",. c #9FB1C3",
"<. c #95ACD3",
"1. c #99AFD3",
"2. c #94ADD8",
"3. c #A2AFC3",
"4. c #A3B3C4",
"5. c #AAB6C3",
"6. c #A9B8C7",
"7. c #A4B4CC",
"8. c #A7B8CB",
"9. c #ACBBCC",
"0. c #B1BCCC",
"q. c #A9B7D1",
"w. c #ACBDD4",
"e. c #AFBFD9",
"r. c #9DB6E0",
"t. c #9FB8E2",
"y. c #A5BDE5",
"u. c #B2C0CE",
"i. c #BDC3CA",
"p. c #B4C4D4",
"a. c #BAC7D4",
"s. c #B4C2D9",
"d. c #BAC6DB",
"f. c #BBCADA",
"g. c #AFC4EC",
"h. c #B6C7E4",
"j. c #B1C6EC",
"k. c #B4C9EF",
"l. c #BFD0EA",
"z. c #BACEF2",
"x. c #BFD0F1",
"c. c #C8C8C8",
"v. c #C0C7D2",
"b. c #C9CED3",
"n. c #C1CFDC",
"m. c #C2D0DF",
"M. c #C4D3E2",
"N. c #C9D5E5",
"B. c #C9D8E7",
"V. c #C4D3ED",
"C. c #CDD7ED",
"Z. c #CCDAEB",
"A. c #D2DAE2",
"S. c #D3DBEB",
"D. c #D8DEEA",
"F. c #C1D3F5",
"G. c #C9D7F1",
"H. c #CDDAF3",
"J. c #C6D7FA",
"K. c #CCDCFC",
"L. c #D2DEF6",
"P. c #DAE0EA",
"I. c #D6E1F5",
"U. c #DAE3F6",
"Y. c #D4E2FF",
"T. c #DAE6FE",
"R. c #DEE9FF",
"E. c #E2E3E7",
"W. c #E4E7EC",
"Q. c #EAEDF3",
"!. c #E3ECFF",
"~. c #E8EFFF",
"^. c #EFF0F2",
"/. c #ECF2FF",
"(. c #F3F3F3",
"). c #F2F6FF",
"_. c #F6F9FF",
"`. c #FCFDFF",
"'. c None",
/* pixels */
"'.'.'.'.'.'.'.'.'.'.'.'.'.'.'.'.'.P V '.'.'.'.'.'.'.'.'.'.'.'.'.'.'.'.'.'.'.'.'.'.'.'.'.'.'.'.'.",
"'.'.'.'.'.'.'.'.'.'.'.'.^ } | %.5.5.4.%.` R U s '.'.'.'.'.'.'.'.'.'.'.'.'.'.'.'.'.'.'.'.'.'.'.'.",
"'.'.'.'.'.'.'.'.'.'.' &.i.M.B.B.B.f.f.f.a.w.4.{ A 8 '.'.'.'.'.'.'.'.'.'.'.'.'.'.'.'.'.'.'.'.'.'.",
"'.'.'.'.'.'.'.'.^ 5.m.Z.Z.m.a.5.%.o.} o.o.:.,.4.o.~ m > '.'.'.'.'.'.'.'.'.'.'.'.'.'.'.'.'.'.'.'.",
"'.'.'.'.'.'.'.} a.Z.Z.a.5...,.8.s.s.w.w.>. .T ! ]  .! B , '.'.'.'.'.'.'.'.'.'.'.'.'.'.'.'.'.'.'.",
"'.'.'.'.'.'.@.m.Z.n.5.4.s.G.H.H.H.G.H.Z.V.l.h.:.A A W W C 1 '.'.'.'.'.'.'.'.'.'.'.'.'.'.'.'.'.'.",
"'.'.'.'.'.@.m.Z.a.o.d.L.U.T.R.R.R.R.R.R.U.I.G.l.h.H j F ! Z 1 '.'.'.'.'.'.'.'.'.'.'.'.'.'.'.'.'.",
"'.'.'.'.' n.Z.u.4.G.U.!.!.!.!.R.R.!.R.R.R.R.T.I.G.h.K j S ! C > '.'.'.'.'.'.'.'.'.'.'.'.'.'.'.'.",
"'.'.'.` a.N.u.4.L.!.R.!.!.!.!.!.!.!.!.R.!.R.!.R.U.H.y.;.j S W f % '.'.'.'.'.'.'.'.'.'.'.'.'.'.'.",
"'.'.'.%.M.a.o.U.!.~.!.!.!.!.!.!.!.!.!.!.!.R.!.R.R.T.x.t.J j W F p '.'.'.'.'.'.'.'.'.'.'.'.'.'.'.",
"'.'.^ a.f.o.C.!.!.~.~.!.~.!.!.~.!.!.!.!.!.!.!.R.R.R.Y.k.r.D C W C = '.'.'.'.'.'.'.'.'.'.'.'.'.'.",
"'.'.$.f.6.0.!.!.R.T.T.T.R.!.~.~.!.~.!.!.!.!.!.!.!.!.R.J.g.2.j F F p '.'.'.'.'.'.'.'.'.'.'.'.'.'.",
"'.U 9.p.{ U.!.~.!.T.T.T.T.T.T.R.~.~.!.~.!.!.!.!.!.!.!.K.x.g.G N W B @ '.'.'.'.'.'.'.'.'.'.'.'.'.",
"'.^ u.6.$.~.~.~.~.~.!.R.R.R.R.T.T.T.!.!.~.!.!.!.!.R.!.Y.K.k.<.j F S : '.'.'.'.'.'.'.'.'.'.'.'.'.",
"'.` w.} f.~.~.~.~.~./.~.~.!.R.T.R.T.T.T.!.!.~.!.!.!.R.Y.K.x.g.N S W p '.'.'.'.'.'.'.'.'.'.'.'.'.",
"'.{ 8.~ S.~.~./././././././././.!.R.R.R.T.T.R.!.!.!.!.Y.Y.K.j.D Z W d '.'.'.'.'.'.'.'.'.'.'.'.'.",
"h  .:.R ~.~././././.n n b b v x z z z u u u r r e w !.Y.Y.Y.z.;.C W f '.'.'.'.'.'.'.'.'.'.'.'.'.",
"s { ..T ~.~./././.).n b b v x x z z l u u t r e e w T.T.Y.K.x.>.C ! k '.'.'.'.'.'.'.'.'.'.'.'.'.",
"a ~ { A /././.).).).b b v c x z l l u y u e r e w w T.Y.Y.K.J.1.B ! B '.'.'.'.'.'.'.'.'.'.'.'.'.",
"p T ~ C /./.).).).).b v c x x l l u y t r r w w w q Y.Y.Y.Y.K.>.Z ) B '.'.'.'.'.'.'.'.'.'.'.'.'.",
"'.Z ! M P.).).).).)._.).).)._.)./.)./././././.~.~.R.T.Y.Y.Y.K.[ F ] B '.'.'.'.'.'.'.'.'.'.'.'.'.",
"'.f ! C v.).).)._._._._._.)._.).).).).)./.)./.~./.!.T.Y.Y.Y.G.H ~  .B '.'.'.'.'.'.'.'.'.'.'.'.'.",
"'.d W S | )._._._._.`._._._._._.).).).).)./././.~.!.T.T.T.Y.x.F X. .s '.'.'.'.'.'.'.'.'.'.'.'.'.",
"'.1 S F B Q._._.`._.`.`.`.`._._._.).).).)./.).~.~.R.T.T.Y.Y.,.! ,.~ * '.'.'.'.'.'.'.'.'.'.'.'.'.",
"'.'.k W Z &._.`.`.`.`.`.`.`.`._._._.).).)./././.!.R.T.T.T.K.W X.4.T '.'.'.'.'.'.'.'.'.'.'.'.'.'.",
"'.'.p F T B W.`.`.`.`.`.`.`.`.`._._._.).).)././.!.R.T.T.T.q.~ 8.o.8 '.'.'.'.'.'.'.'.'.'.'.'.'.'.",
"'.'.'.M W Z E `.`.`.`.`.`.`.`.`.`._._._.).)./.~.R.R.R.T.V.! 6.8.Q '.'.'.'.'.'.'.'.'.'.'.'.'.'.'.",
"'.'.'.1 S W C #.`.`.`.`.`.`.`.`.`._._.).).).~.!.!.R.R.Z./ ,.u.o.8 '.'.'.'.'.'.'.'.'.'.'.'.'.'.'.",
"'.'.'.'.p F W C %._.`.`.`.`.`.`.`._._._.).~.~.!.!.!.C.) $.p. .f '.'.'.'.'.'.'.'.'.'.'.'.'.'.'.'.",
"'.'.'.'.'.d F W C E E.`.`.`.`.`.`._._._.).~.~.~.!.d.{ 6.p. .' A '.'.'.'.'.'.'.'.'.'.'.'.'.'.'.'.",
"'.'.'.'.'.'.d F W A B &.(.`.`.`.`._._././.~.!.N...{ 9.p.~ : ' A.F '.'.'.'.'.'.'.'.'.'.'.'.'.'.'.",
"'.'.'.'.'.'.'.p A ! T Z m ` i.P.Q.^./.P.N.0.{ { 4.a.s.6., - M %.A.; # 2 '.'.'.'.'.'.'.'.'.'.'.'.",
"'.'.'.'.'.'.'.'., M T ( ) ! T T F T T ~ { o.6.p.p.u.} g '.& < k O.L O # $ '.'.'.'.'.'.'.'.'.'.'.",
"'.'.'.'.'.'.'.'.'.'.a C !  .o.:.,.4.6.9.u.p.p.9.o.U '.'.'.'.p b.0.+ X O # $ '.'.'.'.'.'.'.'.'.'.",
"'.'.'.'.'.'.'.'.'.'.'.'.1 m T ~ { o.o.%.o.` R g '.'.'.'.'.'.(.c.+.9 + X O # 2 '.'.'.'.'.'.'.'.'.",
"'.'.'.'.'.'.'.'.'.'.'.'.'.'.'.'.3 5 8 3 '.'.'.'.'.'.'.'.'.'.$ 0 *.+.9 + X O # 2 '.'.'.'.'.'.'.'.",
"'.'.'.'.'.'.'.'.'.'.'.'.'.'.'.'.'.'.'.'.'.'.'.'.'.'.'.'.'.'.'.# 0 *.+.9 + X O # 2 '.'.'.'.'.'.'.",
"'.'.'.'.'.'.'.'.'.'.'.'.'.'.'.'.'.'.'.'.'.'.'.'.'.'.'.'.'.'.'.'.# 0 *.+.9 + X O # $ '.'.'.'.'.'.",
"'.'.'.'.'.'.'.'.'.'.'.'.'.'.'.'.'.'.'.'.'.'.'.'.'.'.'.'.'.'.'.'.'.$ 0 *.+.9 + X O # $ '.'.'.'.'.",
"'.'.'.'.'.'.'.'.'.'.'.'.'.'.'.'.'.'.'.'.'.'.'.'.'.'.'.'.'.'.'.'.'.'.# 0 *.+.9 + X o # $ '.'.'.'.",
"'.'.'.'.'.'.'.'.'.'.'.'.'.'.'.'.'.'.'.'.'.'.'.'.'.'.'.'.'.'.'.'.'.'.'.$ 0 *.+.9 + X O # + '.'.'.",
"'.'.'.'.'.'.'.'.'.'.'.'.'.'.'.'.'.'.'.'.'.'.'.'.'.'.'.'.'.'.'.'.'.'.'.'.# 0 *.+.9 + X O o X '.'.",
"'.'.'.'.'.'.'.'.'.'.'.'.'.'.'.'.'.'.'.'.'.'.'.'.'.'.'.'.'.'.'.'.'.'.'.'.'.# 0 *.+.9 + X . . '.'.",
"'.'.'.'.'.'.'.'.'.'.'.'.'.'.'.'.'.'.'.'.'.'.'.'.'.'.'.'.'.'.'.'.'.'.'.'.'.'.# 0 *.+.4 .   '.'.'.",
"'.'.'.'.'.'.'.'.'.'.'.'.'.'.'.'.'.'.'.'.'.'.'.'.'.'.'.'.'.'.'.'.'.'.'.'.'.'.'.# 4 Y 4 + '.'.'.'.",
"'.'.'.'.'.'.'.'.'.'.'.'.'.'.'.'.'.'.'.'.'.'.'.'.'.'.'.'.'.'.'.'.'.'.'.'.'.'.'.'.X + $ '.'.'.'.'.",
"'.'.'.'.'.'.'.'.'.'.'.'.'.'.'.'.'.'.'.'.'.'.'.'.'.'.'.'.'.'.'.'.'.'.'.'.'.'.'.'.'.'.'.'.'.'.'.'.",
"'.'.'.'.'.'.'.'.'.'.'.'.'.'.'.'.'.'.'.'.'.'.'.'.'.'.'.'.'.'.'.'.'.'.'.'.'.'.'.'.'.'.'.'.'.'.'.'."
}
#endif
;
