/* XPM */
static const char *disks_xpm[] = {
"48 48 433 2",
"  	c None",
". 	c #000000",
"+ 	c #212121",
"@ 	c #424242",
"# 	c #595959",
"$ 	c #4D4D4D",
"% 	c #2C2C2C",
"& 	c #6F6F6F",
"* 	c #B3B3B3",
"= 	c #CECECE",
"- 	c #D6D6D6",
"; 	c #E1E1E1",
"> 	c #E0E0E0",
", 	c #DFDFDF",
"' 	c #D3D3D3",
") 	c #C0C5C7",
"! 	c #A6ABAD",
"~ 	c #161616",
"{ 	c #898989",
"] 	c #D4D4D4",
"^ 	c #EDEDED",
"/ 	c #F4F4F4",
"( 	c #F3F3F3",
"_ 	c #F1F1F1",
": 	c #F0F0F0",
"< 	c #EFEFEF",
"[ 	c #EEEEEE",
"} 	c #ECECEC",
"| 	c #BCDAE8",
"1 	c #B2D6E8",
"2 	c #B2CAD7",
"3 	c #BABAB2",
"4 	c #0B0B0B",
"5 	c #7A7A7A",
"6 	c #F2F2F2",
"7 	c #F5F5F5",
"8 	c #DDE6EA",
"9 	c #CBE2D3",
"0 	c #F6F8B2",
"a 	c #CFD0B2",
"b 	c #B4B4B4",
"c 	c #EBEBEB",
"d 	c #F7F7F7",
"e 	c #F6F6F6",
"f 	c #C0DBE8",
"g 	c #BADAE1",
"h 	c #F1F5B5",
"i 	c #CFD6B5",
"j 	c #CCCCCC",
"k 	c #F8F8F8",
"l 	c #DCE5EA",
"m 	c #E5EFBF",
"n 	c #E4F2B8",
"o 	c #C8E9C2",
"p 	c #B8C3B7",
"q 	c #373737",
"r 	c #C3DCE8",
"s 	c #D4E7CD",
"t 	c #C6E5C1",
"u 	c #9E9D9B",
"v 	c #CDCDCD",
"w 	c #F9F9F9",
"x 	c #E3E7EA",
"y 	c #BEDCDD",
"z 	c #CBE4BF",
"A 	c #DDD0B4",
"B 	c #C7BBB1",
"C 	c #B8B8B8",
"D 	c #EAEAEA",
"E 	c #C6DDE8",
"F 	c #B6D8E4",
"G 	c #EDF3B8",
"H 	c #D2DCBB",
"I 	c #E2CAB1",
"J 	c #E4C8B0",
"K 	c #DDC5B0",
"L 	c #959595",
"M 	c #E2E7E9",
"N 	c #D8E9C9",
"O 	c #D9EEBC",
"P 	c #C9E6C0",
"Q 	c #DBD2B5",
"R 	c #E7CEB9",
"S 	c #AEADAB",
"T 	c #E3E3E3",
"U 	c #C2C2C2",
"V 	c #A8A8A8",
"W 	c #A7A7A7",
"X 	c #9EA9AE",
"Y 	c #C2D9CE",
"Z 	c #D0DEBC",
"` 	c #E9D2BE",
" .	c #F4EAE1",
"..	c #FFFFFF",
"+.	c #C5C5C5",
"@.	c #CBCBCB",
"#.	c #7F7F7F",
"$.	c #888888",
"%.	c #999999",
"&.	c #929292",
"*.	c #7E7E7A",
"=.	c #BDCCA5",
"-.	c #D9D4B6",
";.	c #ECD9C8",
">.	c #F8F1EB",
",.	c #1A1F27",
"'.	c #696969",
").	c #8F8F8F",
"!.	c #C4C4C4",
"~.	c #ABABAB",
"{.	c #272727",
"].	c #E7E7E7",
"^.	c #BABABA",
"/.	c #7B7B7B",
"(.	c #7B7D7B",
"_.	c #D8C5AD",
":.	c #E5CBB4",
"<.	c #EEDCCD",
"[.	c #FBF8F5",
"}.	c #9F9F9F",
"|.	c #5F5F5F",
"1.	c #1F1F1F",
"2.	c #181D25",
"3.	c #354156",
"4.	c #4C6285",
"5.	c #5E7FB2",
"6.	c #5C82BB",
"7.	c #A0B6D7",
"8.	c #292929",
"9.	c #A4A4A4",
"0.	c #858585",
"a.	c #4C4C4C",
"b.	c #727272",
"c.	c #BCB4AC",
"d.	c #FDFBFA",
"e.	c #212429",
"f.	c #49515E",
"g.	c #6C7A92",
"h.	c #8A9FC3",
"i.	c #8AA3CD",
"j.	c #819CC9",
"k.	c #7896C6",
"l.	c #6F8FC2",
"m.	c #7293C4",
"n.	c #7A9AC7",
"o.	c #ACC0DC",
"p.	c #D8DDE5",
"q.	c #3B3B3B",
"r.	c #D9D9D9",
"s.	c #8D8D8D",
"t.	c #393939",
"u.	c #2A2B2D",
"v.	c #5F6268",
"w.	c #8E94A0",
"x.	c #B8C2D6",
"y.	c #BBC7E0",
"z.	c #B1C0DC",
"A.	c #A8B9D9",
"B.	c #9EB1D5",
"C.	c #95ACD1",
"D.	c #91AAD0",
"E.	c #96AED2",
"F.	c #9FB5D5",
"G.	c #9DB2D5",
"H.	c #97ADD2",
"I.	c #90A7CF",
"J.	c #B5BFD1",
"K.	c #B2B2B2",
"L.	c #646464",
"M.	c #252525",
"N.	c #646567",
"O.	c #ABACAD",
"P.	c #E5E6EA",
"Q.	c #EAEEF5",
"R.	c #E0E6F1",
"S.	c #D7DEED",
"T.	c #CED6E8",
"U.	c #B9C7E0",
"V.	c #A9BCD9",
"W.	c #A7BBD9",
"X.	c #AABEDA",
"Y.	c #B0C1DC",
"Z.	c #B2C1DD",
"`.	c #ADBCDA",
" +	c #A5B7D7",
".+	c #9EB1D4",
"++	c #96ACD1",
"@+	c #8FA6CE",
"#+	c #B4BED0",
"$+	c #909090",
"%+	c #8C8C8C",
"&+	c #B1B1B1",
"*+	c #848484",
"=+	c #CACACA",
"-+	c #E6E6E6",
";+	c #D0D1D2",
">+	c #DDE0E5",
",+	c #EDF0F7",
"'+	c #D6DFED",
")+	c #BECDE3",
"!+	c #B5C6DF",
"~+	c #B3C4DE",
"{+	c #BFCDE3",
"]+	c #C9D2E6",
"^+	c #C6D0E5",
"/+	c #BFCBE2",
"(+	c #B8C5DF",
"_+	c #AABAD9",
":+	c #A3B5D6",
"<+	c #9BAFD4",
"[+	c #94AAD1",
"}+	c #8DA5CE",
"|+	c #B3BED0",
"1+	c #DCDCDC",
"2+	c #3A3A3A",
"3+	c #C3C3C3",
"4+	c #AFAFAF",
"5+	c #2F2F2F",
"6+	c #C9C9C9",
"7+	c #E4E4E4",
"8+	c #AEAFB1",
"9+	c #C2CFE4",
"0+	c #D1D9EA",
"a+	c #D3DBEB",
"b+	c #D0D8E9",
"c+	c #CCD5E7",
"d+	c #C7D0E5",
"e+	c #C1CCE3",
"f+	c #B5C2DD",
"g+	c #AEBDDB",
"h+	c #A7B8D8",
"i+	c #A0B2D5",
"j+	c #98ADD3",
"k+	c #91A8D0",
"l+	c #8BA3CD",
"m+	c #B1BCCF",
"n+	c #FBFBFB",
"o+	c #B6B1AC",
"p+	c #565656",
"q+	c #BFC2C8",
"r+	c #CED7E9",
"s+	c #C5CFE5",
"t+	c #BCC8E0",
"u+	c #B6C4DE",
"v+	c #B0BFDB",
"w+	c #A3B5D7",
"x+	c #9CB0D4",
"y+	c #95ABD1",
"z+	c #88A1CC",
"A+	c #B0BBCE",
"B+	c #E9E9E9",
"C+	c #D8D8D8",
"D+	c #F3E6DC",
"E+	c #D2BDA7",
"F+	c #303030",
"G+	c #C1C1C1",
"H+	c #B6B6B6",
"I+	c #BCBFC6",
"J+	c #C5CFE4",
"K+	c #C2CDE3",
"L+	c #BFCAE2",
"M+	c #B6C3DE",
"N+	c #B1BFDC",
"O+	c #ABBBDA",
"P+	c #A5B6D7",
"Q+	c #9EB2D5",
"R+	c #98ADD2",
"S+	c #849FCA",
"T+	c #AEBACD",
"U+	c #E8E8E8",
"V+	c #EFE0D2",
"W+	c #AEBB9B",
"X+	c #828282",
"Y+	c #B8BDC5",
"Z+	c #BECAE1",
"`+	c #BDC9E1",
" @	c #B4C2DD",
".@	c #ABBBD9",
"+@	c #A5B7D8",
"@@	c #A0B3D5",
"#@	c #9AAED3",
"$@	c #93AAD1",
"%@	c #8EA5CE",
"&@	c #87A1CB",
"*@	c #ACB8CC",
"=@	c #D4DABA",
"-@	c #AFC2B9",
";@	c #868D90",
">@	c #919191",
",@	c #DADADA",
"'@	c #B5BAC3",
")@	c #B7C4DF",
"!@	c #B7C4DE",
"~@	c #B5C3DE",
"{@	c #B3C1DD",
"]@	c #ADBDDA",
"^@	c #A9BAD9",
"/@	c #9AAFD3",
"(@	c #8FA6CF",
"_@	c #89A2CC",
":@	c #839ECA",
"<@	c #7D99C7",
"[@	c #AAB7CB",
"}@	c #B0B0B0",
"|@	c #EAD5C3",
"1@	c #DECEB3",
"2@	c #CDE2BE",
"3@	c #E0EDC2",
"4@	c #DCE1E3",
"5@	c #313131",
"6@	c #B2B7C2",
"7@	c #AFBEDB",
"8@	c #ACBCDA",
"9@	c #A6B7D8",
"0@	c #A2B5D6",
"a@	c #99AED3",
"b@	c #7F9BC8",
"c@	c #7996C6",
"d@	c #A8B5CA",
"e@	c #E5E5E5",
"f@	c #D6D8B9",
"g@	c #C4DAE5",
"h@	c #C6C6C6",
"i@	c #AFB5C0",
"j@	c #A4B6D7",
"k@	c #A2B4D6",
"l@	c #9FB2D5",
"m@	c #93AAD0",
"n@	c #859FCA",
"o@	c #809BC8",
"p@	c #7A97C6",
"q@	c #7493C4",
"r@	c #A5B3C8",
"s@	c #E2E2E2",
"t@	c #383838",
"u@	c #CEBEB0",
"v@	c #C3DEDA",
"w@	c #DBE0E2",
"x@	c #DEDEDE",
"y@	c #C7C7C7",
"z@	c #ACB2BE",
"A@	c #91A8CF",
"B@	c #7593C4",
"C@	c #A3B1C7",
"D@	c #ABABA7",
"E@	c #BDD8E6",
"F@	c #DDDDDD",
"G@	c #323232",
"H@	c #A9B0BD",
"I@	c #97ACD2",
"J@	c #96ACD2",
"K@	c #93A9D0",
"L@	c #87A0CB",
"M@	c #839DCA",
"N@	c #7E9AC8",
"O@	c #7090C3",
"P@	c #6A8CC0",
"Q@	c #AAB8CC",
"R@	c #BDCDBA",
"S@	c #E9F1BC",
"T@	c #D5DEE2",
"U@	c #A5AEBB",
"V@	c #8CA4CD",
"W@	c #8AA2CC",
"X@	c #849ECA",
"Y@	c #809CC9",
"Z@	c #7C99C7",
"`@	c #7492C4",
" #	c #6E8FC2",
".#	c #E1E3E7",
"+#	c #D1DAB6",
"@#	c #DBDBDB",
"##	c #A2ABBA",
"$#	c #86A0CB",
"%#	c #7694C5",
"&#	c #7291C3",
"*#	c #7695C5",
"=#	c #95ACD0",
"-#	c #B3C3DA",
";#	c #E0E3E6",
">#	c #363636",
",#	c #DCDDB2",
"'#	c #CFE4D0",
")#	c #D4DDE2",
"!#	c #333333",
"~#	c #9FA9B8",
"{#	c #7B98C7",
"]#	c #9CB1D3",
"^#	c #B9C7DD",
"/#	c #D3D9E3",
"(#	c #B5B5B5",
"_#	c #353535",
":#	c #C7CAB5",
"<#	c #B2D1E1",
"[#	c #B7D7E7",
"}#	c #9CA7B7",
"|#	c #9FB3D4",
"1#	c #BCC9DF",
"2#	c #D6DCE5",
"3#	c #BDBDBD",
"4#	c #BFBFBF",
"5#	c #D7D7D7",
"6#	c #9B9B9B",
"7#	c #B2BDC2",
"8#	c #C3CCD0",
"9#	c #D2D2D2",
"0#	c #CFCFCF",
"a#	c #DCDDDF",
"b#	c #9CB1D4",
"c#	c #D7DDE6",
"d#	c #D0D0D0",
"e#	c #B7B7B7",
"f#	c #D5D5D5",
"g#	c #343434",
"h#	c #D1D1D1",
"i#	c #A9A9A9",
"j#	c #A2A2A2",
"k#	c #9C9C9C",
"l#	c #C8C8C8",
"m#	c #9A9A9A",
"n#	c #BCBCBC",
"o#	c #BEBEBE",
"p#	c #8B8B8B",
"q#	c #0F0F0F",
"r#	c #656565",
"s#	c #282828",
"t#	c #AAAAAA",
"u#	c #AEAEAE",
"v#	c #0E0E0E",
"w#	c #838383",
"x#	c #777777",
"y#	c #ACACAC",
"z#	c #1A1A1A",
"                                                                                                ",
"                                                                                                ",
"                                                                                                ",
"                                        . . .                                                   ",
"                                . . + @ # # # $ % . .                                           ",
"                            . % & * = - ; > , ' ) ! & ~ .                                       ",
"                        . % { ] ^ / ( _ : < [ } | 1 2 3 # .                                     ",
"                    . 4 5 ] 6 7 / ( 6 : < [ ^ 8 1 1 9 0 a & .                                   ",
"                  . % b c d e / ( 6 _ < [ ^ c f 1 g h 0 0 i & .                                 ",
"                . @ j k d e 7 ( 6 _ < [ ^ } l 1 1 m 0 0 n o p q .                               ",
"              . @ j k d e 7 ( 6 _ : [ ^ } c r 1 s 0 0 n o o t u .                               ",
"            . q v w d e 7 / 6 _ : < ^ } c x 1 y 0 0 n o o z A B @ .                             ",
"            + C w k e 7 / ( _ : < [ } c D E F G 0 n o o H I J K 5 .                             ",
"          . L 7 k d 7 / ( 6 : < [ ^ c D M 1 N 0 O o P Q J J J R S .                             ",
"        . $ T k d e / ( 6 _ < [ ^ U V W X Y 0 O o Z I J J `  ...+..         . . . .             ",
"        4 C k d e 7 ( 6 _ : [ @.#.$.%.%.&.*.=.P -.J J ;.>.......' % . . . ,.'.).!.~.{..         ",
"      . # ].d e 7 / 6 _ : < ^./.%.%.%.%.%.%.(._.:.<.[....., }.|.1.2.3.4.5.6.7.: T c _ 8.        ",
"      . 9.k e 7 / ( _ : < ] /.%.%.0.a.b.%.%.).c.d., }.|.1.e.f.g.h.i.j.k.l.m.n.o.p.[ [ q.        ",
"      q r.d 7 / ( 6 : < [ s.%.%.|.. . . b.0.|.t.1.u.v.w.x.y.z.A.B.C.D.E.F.G.H.I.J.K.L q.        ",
"    . L.D e / ( 6 _ < [ ' 0.%.0..     . . M.N.O.P.Q.R.S.T.U.V.W.X.Y.Z.`. +.+++@+#+$+%+q.        ",
"    . { e 7 ( 6 _ : [ ^ &+&.%.a..   . *+=+-+;+>+,+'+)+!+~+{+]+^+/+(+z._+:+<+[+}+|+1+c 2+        ",
"    . 3+7 / 6 _ : ( 7 w 4+%.%.|..   5+6+7+_ 7 c 8+9+0+a+b+c+d+e+y.f+g+h+i+j+k+l+m+D D 2+        ",
"    . U 7 d w n+........o+&.%.%.p+5+5+U 7 ( 6 c q+r+T.c+]+s+e+t+u+v+_+w+x+y+@+z+A+B+B+2+        ",
"    % C+..........d.D+R E+/.%.%.%.%.F+G+k %.H+c I+d+^+J+K+L+y.M+N+O+P+Q+R+k+l+S+T+U+U+t.        ",
"    + ' ......[.V+:.J A z W+X+%.%.%.F+3+k b.V c Y+/+Z+`+y.(+ @v+.@+@@@#@$@%@&@j.*@].].t.        ",
"    . +...>.<.J J I =@o O 0 -@;@>@$+F+!.d ,@< c '@)@!@~@{@N+]@^@P+i+/@[+(@_@:@<@[@-+-+t.        ",
"    . }@|@J J J 1@2@o O 0 3@1 4@; > 5@+.d [ [ c 6@7@7@g+8@^@9@0@B.a@[+I.i.S+b@c@d@e@7+t.        ",
"    . 5 K J J f@o o O 0 G F g@; > , 5@h@e ^ ^ c i@h+h+9@j@k@l@<+R+m@@+i.n@o@p@q@r@T s@t@        ",
"    . @ u@1@2@o o O 0 0 v@1 w@> , x@5@y@e } } c z@l@l@B.x+/@R+[+A@}+_@S+b@p@B@l.C@; > t@        ",
"      4 D@P o o O 0 0 s 1 E@> , x@F@G@6+7 c c c H@H.I@J@y+K@A@%@l+L@M@N@p@B@O@P@Q@, x@q         ",
"      . # R@o O 0 0 S@1 1 T@, x@F@1+G@=+7 D D c U@I.I.@+%@V@W@L@X@Y@Z@c@`@l.P@ #.#F@1+q         ",
"        . $++#0 0 h y 1 E@> x@F@1+@#G@@./ B+B+c ##_@z+z+$#n@M@o@<@p@%#&#*#=#-#;#F@@#,@>#        ",
"          4 $+,#0 '#1 1 )#, F@1+@#,@!#j / U+U+c ~#j.j.o@b@<@{#c@N@]#^#/#x@y@(#b - r.C+_#        ",
"            4 0.:#<#1 [#, x@1+@#,@r.!#= ( ].].c }#c@c@c@o@|#1#2#> v =+y@G+3#4#C C 5#- _#        ",
"              . @ 6#7#8#- F@@#,@9#j !#0#6 -+-+c a#b#1#c#; = @.j ,@} < 6 < d#C * e#f#] g#        ",
"                . . + $ & 0.0.0.L.$ !#d#6 e@7+T s@s@; U C+U+U+> : 6 _ : < j }@~.H+' 9#g#        ",
"                      . . . . . . . g#h#_ T s@; > , !.7+7 r.!.v [ : < [ ^ 6+i#9.(#h#d#!#        ",
"                                    g#' : ; > , x@F@= < 6 r.=+v } [ ^ } c +.j#k#b 0#= !#        ",
"                                    g#] < , x@F@1+@#v [ : - 3+l#D c c D B+G+m#L * j j G@        ",
"                                    _#f#[ F@1+@#,@r.j } [ 9#n#3+B+B+U+].].3#&.s.K.o#p#1.        ",
"                                    q#6+^ @#,@r.C+5#@.c } = (#G+].].-+e@s@* r#@ 1.. . .         ",
"                                    . s#1+r.C+5#- f#6+B+D , , -+-+e@T s@t#t.. .                 ",
"                                      . s#u#- f#] ' l#].U+].-+e@~.b.t.. .                       ",
"                                          v#*+' +.w#x#e@y#b.t.. .                               ",
"                                            . {.z#. . . .                                       ",
"                                                                                                ",
"                                                                                                ",
"                                                                                                "};
