/* XPM */
static char *class_decl[]={
"22 22 12 1",
". c None",
"# c #000000",
"b c #0016a4",
"c c #0069be",
"e c #008080",
"f c #00c0c0",
"d c #00ffff",
"a c #7186b4",
"i c #808000",
"j c #c0c000",
"h c #ffff00",
"g c #ffffc0",
"......................",
"......................",
"......................",
"........##............",
".......#aa##..........",
"......#aaaaa#.........",
".....#aaaaab###.......",
".....#ccaabb#dd##.....",
".....#cccbbbddddd#....",
".....#cccb#ddddde#....",
"......###b#ffddee#....",
"......#gg##fffeee#....",
".....#ggghh#ffee#.....",
"....#hhhhhi##fe#......",
"....#jjhhii#.##.......",
"....#jjjiii#..........",
"....#jjjii#...........",
".....##ji#............",
".......##.............",
"......................",
"......................",
"......................"};
